{"glyphs":{"0":{"ha":885,"x_min":49,"x_max":885,"o":"m 311 700 q 246 745 271 710 q 215 831 221 781 q 178 546 178 696 q 215 272 178 396 q 336 67 253 149 q 535 -14 419 -14 q 719 121 651 -14 q 786 443 786 256 q 628 907 786 751 q 424 990 543 990 q 310 938 357 990 q 264 820 264 886 q 321 717 264 754 q 311 700 319 701 m 307 1036 q 476 1089 376 1089 q 656 1038 576 1089 q 783 903 735 988 q 885 500 885 728 q 843 230 885 354 q 711 23 801 106 q 488 -60 621 -60 q 252 19 356 -60 q 99 224 149 99 q 49 499 49 349 q 152 904 49 711 q 451 1200 256 1097 l 454 1200 q 460 1188 460 1200 q 450 1169 460 1175 q 307 1036 369 1131 z "},"1":{"ha":399,"x_min":-79,"x_max":440,"o":"m 429 10 q 440 3 440 7 l 440 0 q 389 -39 440 -8 q 329 -76 338 -69 q 317 -81 328 -81 q 297 -72 306 -81 q 180 208 217 18 q 143 558 143 399 l 149 856 q 146 868 149 867 l 144 868 l 133 863 q -11 825 64 825 q -68 832 -33 825 q -79 843 -79 836 l -67 853 q 22 890 -19 864 q 88 942 63 915 q 131 997 113 969 q 165 1063 157 1036 q 181 1069 165 1068 q 281 1085 249 1072 q 283 1078 283 1085 q 275 1025 283 1072 q 253 701 253 883 q 271 396 253 519 q 315 204 289 272 q 411 25 371 61 l 429 10 z "},"2":{"ha":581,"x_min":-7,"x_max":611,"o":"m 331 140 q 473 115 401 140 q 589 39 544 90 q 599 13 599 32 l 611 -139 l 604 -144 q 268 49 463 49 q 158 33 213 49 q 75 3 103 18 l 33 -24 q 25 -8 25 -19 q 31 17 25 3 q 59 56 36 32 q 119 99 82 81 q 302 438 218 197 q 386 858 386 678 q 288 1039 386 1039 q 155 992 214 1039 q 96 871 96 944 q 121 799 96 825 q 186 772 146 772 l 221 779 q 240 769 233 779 q 188 718 236 756 q 95 681 140 681 q 22 720 50 681 q -7 821 -7 760 q 126 1022 -7 933 q 393 1111 258 1111 q 528 952 528 1111 q 424 550 528 793 q 193 124 319 307 q 331 140 247 136 z "},"3":{"ha":740,"x_min":14,"x_max":729,"o":"m 371 547 q 469 564 388 564 q 665 506 601 564 q 729 354 729 447 q 603 69 729 208 q 319 -71 478 -71 q 157 -26 225 -71 q 21 101 89 19 q 107 181 79 169 q 133 164 117 181 l 153 144 q 421 11 306 11 q 565 88 511 11 q 619 258 619 165 q 574 413 619 351 q 451 475 529 475 q 279 424 372 475 q 256 413 264 413 q 244 444 244 417 q 254 494 244 471 q 285 540 269 533 q 464 842 464 700 q 419 965 464 924 q 305 1006 375 1006 q 176 958 235 1006 q 117 838 117 911 q 142 765 117 792 q 207 739 167 739 l 242 746 q 261 736 254 746 q 209 685 257 722 q 116 647 161 647 q 42 687 71 647 q 14 788 14 726 q 147 989 14 900 q 413 1078 279 1078 q 533 1042 488 1078 q 579 932 579 1006 q 522 757 579 858 q 367 553 464 656 q 371 547 367 550 z "},"4":{"ha":694,"x_min":-14,"x_max":781,"o":"m 408 544 q 408 591 408 544 q 406 651 407 638 q 410 669 406 665 q 419 675 415 672 q 435 684 424 678 q 456 697 446 690 q 476 709 467 703 q 494 719 486 715 q 504 724 501 724 q 507 696 507 724 q 524 356 507 494 q 585 349 543 354 q 697 311 643 338 q 764 249 751 285 l 781 179 q 774 169 781 169 q 532 294 676 271 q 715 -35 579 -21 q 726 -42 726 -37 l 726 -44 q 675 -83 726 -53 q 615 -121 624 -114 q 603 -125 614 -125 q 583 -117 592 -125 q 424 301 457 0 q 13 196 239 296 q -3 193 6 193 q -14 214 -14 194 l -14 218 q 199 645 89 358 q 310 1107 310 932 q 267 1247 310 1208 q 265 1254 265 1253 q 272 1261 265 1261 q 392 1050 392 1221 q 163 313 392 825 q 169 303 163 303 q 417 357 278 347 q 408 544 410 451 z "},"5":{"ha":694,"x_min":-14,"x_max":696,"o":"m 149 743 l 207 744 q 574 635 451 744 q 696 365 696 525 q 644 159 696 258 q 497 -6 593 60 q 296 -71 401 -71 q 122 -26 190 -71 q -14 101 54 19 q 72 181 44 169 q 97 165 82 181 q 118 144 111 150 q 396 17 271 17 q 545 89 490 17 q 600 264 600 161 q 503 510 600 403 q 228 617 406 617 q 158 612 190 617 q 121 608 126 607 q 103 621 106 610 l 103 625 q 31 1039 64 911 l 19 1081 q 33 1093 19 1093 q 80 1083 39 1093 q 225 1056 121 1074 q 413 1038 329 1038 q 503 1068 497 1038 q 517 1074 511 1074 q 529 1051 522 1071 q 536 1007 536 1031 q 534 971 536 983 q 526 949 532 958 q 496 928 521 939 q 431 917 471 917 q 199 944 360 917 l 113 960 q 99 951 100 960 q 113 828 99 910 q 149 743 126 747 z "},"6":{"ha":731,"x_min":61,"x_max":718,"o":"m 479 1136 q 609 1092 567 1136 q 651 982 651 1049 q 611 855 651 915 q 513 781 571 794 q 503 797 506 781 q 560 901 560 835 q 513 1019 560 967 q 400 1071 467 1071 q 298 997 349 1071 q 215 807 247 924 q 182 572 182 690 q 183 521 182 538 q 203 520 192 506 q 238 560 214 535 q 326 621 263 585 q 451 657 389 657 q 650 570 582 657 q 718 368 718 483 q 677 157 718 253 q 551 -4 636 61 q 358 -69 467 -69 q 224 -5 283 -61 q 131 138 165 51 q 61 524 61 310 q 115 810 61 669 q 266 1043 168 950 q 479 1136 364 1136 m 281 278 q 228 243 278 263 q 251 175 228 224 q 296 94 274 126 q 355 38 318 61 q 435 14 392 14 q 573 72 528 14 q 618 221 618 129 q 545 474 618 351 q 382 596 472 596 q 324 577 350 596 q 285 531 299 558 q 253 424 253 467 q 274 294 253 347 l 281 278 z "},"7":{"ha":490,"x_min":-75,"x_max":518,"o":"m 476 908 q 440 894 476 894 q 368 899 403 894 q 354 890 357 899 q 327 775 347 881 q 306 631 307 669 q 370 625 338 631 q 408 615 403 619 q 414 603 413 611 l 433 503 q 429 500 431 500 q 301 522 375 522 l 301 503 q 307 378 301 419 q 319 285 313 338 q 340 197 326 232 q 375 117 354 161 q 507 -35 415 31 q 518 -42 518 -37 l 518 -44 q 467 -83 518 -53 q 407 -121 415 -114 q 394 -125 406 -125 q 375 -117 383 -125 q 217 351 217 31 q 221 514 217 381 q 125 472 154 497 q 104 457 108 457 q 96 475 96 458 q 105 517 96 492 q 148 575 114 542 q 236 624 182 608 q 292 858 261 763 l 303 889 q 304 894 303 890 q 296 903 304 903 q 28 919 99 911 q -44 929 -42 926 q -49 938 -46 932 l -75 1081 q -61 1093 -72 1093 q 158 1038 4 1057 q 436 1019 313 1019 q 450 1006 444 1019 q 476 914 471 929 l 476 908 z "},"8":{"ha":643,"x_min":25,"x_max":667,"o":"m 269 514 q 153 331 153 446 q 253 107 153 215 q 447 -1 353 -1 q 557 157 557 -1 q 528 275 557 217 q 460 374 500 333 q 376 447 419 415 q 269 514 296 508 m 224 550 q 25 838 25 682 q 120 1029 25 950 q 324 1108 215 1108 q 447 1063 399 1108 q 496 929 496 1017 q 432 764 496 842 q 336 686 368 686 q 326 703 329 686 q 372 767 351 717 q 392 858 392 817 q 342 987 392 931 q 242 1043 292 1043 q 163 1003 192 1043 q 135 892 135 963 q 164 774 135 822 q 240 688 193 725 q 344 613 288 650 q 457 538 400 576 q 561 456 514 499 q 667 227 667 360 q 569 15 667 94 q 339 -65 471 -65 q 121 19 207 -65 q 35 222 35 103 q 224 535 35 403 q 224 550 231 542 z "},"9":{"ha":693,"x_min":15,"x_max":672,"o":"m 254 -69 q 124 -26 167 -69 q 82 85 82 18 q 122 212 82 151 q 221 286 163 272 q 231 269 228 286 q 174 166 174 232 q 220 48 174 100 q 333 -4 267 -4 q 435 69 385 -4 q 519 260 486 143 q 551 494 551 376 q 550 546 551 529 q 531 547 542 561 q 495 507 519 532 q 408 446 471 482 q 282 410 344 410 q 83 497 151 410 q 15 699 15 583 q 56 910 15 814 q 182 1071 97 1006 q 375 1136 267 1136 q 509 1072 450 1128 q 603 929 568 1015 q 672 543 672 757 q 619 257 672 397 q 467 24 565 117 q 254 -69 369 -69 m 453 789 q 506 824 456 804 q 483 892 506 843 q 438 973 460 940 q 378 1029 415 1006 q 299 1053 342 1053 q 160 995 206 1053 q 115 846 115 938 q 188 593 115 715 q 351 471 261 471 q 409 490 383 471 q 449 536 435 508 q 481 643 481 600 q 460 772 481 719 l 453 789 z "}," ":{"ha":347,"x_min":0,"x_max":0,"o":""},"!":{"ha":285,"x_min":-12,"x_max":196,"o":"m 154 261 q 97 228 115 228 q 79 239 79 228 q 33 610 79 293 q -12 988 -12 928 q 0 1077 -12 1047 q 31 1125 13 1107 q 108 1181 65 1161 q 115 1175 115 1181 q 110 1164 115 1169 q 83 1090 83 1138 q 119 689 83 1043 q 154 261 154 335 m 174 106 q 185 94 174 106 q 196 49 196 82 q 174 -8 196 15 q 123 -32 153 -32 q 72 -8 93 -32 q 51 49 51 15 q 72 106 51 82 q 123 129 93 129 q 174 106 153 129 z "},"\"":{"ha":465,"x_min":6,"x_max":301,"o":"m 301 476 q 263 463 286 463 q 176 540 210 463 q 142 721 142 617 q 164 751 142 738 q 208 769 186 764 l 229 774 q 233 713 231 764 q 238 619 235 661 q 258 533 242 576 q 301 476 274 489 m 165 476 q 126 463 150 463 q 40 540 74 463 q 6 721 6 617 q 28 751 6 738 q 72 769 50 764 l 93 774 q 97 713 94 764 q 102 619 99 661 q 122 533 106 576 q 165 476 138 489 z "},"#":{"ha":851,"x_min":28,"x_max":815,"o":"m 486 535 q 371 521 410 526 q 378 429 376 460 l 496 442 q 486 535 490 501 m 272 804 l 360 849 q 361 836 363 849 q 360 762 360 824 q 367 606 360 700 l 481 619 q 471 819 471 744 l 558 864 q 563 857 563 863 q 556 763 556 815 q 564 628 556 711 l 793 649 q 781 591 790 619 q 764 561 771 563 l 569 543 q 576 450 575 483 q 815 472 771 468 q 803 415 813 444 q 786 385 793 386 q 583 367 661 375 q 606 154 601 171 q 524 114 604 140 l 501 358 l 385 344 q 406 139 399 183 q 325 99 406 126 l 303 333 q 130 308 207 321 q 50 296 53 296 l 78 388 q 297 419 149 400 l 288 511 q 150 492 214 501 q 28 472 33 472 l 56 564 q 282 596 129 578 q 272 804 272 718 z "},"$":{"ha":649,"x_min":28,"x_max":683,"o":"m 204 1054 q 151 910 151 1015 q 253 717 151 804 l 204 1054 m 438 21 q 532 62 490 21 q 574 170 574 103 q 552 288 574 238 q 489 381 531 339 q 331 511 419 451 l 399 24 q 438 21 413 21 m 408 -36 l 438 -246 q 428 -257 438 -257 q 401 -240 415 -257 q 383 -190 388 -222 l 361 -40 l 360 -40 q 180 2 265 -40 q 43 125 94 44 q 28 163 28 150 q 63 203 28 175 q 110 232 97 232 q 124 228 122 232 q 207 120 140 175 q 350 38 274 65 l 278 547 q 240 575 258 560 q 42 863 42 707 q 86 998 42 936 q 199 1096 131 1060 l 171 1289 q 189 1299 171 1299 q 225 1258 219 1299 l 244 1115 q 340 1133 296 1133 q 468 1091 426 1133 q 510 983 510 1049 q 469 854 510 917 q 368 778 428 792 q 358 794 361 778 q 415 910 415 832 q 379 1028 415 988 q 251 1068 343 1068 l 307 674 q 388 619 335 653 q 476 562 442 585 q 553 502 510 539 q 622 431 596 465 q 683 242 683 350 q 603 56 683 133 q 408 -36 524 -21 z "},"%":{"ha":1160,"x_min":-8,"x_max":1138,"o":"m 863 553 q 744 487 785 553 q 704 308 704 421 q 767 92 704 194 q 931 -11 829 -11 q 1039 64 999 -11 q 1079 253 1079 139 q 1023 460 1079 368 q 863 553 967 553 m 897 625 q 1028 572 972 625 q 1138 274 1138 469 q 1076 40 1138 138 q 899 -58 1015 -58 q 713 45 782 -58 q 643 288 643 149 q 710 526 643 426 q 897 625 776 625 m 211 999 q 93 933 133 999 q 53 753 53 867 q 115 538 53 640 q 279 435 178 435 q 388 510 347 435 q 428 699 428 585 q 372 906 428 814 q 211 999 315 999 m 246 1071 q 378 1018 321 1071 q 486 719 486 915 q 425 485 486 583 q 247 388 364 388 q 61 491 131 388 q -8 733 -8 594 q 58 972 -8 872 q 246 1071 125 1071 m 265 -153 l 267 -150 q 287 -110 271 -146 q 304 -74 303 -75 q 578 622 378 125 q 808 1151 779 1118 q 911 1210 838 1185 q 903 1172 917 1204 q 688 701 778 915 q 386 -57 597 486 q 368 -94 378 -79 q 265 -153 346 -122 z "},"&":{"ha":824,"x_min":-22,"x_max":690,"o":"m 188 972 q 236 707 188 857 q 351 969 351 842 q 326 1063 351 1029 q 267 1097 300 1097 q 210 1065 233 1097 q 188 972 188 1032 m 439 63 q 203 600 293 331 q 93 330 93 467 q 167 122 93 193 q 353 51 242 51 q 439 63 397 51 m 186 651 q 138 915 138 808 q 192 1088 138 1021 q 315 1156 247 1156 q 397 1117 364 1156 q 431 1010 431 1079 q 254 658 431 874 q 538 107 342 415 q 628 255 628 168 q 529 407 628 342 q 521 425 521 414 q 541 453 521 436 q 572 471 561 471 q 583 469 582 471 q 690 267 690 386 q 576 49 690 147 q 658 -67 639 -46 q 676 -96 676 -89 q 647 -128 676 -103 q 599 -153 617 -153 q 482 -11 567 -153 q 271 -57 390 -57 q 65 15 151 -57 q -22 226 -22 86 q 186 651 -22 421 z "},"'":{"ha":329,"x_min":6,"x_max":165,"o":"m 165 476 q 126 463 150 463 q 40 540 74 463 q 6 721 6 617 q 28 751 6 738 q 72 769 50 764 l 93 774 q 97 713 94 764 q 102 619 99 661 q 122 533 106 576 q 165 476 138 489 z "},"(":{"ha":507,"x_min":33,"x_max":774,"o":"m 493 1126 q 454 1129 479 1129 q 290 1078 364 1129 q 172 942 217 1026 q 81 549 81 767 q 228 14 81 251 q 413 -172 299 -101 q 667 -242 528 -242 q 767 -233 714 -242 l 768 -233 q 774 -247 774 -233 q 648 -317 774 -317 q 422 -271 522 -317 q 250 -147 321 -225 q 131 35 179 -69 q 33 493 33 239 q 151 985 33 757 q 302 1164 208 1094 q 510 1233 396 1233 q 536 1231 528 1233 l 536 1226 q 503 1144 536 1204 l 493 1126 z "},")":{"ha":507,"x_min":-340,"x_max":400,"o":"m -60 -182 q -21 -185 -46 -185 q 143 -133 69 -185 q 261 3 217 -82 q 353 396 353 178 q 206 931 353 693 q 20 1116 135 1046 q -233 1186 -94 1186 q -333 1178 -281 1186 l -335 1178 q -340 1192 -340 1178 q -215 1261 -340 1261 q 12 1215 -89 1261 q 183 1092 113 1169 q 303 910 254 1014 q 400 451 400 706 q 282 -40 400 188 q 131 -219 225 -150 q -76 -289 38 -289 q -103 -286 -94 -289 l -103 -282 q -69 -200 -103 -260 l -60 -182 z "},"*":{"ha":694,"x_min":-135,"x_max":338,"o":"m -126 895 q -130 907 -126 895 q -135 933 -135 918 q -121 949 -135 949 q -96 940 -112 949 q 71 868 -22 904 q 8 1014 8 997 q 33 1064 8 1031 q 67 1097 57 1097 q 79 1085 78 1097 q 85 1014 81 1072 q 104 882 90 956 q 208 1014 192 1014 q 263 1007 232 1014 q 293 986 293 1000 q 276 967 293 978 q 242 944 260 956 q 125 853 206 921 q 312 829 304 839 q 328 794 319 819 q 338 754 338 769 q 329 739 338 739 q 306 747 321 739 q 125 818 243 779 q 210 669 210 701 q 195 628 210 654 q 169 601 181 601 q 150 620 157 601 q 128 699 143 639 q 93 814 113 758 q -18 683 3 683 q -72 690 -47 683 q -96 708 -96 697 q -81 729 -96 719 q -50 747 -65 739 q 68 833 -8 771 q -108 861 -96 849 q -126 895 -117 872 z "},"+":{"ha":553,"x_min":65,"x_max":526,"o":"m 246 714 l 333 758 q 335 746 336 758 q 333 665 333 733 q 339 526 333 596 q 511 553 471 538 l 526 558 l 515 476 q 342 456 467 464 q 361 268 351 319 q 281 228 361 256 l 258 451 q 65 449 150 449 l 74 518 q 254 522 178 518 q 246 714 246 617 z "},",":{"ha":307,"x_min":88,"x_max":240,"o":"m 185 133 q 200 133 185 133 q 228 114 215 133 q 240 38 240 94 q 209 -74 240 -18 q 147 -157 178 -131 l 117 -183 q 94 -174 94 -183 q 107 -153 94 -165 q 158 -47 158 -78 q 123 8 158 -15 q 88 53 88 31 q 122 105 88 76 q 185 133 156 133 z "},"-":{"ha":592,"x_min":113,"x_max":532,"o":"m 113 125 l 121 188 q 368 197 265 188 q 501 214 471 206 l 532 224 l 522 150 q 113 125 429 125 z "},".":{"ha":385,"x_min":83,"x_max":228,"o":"m 206 106 q 217 94 206 106 q 228 49 228 82 q 206 -8 228 15 q 155 -32 185 -32 q 104 -8 125 -32 q 83 49 83 15 q 104 106 83 82 q 155 129 125 129 q 206 106 185 129 z "},"/":{"ha":400,"x_min":-107,"x_max":544,"o":"m -107 -172 l -106 -169 q -85 -130 -101 -165 q -68 -93 -69 -94 q 206 602 6 106 q 436 1132 407 1099 q 539 1190 465 1165 q 531 1153 544 1185 q 315 681 406 896 q 14 -76 225 467 q -10 -121 6 -100 q -107 -172 -26 -142 z "},":":{"ha":385,"x_min":56,"x_max":228,"o":"m 178 360 q 189 348 178 360 q 200 303 200 336 q 178 246 200 269 q 127 222 157 222 q 76 246 97 222 q 56 303 56 269 q 76 360 56 336 q 127 383 97 383 q 178 360 157 383 m 206 106 q 217 94 206 106 q 228 49 228 82 q 206 -8 228 15 q 155 -32 185 -32 q 104 -8 125 -32 q 83 49 83 15 q 104 106 83 82 q 155 129 125 129 q 206 106 185 129 z "},";":{"ha":307,"x_min":56,"x_max":240,"o":"m 178 360 q 189 348 178 360 q 200 303 200 336 q 178 246 200 269 q 127 222 157 222 q 76 246 97 222 q 56 303 56 269 q 76 360 56 336 q 127 383 97 383 q 178 360 157 383 m 228 -33 q 240 50 240 4 q 192 133 240 133 q 122 105 156 133 q 88 53 88 76 q 123 8 88 31 q 158 -47 158 -15 q 107 -153 158 -78 q 94 -174 94 -165 q 117 -183 94 -183 q 228 -33 194 -125 z "},"<":{"ha":553,"x_min":42,"x_max":532,"o":"m 481 624 q 332 535 379 558 q 197 481 285 511 q 342 420 293 446 q 404 389 392 394 q 532 318 457 361 l 458 281 l 433 297 q 178 425 293 388 q 89 442 126 442 l 42 493 q 236 565 138 508 q 404 683 335 622 l 406 683 q 411 678 407 683 q 481 624 422 663 z "},"=":{"ha":553,"x_min":60,"x_max":532,"o":"m 71 358 l 79 428 q 352 438 239 428 q 499 458 465 447 l 532 468 l 521 386 q 71 358 419 358 m 60 486 l 68 556 q 341 565 228 556 q 488 586 454 575 l 521 596 l 510 514 q 60 486 408 486 z "},">":{"ha":553,"x_min":46,"x_max":507,"o":"m 93 338 q 242 426 194 403 q 376 481 289 450 q 46 628 208 539 l 96 697 l 124 679 q 485 519 369 519 l 507 450 q 169 278 331 421 l 168 278 q 163 283 167 278 q 93 338 151 299 z "},"?":{"ha":385,"x_min":-185,"x_max":272,"o":"m 206 106 q 217 94 206 106 q 228 49 228 82 q 206 -8 228 15 q 155 -32 185 -32 q 104 -8 125 -32 q 83 49 83 15 q 104 106 83 82 q 155 129 125 129 q 206 106 185 129 m 208 289 q 150 244 174 244 q 79 356 79 244 q 113 597 79 418 q 146 853 146 775 q 28 1017 146 1017 q -74 985 -42 1017 q -107 901 -107 953 q -72 800 -107 849 q 7 750 -37 751 q 25 738 25 750 q -3 697 24 719 q -62 674 -31 674 q -153 710 -122 674 q -185 807 -185 747 q -105 1003 -185 910 q 100 1096 -25 1096 q 272 942 272 1096 q 206 660 272 858 q 140 392 140 461 q 194 303 140 322 q 210 295 210 300 q 208 289 210 290 z "},"@":{"ha":958,"x_min":19,"x_max":911,"o":"m 519 -249 q 821 -83 693 -249 l 831 -100 q 670 -251 768 -201 q 460 -300 572 -300 q 130 -185 240 -300 q 19 104 19 -69 q 67 338 19 231 q 193 513 115 444 q 364 618 271 581 q 551 656 457 656 q 808 559 706 656 q 911 278 911 463 q 844 58 911 151 q 672 -36 776 -36 q 515 65 568 -36 q 443 3 493 32 q 349 -26 393 -26 q 228 75 228 -26 q 295 241 228 154 q 428 328 363 328 q 433 324 433 328 q 428 314 433 319 q 378 251 399 299 q 358 153 358 203 q 436 51 358 51 q 478 63 458 51 q 503 97 499 75 q 485 199 485 146 q 489 288 485 251 q 510 364 500 364 q 585 372 514 372 q 657 351 657 372 q 649 335 657 347 q 600 196 600 268 q 634 77 600 124 q 726 31 668 31 q 821 87 783 31 q 858 225 858 143 q 746 495 858 396 q 479 594 633 594 q 213 488 325 594 q 100 183 100 381 q 283 -183 100 -62 q 519 -249 382 -249 z "},"A":{"ha":1156,"x_min":4,"x_max":1133,"o":"m 656 739 l 654 729 q 682 686 656 686 q 807 753 753 686 q 861 890 861 821 q 821 997 861 958 q 696 1036 781 1036 q 467 974 572 1036 q 294 815 361 913 q 191 603 228 718 q 154 376 154 489 q 224 118 154 219 q 429 17 294 17 q 537 38 483 17 q 628 89 590 58 q 742 199 706 149 l 756 219 q 740 360 740 285 q 758 500 740 435 q 796 585 776 565 q 878 626 835 626 q 915 571 915 626 q 903 472 915 515 q 860 371 890 429 l 860 369 q 899 214 872 288 q 949 108 925 140 q 1068 29 1003 29 q 1101 34 1088 29 q 1124 39 1114 39 q 1133 32 1133 39 q 1086 -16 1133 14 q 984 -46 1039 -46 q 871 3 929 -46 q 778 142 813 51 l 761 193 q 689 111 736 158 q 596 31 642 64 q 479 -28 550 -1 q 336 -56 408 -56 q 87 33 169 -56 q 4 268 4 122 q 43 485 4 371 q 155 708 82 600 q 324 903 228 815 q 545 1044 419 992 q 801 1097 671 1097 q 975 976 975 1097 q 853 748 975 868 q 603 628 731 628 q 540 671 540 628 q 579 722 540 697 q 647 747 618 747 q 656 739 656 747 z "},"B":{"ha":1467,"x_min":-111,"x_max":1400,"o":"m 1315 78 q 1237 225 1315 147 q 1047 361 1158 303 q 822 462 936 419 q 629 514 707 504 q 683 404 665 442 q 718 308 700 367 q 736 203 736 249 q 652 -29 736 61 q 454 -119 568 -119 q 172 -2 304 -119 q -36 292 39 115 q -111 647 -111 468 q 17 1015 -111 868 q 191 1133 81 1090 q 449 1175 301 1175 q 750 1114 596 1175 q 1006 933 932 1043 q 1049 796 1049 871 q 1005 666 1049 721 q 892 588 961 611 q 877 586 889 586 q 865 591 865 586 q 883 604 865 596 q 989 721 989 646 q 890 894 989 811 q 642 1024 790 976 q 344 1071 493 1071 q 39 978 136 1071 q -58 727 -58 885 q 34 385 -58 569 q 269 76 126 201 q 543 -50 411 -50 q 661 63 661 -50 q 601 242 661 118 q 481 498 542 367 q 421 697 421 629 q 461 818 421 765 q 542 894 501 871 l 581 917 q 589 909 589 917 q 583 896 589 901 q 539 794 539 875 q 615 542 546 694 q 676 597 658 588 q 739 607 694 607 q 861 585 783 607 q 1031 524 939 564 q 1206 435 1124 485 q 1344 322 1289 386 q 1400 196 1400 258 q 1313 1 1400 96 q 1094 -94 1226 -94 q 932 -49 1000 -94 q 796 78 864 -4 q 882 157 854 146 q 908 142 892 157 l 928 121 q 999 62 971 83 q 1090 13 1026 40 q 1206 -15 1154 -15 q 1286 9 1257 -15 q 1315 78 1315 33 z "},"C":{"ha":850,"x_min":-14,"x_max":892,"o":"m 363 742 l 358 714 q 394 686 358 686 q 524 767 464 686 q 585 933 585 847 q 492 1067 585 1067 q 303 977 388 1067 q 176 753 219 888 q 133 476 133 618 q 171 224 133 335 q 297 40 208 114 q 500 -33 385 -33 q 882 153 725 -33 l 892 136 q 706 -28 826 32 q 454 -87 586 -87 q 102 41 218 -87 q -14 368 -14 169 q 33 632 -14 497 q 157 876 79 767 q 347 1055 235 985 q 578 1125 458 1125 q 668 1095 635 1125 q 701 998 701 1065 q 638 839 701 931 q 481 683 575 747 q 306 618 386 618 q 257 639 265 618 q 250 677 250 657 q 288 726 250 697 q 344 756 325 756 q 363 742 363 756 z "},"D":{"ha":1186,"x_min":-146,"x_max":1144,"o":"m 54 146 l 53 146 q 199 -75 107 31 q 318 -172 250 -135 q 458 -208 386 -208 q 536 -114 536 -201 q 526 -31 536 -79 q 54 146 257 -7 m 333 547 q 324 660 324 618 q 328 726 324 701 q 468 890 350 821 q 479 893 476 893 q 482 889 482 893 q 474 872 482 885 q 449 783 449 844 q 501 463 449 647 q 875 346 714 368 q 882 338 882 344 q 869 321 882 331 q 821 302 856 311 q 723 293 786 293 q 543 329 660 293 q 626 39 615 106 q 722 32 679 32 q 984 94 900 32 q 1068 266 1068 156 q 978 524 1068 376 q 753 797 888 671 q 446 1009 618 922 q 126 1096 274 1096 q 19 1078 67 1096 q -68 968 -68 1046 q 44 756 -68 867 q 333 547 156 646 m -146 881 q -35 1074 -146 988 q 219 1160 75 1160 q 506 1108 364 1160 q 760 972 647 1057 q 961 781 874 886 q 1097 561 1049 676 q 1144 342 1144 446 q 1019 74 1144 176 q 631 -35 893 -29 q 567 -171 624 -107 q 446 -235 510 -235 q 251 -151 363 -235 q 47 49 139 -68 q -87 272 -46 167 q -92 286 -92 281 l -85 296 q -21 365 -40 365 q 28 328 -8 365 q 202 203 65 292 q 497 67 339 115 q 439 213 485 101 q 371 392 393 325 q 6 617 157 485 q -146 881 -146 749 z "},"E":{"ha":625,"x_min":-99,"x_max":846,"o":"m 404 17 q 542 51 475 17 q 657 153 610 85 l 667 136 q 513 -4 617 46 q 299 -54 410 -54 q 106 3 188 -54 q 25 165 25 60 q 122 374 25 286 q 215 446 169 415 q 322 514 261 476 q 422 592 422 576 q 410 597 422 597 q 281 582 397 597 q 119 567 164 567 q -99 700 -99 567 q -13 884 -99 792 q 194 1044 72 976 q 444 1167 315 1113 q 665 1249 574 1221 q 781 1276 757 1276 q 825 1259 804 1276 q 846 1219 846 1242 q 794 1150 846 1181 q 689 1108 742 1119 l 638 1097 q 624 1107 624 1097 q 639 1132 624 1117 q 654 1150 654 1147 q 640 1153 654 1153 q 520 1118 626 1153 q 290 1033 414 1083 q 68 913 165 982 q -29 788 -29 844 q 136 707 -29 707 q 316 715 206 707 q 468 722 426 722 q 542 667 542 722 q 509 615 542 644 q 409 542 476 586 q 295 465 342 499 q 209 371 249 431 q 169 242 169 311 q 404 17 169 17 z "},"F":{"ha":889,"x_min":-318,"x_max":981,"o":"m 407 -143 q 454 -229 407 -229 q 532 -172 493 -229 q 571 -36 571 -114 q 553 125 571 42 q 407 -143 407 -11 m 11 260 q 438 476 171 361 q 368 786 368 660 q 408 922 368 871 q 575 1069 449 972 q 388 1013 557 1069 q 9 876 218 957 q -285 740 -200 794 q -311 729 -304 729 q -318 747 -318 729 q -283 847 -318 783 l -272 867 q 149 1047 -229 919 q 858 1218 528 1175 q 879 1211 879 1218 q 871 1196 879 1204 l 807 1128 q 738 1103 797 1115 q 638 1073 678 1092 q 566 1028 599 1054 q 512 954 533 1003 q 490 834 490 906 q 569 531 490 763 q 953 671 744 600 q 972 674 969 674 q 981 667 981 674 q 956 617 981 661 q 921 569 932 574 q 597 446 750 510 q 654 235 636 324 q 814 310 754 297 q 835 305 835 310 q 819 296 835 300 q 658 210 765 281 q 669 94 669 146 q 619 -98 669 -3 q 501 -248 568 -193 q 379 -303 433 -303 q 307 -200 307 -303 q 546 158 307 -33 q 469 389 522 256 q -4 126 183 258 q -31 118 -19 118 q -43 133 -43 118 q -40 149 -43 138 q 11 260 -21 238 z "},"G":{"ha":1049,"x_min":0,"x_max":1168,"o":"m 667 832 l 654 806 q 665 792 654 797 q 688 786 676 786 q 803 853 751 786 q 856 986 856 919 q 832 1051 856 1026 q 760 1075 808 1075 q 553 997 665 1075 q 353 803 442 918 q 206 551 265 688 q 146 299 146 414 q 212 121 146 185 q 388 57 278 57 q 612 139 497 57 q 788 368 726 221 q 786 404 786 385 q 910 764 786 728 q 964 778 954 778 q 982 756 982 778 q 951 640 982 733 q 919 453 919 546 q 994 -89 919 183 q 1150 -443 1068 -361 q 1160 -451 1153 -446 q 1168 -462 1168 -456 q 1136 -497 1168 -483 q 1088 -510 1104 -510 q 1001 -467 1042 -510 q 930 -349 960 -424 q 876 -191 900 -275 q 836 -8 853 -107 q 793 308 807 161 q 566 64 713 154 q 287 -26 419 -26 q 77 43 154 -26 q 0 244 0 113 q 73 528 0 375 q 262 813 146 681 q 542 1033 378 944 q 872 1122 707 1122 q 972 1051 972 1122 q 906 907 972 992 q 744 758 840 822 q 571 694 647 694 q 541 710 551 694 q 531 742 531 726 q 580 803 531 769 q 661 836 629 836 q 667 832 667 836 z "},"H":{"ha":1015,"x_min":-208,"x_max":1056,"o":"m 126 274 l 101 382 q -110 458 -1 417 q -111 457 -111 458 q 126 274 -110 428 m 244 336 q 279 178 272 214 q 703 -25 610 -24 l 628 243 q 244 336 442 279 m 139 1046 l 133 957 q 221 444 133 828 q 600 349 401 389 q 517 720 543 564 q 490 1054 490 876 q 545 1103 493 1069 q 619 1138 597 1138 q 631 1122 631 1138 l 624 1025 q 740 325 624 800 q 1046 296 904 300 q 1056 287 1056 296 q 994 244 1056 278 q 922 211 933 211 q 767 222 857 211 l 821 28 q 722 -53 821 4 q 286 140 611 -53 q 303 4 300 63 q 247 -24 300 1 q 188 -49 194 -49 q 169 -22 169 -49 q 133 235 157 110 q -108 402 -8 326 q -208 494 -208 478 q -117 571 -208 517 l -112 574 q 74 496 -18 529 q -6 906 -6 797 q 6 982 -6 954 q 67 1021 8 986 q 133 1056 125 1056 q 139 1046 139 1056 z "},"I":{"ha":626,"x_min":-133,"x_max":629,"o":"m 50 1019 q -46 818 -46 1019 q 28 531 -46 667 q 231 333 101 396 q 186 815 213 689 q 50 1019 143 1018 m 619 332 q 629 319 629 332 q 593 276 629 307 q 495 214 557 244 q 368 179 433 183 q 406 46 382 83 q 429 3 429 8 q 420 -9 429 -3 q 385 -28 411 -15 q 314 -58 321 -58 q 275 -14 297 -58 q 239 194 253 31 q -24 376 86 239 q -133 692 -133 514 q -71 958 -133 839 q 19 1057 -39 1019 q 151 1094 76 1094 q 272 990 233 1094 q 324 770 314 882 q 339 594 335 658 q 347 438 343 531 q 356 296 351 346 q 442 292 385 292 q 536 299 500 292 q 594 319 572 306 q 619 332 615 332 z "},"J":{"ha":568,"x_min":-143,"x_max":654,"o":"m 151 942 q 141 958 151 942 q 105 991 131 975 q 60 1007 79 1007 q 30 1001 40 1007 q 6 978 19 996 q -18 935 -7 961 q -43 760 -43 875 q -1 526 -43 646 q 117 319 40 406 q 276 233 193 233 q 303 239 292 233 q 253 617 272 522 q 220 772 235 713 q 188 870 206 832 q 151 942 171 908 m 307 203 q 173 149 261 149 q 8 226 85 149 q -106 417 -68 303 q -143 658 -143 532 q -65 954 -143 833 q 161 1075 13 1075 q 285 999 235 1075 q 362 792 335 922 q 407 503 389 663 q 442 168 425 344 q 482 -167 460 -8 q 548 -467 504 -326 q 654 -683 592 -607 q 618 -722 654 -700 q 558 -743 582 -743 q 462 -623 503 -706 q 390 -381 421 -540 q 347 -130 360 -221 q 322 78 335 -39 q 307 203 308 196 z "},"K":{"ha":1115,"x_min":-133,"x_max":1092,"o":"m 1043 32 l 1085 39 q 1092 32 1092 39 q 1036 -31 1092 7 q 947 -68 981 -68 q 615 122 833 -68 q 436 279 525 200 q 131 469 225 469 l 122 468 q 235 49 235 142 q 189 -48 235 -7 q 114 -89 143 -89 q 107 -61 107 -89 q 68 190 106 43 q -14 459 31 336 q -96 725 -58 582 q -133 965 -133 868 q -74 1051 -133 1010 q 8 1092 -14 1092 q 15 1085 15 1092 q 5 1045 15 1079 q -6 999 -6 1011 q 107 511 -6 851 q 190 599 153 593 q 355 684 256 599 q 524 861 454 769 q 594 981 593 953 q 563 965 592 978 q 524 953 535 953 q 514 961 514 953 q 529 976 514 969 q 690 1111 644 1038 q 703 1113 692 1113 q 736 1106 714 1113 q 788 1085 788 1089 q 715 953 788 1040 q 547 781 643 865 q 347 634 450 697 q 190 571 244 571 q 349 512 257 568 q 531 376 440 456 q 713 219 622 297 q 1043 32 931 32 z "},"L":{"ha":1042,"x_min":-206,"x_max":1140,"o":"m 392 1104 q 313 1052 343 1104 q 283 923 283 1000 q 304 767 283 846 q 413 912 372 836 q 454 1039 454 988 q 392 1104 454 1104 m 415 -31 q 411 11 415 -10 q 169 53 281 26 q 31 93 57 79 q 139 -68 64 4 q 218 -122 169 -99 q 321 -146 267 -146 q 415 -31 415 -146 m -174 506 q -206 524 -206 506 q -181 567 -206 543 q -137 592 -156 592 q -72 586 -90 586 q 181 665 53 586 q 164 781 164 728 q 267 1053 164 946 q 474 1161 369 1161 q 557 1094 557 1161 q 488 933 557 1032 q 311 739 419 835 q 388 529 335 657 q 478 292 440 401 q 522 97 517 182 q 760 78 646 78 q 1129 172 1000 78 q 1140 163 1140 172 q 628 -1 994 -1 q 515 3 572 -1 q 447 -123 499 -72 q 324 -174 396 -174 q 176 -131 251 -174 q 49 -33 101 -89 q -39 76 -4 24 q -74 150 -74 128 q -33 198 -74 163 q 36 233 8 233 q 383 124 193 165 q 286 373 361 192 q 186 642 211 554 q -174 506 -14 506 z "},"M":{"ha":1382,"x_min":-196,"x_max":1440,"o":"m -196 994 q -137 1024 -196 1011 q -45 1038 -78 1038 q 13 985 -12 1038 q 67 850 39 928 q 94 772 96 772 q 203 924 140 868 q 338 979 265 979 q 427 932 388 979 q 492 814 467 885 q 567 417 539 678 l 586 183 q 628 349 589 183 q 694 617 668 514 q 772 889 760 872 q 828 918 778 901 q 900 935 878 935 q 906 919 906 935 l 904 900 q 903 837 903 881 q 906 741 903 793 q 919 604 908 689 q 947 443 929 519 q 997 285 964 367 q 1073 145 1029 204 q 1183 48 1117 86 q 1332 10 1250 10 q 1389 17 1372 10 q 1416 29 1406 24 q 1429 36 1426 35 q 1440 22 1440 36 q 1357 -33 1440 -1 q 1217 -64 1274 -64 q 976 65 1078 -64 q 826 387 874 193 q 779 808 779 581 l 772 808 l 593 90 q 576 -6 586 3 q 498 -47 515 -47 q 479 -14 481 -47 q 451 314 475 132 q 401 608 426 496 q 335 801 376 721 q 248 881 293 881 q 166 842 203 881 q 108 733 129 803 q 161 395 131 625 q 192 22 192 165 q 167 -41 192 -18 q 118 -64 142 -64 q 71 -12 94 -64 q 31 140 47 40 q 15 317 15 240 q 21 488 15 393 q -64 836 -7 685 q -115 934 -83 892 q -178 979 -146 976 q -196 994 -196 982 z "},"N":{"ha":1010,"x_min":-147,"x_max":1010,"o":"m 963 10 l 993 11 q 1010 -3 1010 11 q 952 -40 1010 -18 q 850 -62 894 -62 q 675 6 751 -62 q 556 176 599 75 q 486 411 514 278 q 443 869 443 628 q 201 -36 335 499 q 117 -62 132 -62 q 101 -43 101 -62 q -36 847 74 590 q -135 965 -81 949 q -147 975 -147 969 q -86 1003 -147 983 q -7 1024 -25 1024 q 135 778 93 979 q 204 119 176 578 q 208 114 204 114 l 211 115 l 417 906 q 484 936 438 906 q 547 967 531 967 q 564 954 564 967 q 647 325 564 601 q 772 96 692 182 q 963 10 853 10 z "},"O":{"ha":985,"x_min":-11,"x_max":1024,"o":"m 410 1039 q 191 815 272 971 q 110 488 110 660 q 208 164 110 301 q 340 57 257 97 q 535 17 424 17 q 738 93 647 17 q 871 284 828 169 q 914 526 914 399 q 823 836 914 708 q 561 964 732 964 q 297 721 364 964 q 283 708 294 708 q 275 724 275 708 q 326 859 275 783 q 471 992 378 935 q 665 1050 564 1050 q 933 938 843 1050 q 1024 654 1024 826 q 980 408 1024 533 q 860 178 936 283 q 666 7 783 74 q 415 -60 549 -60 q 101 72 214 -60 q -11 399 -11 204 q 98 778 -11 594 q 411 1069 207 963 l 414 1069 q 419 1057 419 1069 q 410 1039 419 1044 z "},"P":{"ha":915,"x_min":-151,"x_max":1124,"o":"m 595 407 q 574 445 595 407 q 518 576 553 483 q 483 723 483 668 q 499 815 483 778 q 536 875 514 853 q 619 939 581 921 l 635 946 q 643 938 643 946 q 636 925 643 931 q 603 831 603 892 q 676 596 603 771 q 768 643 729 643 q 853 623 807 643 q 924 603 899 603 q 997 642 971 603 q 1024 726 1024 682 q 949 885 1024 807 q 767 1017 875 964 q 541 1104 658 1071 q 333 1138 424 1138 q 74 1026 171 1138 q -22 779 -22 914 q 43 500 -22 644 q 202 242 108 356 q 403 51 296 128 q 592 -26 511 -26 q 677 20 647 -26 q 707 116 707 67 q 672 248 707 165 q 595 407 638 331 m 853 519 q 838 519 853 519 q 772 546 824 519 q 708 572 719 572 q 690 565 697 572 q 771 364 761 400 q 789 300 781 328 q 803 208 803 251 q 749 46 803 115 q 624 -55 696 -24 q 481 -86 553 -86 q 248 -4 367 -86 q 44 195 129 78 q -97 442 -42 313 q -151 676 -151 571 q -88 887 -151 782 q 72 1063 -25 992 q 285 1174 169 1133 q 497 1215 400 1215 q 699 1185 593 1215 q 899 1103 804 1154 q 1059 974 994 1053 q 1124 810 1124 896 q 1068 682 1124 753 q 947 565 1013 611 q 853 519 882 519 z "},"Q":{"ha":1194,"x_min":1,"x_max":1383,"o":"m 1351 -510 q 1294 -294 1351 -406 q 1150 -109 1238 -183 q 978 -33 1063 -35 q 1003 -119 983 -46 q 1049 -272 1024 -193 q 1108 -434 1074 -351 q 1190 -570 1143 -517 q 1288 -624 1238 -624 q 1331 -590 1311 -624 q 1351 -510 1351 -557 m 682 815 l 672 783 q 682 760 672 768 q 701 753 692 753 q 815 824 758 753 q 872 964 872 896 q 744 1061 872 1061 q 519 984 632 1061 q 325 792 406 907 q 194 542 244 676 q 143 290 143 407 q 203 100 143 172 q 386 28 263 28 q 524 61 456 28 q 642 142 593 94 q 790 317 746 242 l 810 350 q 821 614 810 486 l 825 663 q 868 716 825 679 q 936 753 911 753 q 969 746 961 753 q 976 724 976 739 q 964 642 976 708 q 942 568 951 576 q 933 319 933 393 q 943 169 933 244 q 1075 289 971 176 q 1097 278 1097 289 q 1069 244 1097 275 q 1004 179 1042 214 q 947 133 967 144 l 963 50 q 1138 -14 1060 38 q 1260 -131 1215 -65 q 1333 -272 1304 -196 q 1383 -494 1383 -403 q 1342 -642 1383 -585 q 1227 -699 1300 -699 q 1087 -633 1154 -699 q 972 -456 1019 -567 q 844 -36 889 -256 l 763 -60 q 728 3 744 -60 q 721 26 724 18 q 738 42 721 38 q 815 76 772 50 l 829 85 q 817 278 818 193 l 815 306 q 676 132 751 206 q 543 23 601 58 q 422 -33 485 -12 q 279 -60 338 -60 q 70 16 139 -60 q 1 208 1 92 q 45 447 1 324 q 170 688 89 569 q 357 903 251 806 q 599 1061 463 1001 q 874 1121 735 1121 q 983 1042 983 1121 q 918 890 983 979 q 758 736 853 801 q 592 671 664 671 q 552 681 568 671 q 536 712 536 692 q 549 752 536 732 q 581 785 563 772 q 619 808 600 799 q 669 826 657 826 q 682 815 682 826 z "},"R":{"ha":1700,"x_min":-139,"x_max":1676,"o":"m 650 933 q 592 819 592 890 q 678 532 592 704 q 817 613 721 613 q 896 604 847 613 q 1022 641 963 606 q 1082 739 1082 676 q 976 906 1082 824 q 713 1038 871 989 q 406 1088 556 1088 q 74 994 189 1088 q -1 896 29 960 q -31 760 -31 832 q 3 589 -31 688 q 100 380 38 490 q 239 171 163 269 q 411 8 315 72 q 597 -57 507 -57 q 672 -32 642 -57 q 701 42 701 -7 q 665 224 701 124 q 583 403 628 325 q 502 575 539 482 q 465 734 465 668 q 517 856 465 800 q 640 951 569 911 q 644 953 642 953 q 656 942 656 953 q 650 933 656 938 m 796 172 q 724 -41 796 32 q 546 -114 651 -114 q 369 -74 464 -114 q 185 40 274 -33 q 23 202 96 113 q -94 401 -50 292 q -139 611 -139 510 q -86 819 -139 713 q 51 1014 -33 926 q 255 1158 136 1101 q 494 1214 374 1214 q 797 1157 615 1214 q 980 1085 896 1126 q 1122 978 1064 1043 q 1179 839 1179 913 q 1110 685 1179 765 q 949 579 1042 604 l 947 578 q 1189 368 997 554 q 1347 221 1265 294 q 1513 92 1428 147 q 1663 25 1599 36 q 1676 13 1676 22 q 1664 -4 1676 3 q 1522 -51 1582 -51 q 1378 6 1463 -51 q 1212 146 1293 64 q 1050 310 1131 228 q 742 507 854 507 q 694 499 714 507 q 745 392 729 428 q 778 292 761 356 q 796 172 796 229 z "},"S":{"ha":817,"x_min":-110,"x_max":763,"o":"m 99 889 q 257 640 99 756 q 331 940 331 829 q 299 1031 331 989 q 227 1072 267 1072 q 156 1031 188 1072 q 112 948 125 989 q 99 889 99 907 m -82 -17 q -99 -26 -92 -26 q -110 -15 -110 -26 q -104 3 -110 -4 q 43 213 -42 72 q 199 504 128 353 q 21 757 21 628 q 62 932 21 843 q 172 1079 103 1021 q 303 1138 240 1138 q 390 1108 367 1138 q 413 1021 413 1078 q 283 621 413 914 q 406 547 329 590 q 538 471 483 503 q 649 397 593 439 q 763 208 763 310 q 657 17 763 106 q 443 -71 551 -71 q 139 107 272 -71 q 124 142 124 128 q 158 185 124 157 q 213 214 193 214 q 219 210 217 214 q 354 71 257 144 q 544 -3 451 -3 q 660 111 660 6 q 558 278 660 200 q 374 398 483 335 q 222 489 264 461 q -82 -17 54 136 z "},"T":{"ha":501,"x_min":-612,"x_max":585,"o":"m 113 -171 q 160 -257 113 -257 q 238 -199 199 -257 q 276 -64 276 -142 q 258 97 276 14 q 113 -171 113 -39 m -567 839 q -145 1019 -524 892 q 564 1190 233 1147 q 585 1183 585 1190 q 576 1168 585 1176 l 513 1100 q 443 1076 503 1088 q 344 1045 383 1064 q 272 1001 304 1026 q 217 926 239 975 q 196 809 196 878 q 268 523 196 740 q 360 207 340 306 q 519 282 460 269 q 540 277 540 282 q 525 268 540 272 q 364 182 471 253 q 375 67 375 118 q 324 -126 375 -31 q 206 -276 274 -221 q 85 -331 139 -331 q 13 -228 13 -331 q 251 131 13 -61 q 183 336 231 214 q 105 562 136 458 q 74 754 74 665 q 114 894 74 843 q 281 1042 154 944 q 93 985 263 1042 q -285 848 -76 929 q -579 713 -494 767 q -606 701 -599 701 q -612 719 -612 701 q -578 819 -612 756 l -567 839 z "},"U":{"ha":1083,"x_min":-99,"x_max":1060,"o":"m 742 550 l 739 468 q 792 317 739 425 q 917 115 844 210 q 1033 21 989 21 q 1051 24 1035 21 q 1060 13 1060 24 q 1011 -32 1060 -4 q 938 -60 963 -60 q 822 16 896 -60 q 694 218 747 92 q 401 -40 572 -40 q 250 5 315 -40 q 147 123 185 50 q 83 290 110 196 q 46 481 57 383 q 22 672 35 579 l 0 839 q -85 1003 -22 1003 q -99 1011 -99 1003 q -80 1031 -99 1019 q -19 1058 -61 1043 q 44 1074 24 1074 q 102 997 79 1074 q 135 807 125 921 q 168 559 146 693 q 220 311 190 425 q 316 121 250 197 q 475 44 382 44 q 597 104 540 44 q 674 261 653 164 q 647 334 668 258 q 606 520 625 410 q 586 706 586 631 l 589 778 q 617 799 589 786 q 657 813 644 813 q 717 747 693 813 q 742 550 742 681 z "},"V":{"ha":714,"x_min":-121,"x_max":717,"o":"m 25 986 l 19 883 q 72 472 19 676 q 149 259 103 353 q 272 103 194 165 q 441 40 350 40 q 573 106 532 40 q 614 288 614 171 q 567 547 614 404 q 444 790 519 689 q 317 880 392 811 q 242 972 242 949 q 269 1001 242 986 q 310 1015 296 1015 q 482 924 401 1015 q 578 768 563 832 q 694 733 672 738 q 717 715 717 728 q 701 700 717 700 q 665 704 685 700 q 601 721 626 713 q 654 358 654 550 q 594 83 654 194 q 499 -10 561 24 q 340 -44 436 -44 q 153 47 244 -44 q 4 281 63 138 q -87 592 -54 424 q -121 919 -121 760 q -112 933 -118 928 q -33 978 -82 953 q 20 1003 15 1003 q 25 986 25 1003 z "},"W":{"ha":1085,"x_min":-158,"x_max":1128,"o":"m -147 1033 q -158 1044 -158 1042 q -25 1092 -94 1092 q 74 906 40 1031 q 115 649 107 781 q 130 394 122 518 q 167 190 138 269 q 257 111 196 111 q 326 154 297 111 q 360 222 354 197 q 297 462 321 311 q 274 682 274 613 q 292 828 274 794 q 319 840 294 831 q 351 850 344 850 q 425 651 396 850 l 438 426 q 575 61 499 192 q 815 -97 668 -97 q 932 -24 893 -97 q 971 181 971 50 q 919 467 971 313 q 783 708 867 621 q 667 801 732 743 q 601 892 601 860 q 642 915 601 901 q 692 928 682 928 q 853 799 799 874 q 898 732 883 758 q 939 653 913 706 q 1015 622 957 635 q 1114 608 1074 608 q 1128 592 1128 608 q 1108 578 1128 578 q 988 600 1063 578 l 961 607 q 957 601 957 607 q 1032 252 1032 431 q 953 -39 1032 74 q 718 -151 875 -151 q 612 -126 663 -151 q 527 -69 561 -101 q 458 17 493 -36 q 369 181 417 79 q 199 38 288 38 q 85 101 129 38 q 23 263 40 165 q -8 481 6 360 q -32 710 -22 601 q -71 909 -42 818 q -147 1033 -100 1000 z "},"X":{"ha":907,"x_min":-71,"x_max":958,"o":"m -43 -56 q -62 -75 -54 -75 q -71 -62 -71 -75 q -68 -46 -71 -50 q 153 369 38 174 q 13 660 64 511 q -37 915 -37 810 q -33 969 -37 944 q 12 1014 -33 976 q 69 1051 57 1051 q 81 1043 81 1051 q 239 510 96 767 q 593 986 406 769 q 619 1003 608 1003 q 643 993 631 1003 q 656 981 656 983 q 653 975 656 978 q 263 471 475 794 q 540 153 381 274 q 840 32 700 32 q 936 58 899 32 q 950 67 947 67 q 958 58 958 67 q 956 43 958 49 q 740 -39 849 -39 q 432 64 576 -39 q 175 335 288 167 q -43 -56 53 138 z "},"Y":{"ha":963,"x_min":-85,"x_max":1224,"o":"m 1186 -492 l 1218 -485 q 1224 -490 1224 -485 q 1178 -534 1224 -508 q 1088 -560 1133 -560 q 994 -510 1043 -560 q 899 -376 944 -461 q 817 -210 854 -290 q 743 -29 779 -129 q 694 109 707 71 q 669 185 682 147 q 656 163 669 182 q 614 116 642 144 q 551 60 586 88 q 467 14 517 33 q 367 -6 417 -6 q 207 47 274 -6 q 107 186 140 100 q 53 376 74 272 q 24 588 33 481 q 6 786 15 694 q -78 1017 -17 994 q -85 1026 -85 1019 q -54 1053 -85 1043 q 22 1068 -11 1068 q 64 1067 54 1068 q 133 888 110 1014 q 169 628 157 763 q 203 365 181 494 q 289 153 226 236 q 457 69 351 69 q 591 130 531 69 q 658 221 651 190 q 593 679 593 444 q 619 788 593 751 q 685 824 646 824 q 741 746 725 824 q 757 603 757 668 q 747 453 757 513 l 744 435 q 837 81 775 258 q 964 -217 899 -96 q 1090 -415 1029 -339 q 1186 -492 1151 -492 z "},"Z":{"ha":1186,"x_min":-78,"x_max":1186,"o":"m 894 -122 q 836 -420 836 -269 q 889 -667 836 -571 q 1029 -764 942 -764 q 1072 -733 1056 -764 q 1089 -640 1089 -701 q 1035 -431 1089 -578 q 894 -122 981 -283 m 379 43 q 253 103 322 43 q -78 675 -78 397 q -47 806 -78 738 q 41 934 -15 874 q 188 1033 97 994 q 386 1072 279 1072 q 649 985 521 1072 q 853 774 778 899 q 929 536 929 650 q 883 392 929 468 q 769 299 838 317 q 944 38 885 138 q 1176 246 1043 171 q 1186 231 1186 246 q 963 8 1050 146 q 1156 -537 1156 -322 q 1095 -753 1156 -671 q 979 -836 1035 -836 q 810 -749 868 -836 q 753 -519 753 -661 q 871 -79 753 -299 q 611 281 736 160 q 485 367 558 281 q 413 506 413 453 q 438 543 413 524 q 479 563 464 563 q 591 488 506 563 q 756 311 676 413 q 781 324 764 311 q 808 356 797 338 q 836 490 836 403 q 783 668 836 576 q 642 832 729 760 q 438 950 556 904 q 200 996 319 996 q 72 919 121 996 q 22 749 22 842 q 76 535 22 657 q 247 283 131 413 q 510 83 364 154 q 477 60 510 71 q 411 47 444 50 l 379 43 z "},"[":{"ha":479,"x_min":-35,"x_max":690,"o":"m 67 1129 q 413 -224 204 821 q 667 -197 600 -218 l 690 -189 l 682 -262 l 338 -278 q 153 638 226 332 q -21 1153 81 943 q -29 1189 -35 1183 l -31 1190 q 167 1199 85 1190 q 275 1217 250 1208 l 299 1226 l 290 1153 q 67 1129 236 1135 z "},"\\":{"ha":514,"x_min":-61,"x_max":590,"o":"m 589 -169 l 590 -172 q 494 -121 510 -142 q 469 -76 478 -100 q 168 681 258 467 q -47 1153 78 896 q -56 1190 -61 1185 q 47 1132 18 1165 q 277 602 76 1099 q 551 -93 478 106 q 569 -130 553 -94 q 589 -169 585 -165 z "},"]":{"ha":592,"x_min":-135,"x_max":590,"o":"m 489 -179 q 425 -11 461 -121 q 310 417 389 99 q 143 1174 231 735 q -111 1147 -44 1168 l -135 1139 l -126 1213 l 218 1228 q 402 313 329 618 q 576 -203 475 7 q 585 -239 590 -233 l 586 -240 q 388 -249 471 -240 q 281 -267 306 -258 l 257 -276 l 265 -203 q 489 -179 318 -185 z "},"^":{"ha":549,"x_min":113,"x_max":478,"o":"m 478 171 q 453 150 478 153 q 331 172 383 150 q 253 226 278 194 q 233 204 250 224 q 146 117 197 160 q 124 107 135 107 q 113 115 113 107 q 188 185 171 161 l 211 219 q 225 244 217 228 l 235 264 q 270 301 235 283 q 328 318 306 318 q 350 299 350 318 q 349 279 349 292 q 387 203 349 231 q 478 171 425 176 z "},"_":{"ha":657,"x_min":49,"x_max":551,"o":"m 49 -89 l 58 -26 q 355 -17 232 -26 q 514 0 478 -8 l 551 10 l 540 -64 q 49 -89 426 -89 z "},"`":{"ha":636,"x_min":197,"x_max":440,"o":"m 440 490 q 415 469 440 472 q 260 509 324 469 q 197 583 197 549 q 233 620 197 603 q 290 638 268 638 q 313 618 313 638 q 311 599 311 611 q 349 523 311 550 q 440 490 388 496 z "},"a":{"ha":636,"x_min":0,"x_max":678,"o":"m 282 364 q 358 372 286 372 q 429 351 429 372 q 421 335 429 347 q 372 196 372 268 q 406 77 372 124 q 493 31 440 31 q 668 153 579 31 l 678 136 q 439 -36 569 -36 q 288 65 340 -36 q 215 3 265 32 q 121 -26 165 -26 q 0 75 0 -26 q 67 241 0 154 q 200 328 135 328 q 206 324 206 328 q 200 314 206 319 q 151 251 171 299 q 131 153 131 203 q 208 51 131 51 q 251 63 231 51 q 275 97 271 75 q 257 199 257 146 q 261 288 257 251 q 282 364 272 364 z "},"b":{"ha":564,"x_min":-42,"x_max":607,"o":"m 306 263 q 289 229 289 263 q 316 151 289 196 q 385 79 343 106 q 386 100 386 86 q 363 212 386 161 q 306 263 339 263 m 46 743 q 110 271 46 465 q 172 728 172 442 q 157 932 172 851 q 115 1013 142 1013 q 63 938 81 1013 q 46 743 46 864 m 267 875 q 220 550 267 739 q 119 243 174 361 q 218 55 163 121 q 319 -11 274 -11 q 381 46 365 -11 q 274 135 318 74 q 231 257 231 196 q 246 308 231 289 q 290 328 261 328 q 402 273 363 328 q 442 142 442 218 q 428 60 442 99 q 460 56 442 56 q 596 153 536 56 l 607 139 q 450 32 544 32 q 417 35 439 32 q 269 -56 368 -56 q 61 81 156 -56 q -13 267 15 149 q -42 532 -42 386 q -17 796 -42 678 q 56 990 7 914 q 167 1067 104 1067 q 267 875 267 1067 z "},"c":{"ha":557,"x_min":0,"x_max":599,"o":"m 286 333 q 233 375 286 375 q 146 328 181 375 q 111 208 111 281 q 167 76 111 135 q 336 17 224 17 q 474 51 407 17 q 589 153 542 85 l 599 136 q 445 -4 549 46 q 237 -54 342 -54 q 66 -10 132 -54 q 0 115 0 33 q 83 313 0 219 q 289 406 165 406 q 353 384 332 406 q 374 327 374 363 q 349 258 374 292 q 292 224 324 224 q 258 237 275 224 q 240 259 240 250 q 247 274 240 268 q 264 286 254 281 q 286 333 286 297 z "},"d":{"ha":704,"x_min":1,"x_max":658,"o":"m 244 83 q 369 224 310 83 q 317 336 338 288 q 292 326 306 326 q 269 354 269 326 q 281 370 269 363 q 293 390 293 378 q 269 417 293 417 q 176 355 213 417 q 139 227 139 293 q 165 122 139 161 q 244 83 192 83 m 286 881 q 419 383 286 663 q 468 739 468 578 q 358 1060 468 1060 q 286 881 286 1060 m 449 328 q 562 135 503 222 q 640 27 621 49 q 658 -1 658 6 q 628 -33 658 -8 q 576 -58 599 -58 q 500 12 554 -58 q 388 189 446 82 q 140 -11 281 -11 q 35 26 69 -11 q 1 125 1 64 q 84 337 1 232 q 272 442 167 442 l 274 442 q 208 764 208 624 q 276 1015 208 904 q 421 1126 344 1126 q 508 1062 474 1126 q 542 865 542 997 q 449 328 542 590 z "},"e":{"ha":436,"x_min":-54,"x_max":478,"o":"m 176 411 l 178 429 q 140 446 178 446 q 73 424 103 446 q 43 364 43 401 q 139 297 43 297 q 170 302 154 297 q 203 307 186 307 q 219 296 219 307 q 208 290 219 294 q 181 275 197 285 q 149 250 165 265 q 110 151 110 214 q 147 56 110 89 q 244 24 185 24 q 367 58 304 24 q 468 153 429 93 l 478 136 q 331 -9 425 44 q 160 -62 238 -62 q 42 -31 83 -62 q 1 52 1 1 q 26 146 1 103 q 70 208 51 189 q 98 234 89 226 q 107 245 107 242 q 106 249 107 249 q 19 232 61 232 q -54 292 -54 232 q 38 431 -54 372 q 198 489 129 489 q 267 456 267 489 q 244 411 267 435 q 204 388 222 388 q 176 411 176 388 z "},"f":{"ha":356,"x_min":-253,"x_max":397,"o":"m -81 -203 q -158 -186 -118 -186 q -197 -198 -197 -186 q -158 -210 -197 -210 q -81 -203 -119 -210 m 169 -465 q 106 -153 153 -360 q -28 -218 40 -194 q 165 -472 78 -292 l 169 -465 m 143 682 q 143 779 143 682 q 116 988 143 876 q 34 1099 89 1099 q -21 957 -21 1099 q 107 322 -21 815 q 143 682 143 488 m 217 876 q 188 573 217 740 q 119 281 160 406 l 204 -50 q 388 153 322 49 l 397 136 q 210 -75 322 22 q 282 -510 282 -374 q 274 -521 282 -519 q 235 -544 267 -522 q 198 -570 203 -565 q 187 -575 193 -575 q 176 -564 181 -575 q -43 -222 81 -304 q -158 -244 -114 -244 q -253 -211 -253 -244 q -229 -183 -253 -196 q -158 -169 -206 -169 q -58 -197 -110 -169 q 99 -128 17 -178 q 32 133 81 -57 q -39 419 -17 322 q -108 845 -108 708 q -52 1061 -108 982 q 108 1140 4 1140 q 217 876 217 1140 z "},"g":{"ha":621,"x_min":0,"x_max":663,"o":"m 342 100 q 313 306 314 225 q 290 299 304 299 q 268 326 268 299 q 280 342 268 335 q 292 363 292 350 q 268 389 292 389 q 174 327 211 389 q 138 199 138 265 q 164 94 138 133 q 242 56 190 56 q 342 100 293 56 m 439 -679 q 483 -647 465 -679 q 500 -547 500 -615 q 414 -179 500 -478 q 328 -458 328 -312 q 363 -617 328 -554 q 439 -679 399 -679 m 663 136 q 499 -69 624 71 q 537 -195 524 -143 q 563 -294 550 -247 q 581 -365 575 -340 q 594 -476 594 -440 q 531 -663 594 -592 q 395 -735 468 -735 q 276 -675 322 -735 q 229 -500 229 -615 q 283 -315 239 -400 q 404 -142 328 -231 q 349 69 368 -11 q 239 -11 296 17 q 139 -39 182 -39 q 34 -1 68 -39 q 0 97 0 36 q 83 309 0 204 q 271 414 165 414 q 340 375 329 414 q 388 423 361 403 q 433 443 414 443 q 453 414 453 443 q 440 358 453 406 q 426 296 426 311 q 492 -43 426 186 q 653 153 604 81 l 663 136 z "},"h":{"ha":636,"x_min":-104,"x_max":678,"o":"m 110 303 q 151 613 151 432 q 120 917 151 793 q 38 1042 89 1042 q -8 1002 11 1042 q -26 896 -26 963 q 110 303 -26 781 m 269 239 q 199 29 201 51 q 185 -6 199 0 q 138 -26 172 -11 l 100 -44 q 81 -27 86 -44 q 54 67 76 -10 q 19 188 32 144 q -15 310 7 232 q -49 441 -36 389 q -76 553 -62 493 q -104 710 -104 669 q -37 997 -104 878 q 104 1115 31 1115 q 238 854 238 1115 q 203 551 238 718 q 121 267 168 383 l 183 61 q 219 160 186 61 q 254 274 253 260 q 288 308 261 300 q 342 327 303 313 q 382 342 381 342 q 392 329 392 342 q 379 190 379 263 q 406 65 379 117 q 481 14 432 14 q 668 153 561 14 l 678 136 q 547 -8 614 42 q 416 -57 479 -57 q 311 13 353 -57 q 269 215 269 82 l 269 239 z "},"i":{"ha":433,"x_min":21,"x_max":475,"o":"m 28 311 q 21 215 21 253 q 72 10 21 83 q 195 -62 122 -62 q 340 -12 268 -62 q 475 136 413 39 l 465 153 q 265 4 357 4 q 171 67 207 4 q 135 236 135 129 q 144 349 135 292 q 134 361 144 361 q 40 328 124 361 q 28 311 28 324 m 144 610 q 155 598 144 610 q 165 553 165 586 q 144 496 165 519 q 92 472 122 472 q 42 496 63 472 q 21 553 21 519 q 42 610 21 586 q 92 633 63 633 q 144 610 122 633 z "},"j":{"ha":318,"x_min":-62,"x_max":360,"o":"m 74 606 q 84 594 74 606 q 94 549 94 582 q 74 492 94 515 q 23 468 53 468 q -28 492 -7 468 q -50 549 -50 515 q -28 606 -50 582 q 23 629 -7 629 q 74 606 53 629 m 54 -479 q 85 -655 54 -561 q 158 -809 117 -749 q 228 -869 199 -869 q 258 -794 258 -869 q 233 -628 258 -725 q 198 -493 208 -531 q 156 -348 188 -456 q 118 -215 125 -240 q 54 -479 54 -339 m 13 263 q -34 242 -6 242 q -62 257 -62 242 q -47 274 -62 268 q 67 334 29 303 q 111 365 106 365 q 126 342 126 365 q 190 -56 136 175 q 350 153 318 107 l 360 136 q 274 14 333 93 q 197 -87 214 -65 q 253 -308 214 -157 q 328 -698 328 -594 q 294 -860 328 -801 q 206 -918 260 -918 q 38 -798 119 -918 q -44 -521 -44 -678 q 104 -167 -26 -346 q 13 263 21 126 z "},"k":{"ha":674,"x_min":-111,"x_max":715,"o":"m 60 1104 q 6 1048 25 1104 q -14 897 -14 992 q 99 343 -14 803 q 161 828 161 585 q 60 1104 161 1104 m 357 147 l 329 153 q 326 147 326 153 q 366 53 326 85 q 469 21 406 21 q 599 56 532 21 q 706 153 667 92 l 715 136 q 573 -5 656 43 q 410 -53 490 -53 q 273 -9 329 -53 q 203 115 217 35 q 231 151 203 129 q 286 186 258 172 l 313 200 q 332 182 315 200 q 368 164 349 164 q 405 194 388 164 q 422 258 422 224 q 351 332 422 332 q 268 292 304 332 q 215 200 232 253 q 183 54 183 97 l 188 15 q 139 -25 188 -1 q 78 -49 90 -49 q 63 -32 65 -49 q -3 248 43 68 q -81 567 -50 428 q -111 769 -111 706 q -106 873 -111 832 q -86 964 -101 914 q -47 1051 -71 1014 q 21 1115 -22 1089 q 121 1140 64 1140 q 243 933 243 1140 q 110 300 243 704 l 164 92 q 167 110 165 99 q 179 156 169 122 q 201 221 189 190 q 235 289 213 251 q 282 353 257 326 q 425 418 342 418 q 526 339 526 418 q 471 212 526 276 q 357 147 415 147 z "},"l":{"ha":557,"x_min":-65,"x_max":599,"o":"m 379 940 q 260 1108 379 1108 q 94 967 154 1108 q 33 608 33 825 q 111 222 33 390 q 294 570 208 350 q 379 940 379 790 m 364 24 q 488 58 425 24 q 589 153 550 93 l 599 136 q 452 -9 546 44 q 269 -62 358 -62 l 265 -62 q 82 19 158 -62 q -65 497 -65 175 q -22 814 -65 665 q 117 1064 22 963 q 338 1165 211 1165 q 483 988 483 1165 q 377 600 483 831 q 124 196 271 369 q 364 24 214 24 z "},"m":{"ha":954,"x_min":1,"x_max":996,"o":"m 136 325 l 133 289 q 178 88 133 153 q 244 49 204 49 q 296 96 283 49 q 263 282 263 179 q 374 325 263 325 q 393 304 393 325 q 408 168 393 235 q 524 38 436 38 q 572 68 550 38 q 518 296 518 161 q 555 349 518 322 q 621 376 592 376 q 654 267 654 376 q 649 214 654 256 q 708 80 672 129 q 811 31 744 31 q 986 153 897 31 l 996 136 q 757 -36 888 -36 q 586 47 649 -36 q 457 -37 532 -37 q 308 68 360 -37 q 257 4 292 33 q 174 -25 222 -25 q 51 50 100 -25 q 1 240 1 125 l 4 281 q 63 317 6 296 q 131 338 119 338 q 136 325 136 338 z "},"n":{"ha":694,"x_min":-14,"x_max":740,"o":"m 99 354 l 97 321 q 149 13 97 222 q 290 342 231 310 q 365 376 331 376 q 376 364 376 376 q 361 331 376 351 q 377 272 367 313 q 395 204 388 232 q 418 141 403 176 q 450 83 433 106 q 556 31 492 31 q 731 153 642 31 l 740 136 q 501 -36 632 -36 q 388 -6 436 -36 q 314 74 339 24 q 263 268 268 165 q 169 22 211 176 q 149 -25 158 -19 q 86 -49 128 -49 q 44 -39 44 -49 q 25 53 42 -17 q -14 290 -14 228 q 3 363 -14 351 q 56 374 19 374 q 97 364 92 374 q 99 354 99 361 z "},"o":{"ha":533,"x_min":1,"x_max":576,"o":"m 333 99 q 351 200 351 139 q 335 297 351 261 q 299 332 319 332 q 272 313 283 332 q 261 258 261 293 q 281 176 261 222 q 333 99 300 131 m 104 169 q 137 66 104 108 q 222 24 169 24 q 308 61 275 24 q 219 167 254 99 q 185 314 185 235 q 188 336 185 322 q 104 169 104 278 m 169 -56 q 45 -1 89 -56 q 1 136 1 53 q 54 290 1 219 q 199 364 107 360 q 265 399 221 399 q 344 348 308 399 q 379 217 379 297 q 356 79 379 136 q 428 54 390 54 q 565 153 501 54 l 576 139 q 411 28 508 28 q 338 44 372 28 q 262 -29 307 -3 q 169 -56 217 -56 z "},"p":{"ha":601,"x_min":11,"x_max":643,"o":"m 164 28 l 201 65 q 209 67 204 67 q 214 56 214 67 q 257 6 214 6 q 331 66 301 8 q 361 184 361 124 q 338 280 361 244 q 269 315 315 315 q 156 126 156 315 q 164 28 156 89 m 324 -24 q 490 24 400 -24 q 633 153 581 71 l 643 136 q 479 -20 576 33 q 296 -74 382 -74 q 172 -29 210 -74 q 203 -214 182 -97 q 246 -499 246 -469 q 238 -533 246 -529 q 208 -550 229 -536 q 153 -581 160 -581 q 128 -542 131 -581 q 58 -10 103 -306 q 12 305 13 286 q 48 372 11 324 q 103 419 85 419 q 121 383 121 418 l 144 211 q 185 308 154 256 q 354 417 244 417 q 464 307 464 417 q 414 134 464 232 q 303 -22 364 36 q 324 -24 310 -24 z "},"q":{"ha":700,"x_min":-1,"x_max":775,"o":"m 536 -28 q 509 -29 526 -29 q 467 -26 492 -29 q 525 -408 483 -242 q 586 -553 549 -500 q 671 -607 624 -607 q 746 -480 746 -607 q 687 -218 746 -353 q 536 -28 628 -83 m 358 381 q 415 340 415 381 q 383 288 415 310 q 331 267 351 267 q 318 288 318 267 q 264 346 318 346 q 161 292 203 346 q 119 178 119 238 q 149 85 119 119 q 239 51 179 51 q 305 88 269 51 q 344 181 340 124 q 343 214 343 208 q 364 235 343 226 l 432 263 q 442 265 436 265 q 454 244 454 265 q 460 67 454 149 q 564 31 515 63 q 732 153 671 60 l 742 136 q 607 -1 690 49 q 730 -194 685 -72 q 775 -421 775 -315 q 741 -587 775 -526 q 642 -647 707 -647 q 494 -567 560 -647 q 408 -375 447 -510 q 372 -199 386 -303 q 354 -33 358 -96 q 349 55 350 31 q 347 118 349 79 q 261 5 324 49 q 129 -39 199 -39 q 29 -6 60 -39 q -1 76 -1 26 q 24 178 -1 126 q 92 276 49 231 q 206 351 136 322 q 358 381 276 381 z "},"r":{"ha":524,"x_min":-7,"x_max":565,"o":"m 132 229 l 106 231 q 86 218 92 231 q 33 124 69 176 l 22 139 q 65 233 50 176 q 56 249 65 244 q -7 358 -7 269 q 26 395 -7 378 q 82 413 60 413 q 104 393 104 413 q 201 289 104 289 q 240 294 225 289 q 256 299 254 299 q 269 278 269 299 q 259 251 269 258 q 236 219 249 243 q 224 163 224 194 q 260 65 224 100 q 352 29 297 29 q 461 61 407 29 q 556 153 515 93 l 565 136 q 431 0 517 51 q 276 -51 344 -51 q 138 75 138 -51 q 154 139 138 99 q 188 207 171 179 l 204 235 q 200 240 204 240 q 132 229 156 229 z "},"s":{"ha":421,"x_min":-31,"x_max":463,"o":"m 453 153 l 463 136 q 322 -6 404 43 q 167 -56 240 -56 q -31 72 18 -56 q 1 118 -31 79 q 44 157 33 157 q 56 150 54 157 q 102 56 64 106 q 172 6 140 6 q 224 33 222 6 q 122 164 224 76 q 53 249 85 197 q 22 357 22 301 q 26 372 22 368 q 107 428 88 428 q 122 404 122 428 q 166 298 124 353 q 249 193 208 243 q 290 94 290 143 q 242 6 290 44 q 453 153 356 8 z "},"t":{"ha":439,"x_min":-239,"x_max":501,"o":"m 88 669 q 289 17 110 17 q 472 153 365 17 l 482 136 q 233 -58 351 -58 q 40 123 114 -58 q -37 606 -33 304 q -221 515 -210 515 q -239 535 -239 515 q -219 565 -239 554 l -37 663 q -28 863 -35 768 q -15 879 -28 875 q 78 913 68 913 q 89 900 89 913 q 86 774 86 831 l 86 729 l 158 768 q 459 925 451 925 q 471 921 467 925 q 501 886 501 890 q 493 876 501 882 q 431 842 485 869 q 272 763 378 815 q 88 669 165 710 z "},"u":{"ha":711,"x_min":1,"x_max":753,"o":"m 307 308 q 319 325 307 321 q 413 358 403 358 q 424 346 424 358 q 414 238 414 292 q 450 70 414 133 q 546 7 486 7 q 743 153 638 7 l 753 136 q 622 -9 692 40 q 486 -58 551 -58 q 335 46 386 -58 q 195 -35 281 -35 q 56 40 110 -35 q 1 215 1 114 q 44 342 1 314 q 124 361 78 361 q 136 311 136 361 q 117 203 136 261 q 206 64 136 104 q 265 47 233 47 q 324 74 296 47 q 301 201 301 138 q 307 308 301 265 z "},"v":{"ha":399,"x_min":-53,"x_max":440,"o":"m 239 372 q 213 333 224 372 q 203 231 203 293 q 219 124 203 168 q 258 312 258 251 q 239 372 258 372 m 182 33 q 208 90 194 49 q 161 289 161 174 q 183 401 161 357 q 250 444 206 444 q 286 366 286 444 q 228 104 286 288 q 293 56 251 56 q 429 153 369 56 l 440 139 q 283 32 378 32 q 218 75 250 32 l 193 1 q 183 -14 193 -11 q 140 -33 172 -17 q 101 -49 108 -49 q 85 -32 90 -49 q -31 283 18 201 q -48 310 -43 303 q -52 326 -53 318 q -22 352 -51 335 q 28 369 8 369 q 83 312 56 367 q 142 152 110 257 q 176 40 174 47 q 182 33 179 33 z "},"w":{"ha":835,"x_min":1,"x_max":878,"o":"m 574 267 q 601 163 574 221 q 669 76 628 106 q 679 153 679 104 q 656 247 679 203 q 590 292 632 292 q 574 267 574 292 m 510 -64 q 360 36 421 -64 q 322 125 336 74 q 303 82 318 110 q 272 36 288 54 q 169 -11 228 -11 q 45 65 88 -11 q 1 311 3 142 q 47 347 1 335 q 117 358 93 358 q 124 344 124 358 q 119 277 119 317 q 124 204 119 238 q 139 135 128 171 q 174 77 150 99 q 232 56 197 56 q 286 86 267 56 q 306 149 306 117 q 304 190 306 182 q 342 246 304 217 q 397 275 379 275 q 414 254 414 275 q 488 60 414 143 q 593 11 531 11 q 656 49 633 11 q 556 151 597 79 q 515 286 515 222 q 531 338 515 318 q 575 357 546 357 q 669 295 632 357 q 707 168 707 233 q 693 63 707 103 q 731 56 711 56 q 867 153 807 56 l 878 139 q 721 32 815 32 q 682 38 699 32 q 510 -64 631 -64 z "},"x":{"ha":467,"x_min":-24,"x_max":508,"o":"m -8 304 l -8 311 q 4 328 -8 324 q 98 361 88 361 q 108 349 108 361 q 168 143 108 224 q 305 306 292 294 q 333 317 318 317 q 349 308 349 317 q 344 295 349 300 q 324 273 339 290 q 292 236 308 256 q 190 117 229 164 q 331 54 250 54 q 499 153 428 54 l 508 136 q 397 17 463 57 q 256 -24 331 -24 q 115 24 182 -24 q 11 -126 44 -71 q -10 -136 4 -136 q -24 -119 -24 -136 q 89 44 -24 -101 q -8 304 -8 135 z "},"y":{"ha":621,"x_min":3,"x_max":663,"o":"m 328 -458 q 396 -675 328 -574 q 522 -776 464 -776 q 572 -687 572 -776 q 524 -487 572 -622 q 469 -340 506 -437 q 413 -182 433 -242 q 328 -458 328 -311 m 633 -565 q 588 -769 633 -701 q 471 -836 542 -836 q 305 -740 381 -836 q 229 -500 229 -643 q 283 -318 239 -401 q 400 -146 326 -235 q 335 58 353 -17 q 197 -18 275 -18 q 61 61 119 -18 q 3 289 3 140 q 25 310 3 304 q 101 324 92 324 q 118 307 118 324 q 175 108 118 181 q 265 64 211 64 q 326 90 294 64 q 306 247 306 183 q 335 339 306 310 q 401 374 394 374 q 415 353 415 374 q 471 33 415 201 l 494 -40 q 653 153 599 72 l 663 136 q 601 50 629 83 q 542 -19 574 17 q 503 -65 511 -56 q 614 -406 604 -356 q 633 -565 633 -504 z "},"z":{"ha":567,"x_min":6,"x_max":608,"o":"m 460 -554 q 360 -181 460 -346 q 274 -458 274 -308 q 312 -617 274 -554 q 393 -679 350 -679 q 441 -647 422 -679 q 460 -554 460 -615 m 258 265 q 249 270 258 271 q 194 269 239 269 q 104 285 150 269 q 90 240 104 279 q 33 124 61 163 l 22 139 q 61 218 44 165 q 79 296 78 271 q 6 417 6 333 q 39 453 6 436 q 94 471 72 471 q 117 451 117 471 l 117 435 q 160 358 117 397 q 256 319 204 319 q 294 324 279 319 q 310 329 308 329 q 324 309 324 329 q 314 282 324 289 q 242 212 275 260 q 203 119 208 164 q 410 -74 332 25 q 599 153 551 83 l 608 136 q 501 -6 564 67 q 425 -94 438 -79 q 554 -476 554 -268 q 490 -663 554 -592 q 349 -735 425 -735 q 224 -675 272 -735 q 175 -500 175 -615 q 342 -151 192 -331 q 167 11 269 -47 q 149 57 149 21 q 176 147 149 93 q 227 231 203 201 q 258 265 251 260 z "},"{":{"ha":447,"x_min":-17,"x_max":511,"o":"m 106 435 q 203 362 157 408 q 275 263 250 315 q 329 4 321 164 q 363 -210 338 -156 q 424 -286 389 -265 q 511 -314 460 -307 l 500 -344 q 374 -319 428 -342 q 291 -262 321 -296 q 243 -179 261 -229 q 213 22 213 -94 q 197 219 213 165 q 165 311 181 272 q 65 425 135 388 q 103 551 103 475 q 84 700 103 626 q 43 818 65 774 q -17 1067 -17 938 q 50 1213 -17 1151 q 150 1294 78 1239 l 172 1269 q 105 1210 128 1243 q 82 1115 82 1176 q 132 906 82 1054 q 182 648 182 757 q 106 435 182 539 z "},"|":{"ha":408,"x_min":153,"x_max":292,"o":"m 233 1279 q 226 826 226 1050 q 242 358 226 601 q 275 22 258 115 l 292 -72 q 211 -112 292 -85 q 182 217 192 94 q 153 1160 153 586 l 153 1250 q 233 1279 218 1276 z "},"}":{"ha":494,"x_min":-179,"x_max":349,"o":"m 226 515 q 128 588 175 542 q 57 688 82 635 q 3 946 11 786 q -31 1160 -6 1106 q -92 1236 -57 1215 q -179 1264 -128 1257 l -168 1294 q -42 1269 -96 1292 q 41 1213 11 1246 q 89 1129 71 1179 q 119 928 119 1044 q 135 731 119 785 q 167 639 151 678 q 267 525 197 563 q 229 399 229 475 q 248 250 229 324 q 289 132 267 176 q 349 -117 349 13 q 283 -262 349 -201 q 182 -344 254 -289 l 160 -319 q 227 -260 204 -293 q 250 -165 250 -226 q 200 44 250 -104 q 150 302 150 193 q 226 515 150 411 z "},"~":{"ha":510,"x_min":90,"x_max":444,"o":"m 219 219 l 338 206 q 433 267 378 206 q 444 250 444 267 q 395 169 444 217 q 289 121 346 121 q 229 133 272 121 q 172 144 186 144 q 106 96 125 144 q 90 111 90 96 q 134 190 90 160 q 219 219 178 219 z "},"":{"ha":285,"x_min":31,"x_max":239,"o":"m 72 300 q 108 -126 72 228 q 143 -528 143 -481 q 117 -603 143 -576 q 111 -614 111 -608 q 117 -619 111 -619 q 131 -614 124 -618 q 160 -595 139 -610 q 197 -564 181 -581 q 239 -442 239 -517 q 193 -49 239 -367 q 147 322 147 268 q 129 333 147 333 q 72 300 111 333 m 52 456 q 41 467 52 456 q 31 513 31 479 q 52 569 31 546 q 103 593 74 593 q 154 569 133 593 q 175 513 175 546 q 154 456 175 479 q 103 432 133 432 q 52 456 74 432 z "},"":{"ha":557,"x_min":36,"x_max":635,"o":"m 293 587 q 299 591 293 587 q 314 607 306 594 q 322 632 322 619 q 321 651 322 644 q 304 669 319 658 q 261 681 289 681 l 278 576 q 293 587 281 579 m 147 522 q 178 414 147 464 q 268 340 208 364 l 215 667 q 147 522 147 625 m 208 1018 l 258 704 q 328 713 289 713 q 389 691 368 713 q 410 634 410 669 q 385 565 410 599 q 329 531 360 531 q 282 556 299 531 l 318 328 q 372 324 343 324 q 510 358 443 324 q 625 460 578 392 l 635 443 q 508 317 592 365 q 329 256 425 269 l 374 -24 q 364 -35 374 -35 q 338 -17 351 -35 q 319 32 324 0 l 283 253 l 269 253 q 102 297 168 253 q 36 419 36 340 q 85 575 36 499 q 213 688 133 651 l 154 1049 q 172 1058 154 1058 q 208 1018 203 1058 z "},"":{"ha":911,"x_min":0,"x_max":1069,"o":"m 597 1104 q 519 1052 549 1104 q 489 923 489 1000 q 510 767 489 846 q 619 912 578 836 q 660 1039 660 988 q 597 1104 660 1104 m 621 -31 q 619 -12 621 -19 q 393 31 500 -4 q 236 93 286 67 q 344 -68 269 4 q 424 -122 375 -99 q 526 -146 472 -146 q 621 -31 621 -146 m 32 506 q 0 524 0 506 q 25 567 0 543 q 68 592 50 592 q 133 586 115 586 q 386 665 258 586 q 369 781 369 728 q 472 1053 369 946 q 679 1161 575 1161 q 763 1094 763 1161 q 694 933 763 1032 q 517 739 625 835 q 571 582 540 658 q 888 642 733 614 q 879 591 886 614 q 865 565 872 568 q 597 515 721 540 q 624 450 614 471 q 876 497 657 457 q 868 447 875 469 q 854 421 861 424 l 650 383 q 729 65 729 185 l 729 64 q 788 61 749 61 q 1058 149 940 61 q 1069 139 1069 149 q 717 -15 939 -8 q 646 -129 696 -85 q 526 -174 596 -174 q 382 -131 457 -174 q 254 -33 307 -89 q 167 76 201 24 q 132 150 132 128 q 173 198 132 163 q 242 233 214 233 q 325 197 258 226 q 422 154 392 167 q 600 89 532 108 q 500 351 574 174 q 379 321 407 331 q 340 307 351 311 q 323 301 328 303 q 317 299 318 299 l 336 379 q 472 418 357 390 l 447 481 q 357 453 385 464 q 328 443 329 443 l 347 524 q 422 547 361 532 q 392 642 404 594 q 32 506 192 506 z "},"":{"ha":706,"x_min":29,"x_max":715,"o":"m 246 517 q 246 485 246 517 q 293 385 246 453 q 403 318 340 318 q 494 353 465 318 q 524 451 524 388 q 474 583 524 515 q 363 650 425 650 q 274 616 301 650 q 246 517 246 582 m 681 317 l 632 328 l 565 351 q 369 264 494 264 q 281 279 324 264 l 239 171 q 229 165 233 165 q 213 191 213 165 q 221 246 213 217 l 240 300 q 150 482 150 360 q 167 567 150 529 l 29 622 q 63 651 38 651 q 82 647 72 651 l 192 608 q 283 680 226 654 q 392 706 340 706 q 481 693 443 706 l 528 814 q 538 817 528 817 q 556 807 547 817 q 564 785 564 797 q 560 761 564 774 l 525 672 q 613 497 613 615 l 613 493 q 590 390 613 438 l 706 347 q 715 335 715 342 q 681 317 715 318 z "},"":{"ha":899,"x_min":-85,"x_max":946,"o":"m 908 -279 l 940 -272 q 946 -278 946 -272 q 901 -322 946 -296 q 808 -347 856 -347 q 632 53 706 -347 q 378 -14 444 14 q 360 -21 361 -21 l 379 60 q 621 121 408 78 l 610 189 q 424 143 463 157 q 371 124 374 124 l 390 204 q 600 260 417 221 q 586 374 593 310 q 568 510 572 496 q 554 488 568 507 q 513 441 540 469 q 450 385 485 413 q 365 339 415 358 q 265 319 315 319 q 123 392 175 319 q 53 570 71 464 q 25 785 36 676 q -78 1082 0 1054 q -85 1092 -85 1085 q -54 1119 -85 1108 q 22 1133 -11 1133 q 64 1132 54 1133 q 161 742 138 996 q 185 569 169 651 q 240 441 200 488 q 355 394 281 394 q 490 455 429 394 q 557 546 550 515 q 492 1004 492 769 q 518 1113 492 1076 q 584 1149 544 1149 q 640 1071 624 1149 q 656 928 656 993 q 647 778 656 822 l 643 760 q 701 279 671 481 q 931 322 822 303 q 922 272 929 294 q 908 246 915 249 q 713 210 740 215 l 724 142 l 919 178 q 911 127 918 150 q 897 101 904 104 q 738 72 743 74 q 908 -279 810 -279 z "},"":{"ha":408,"x_min":153,"x_max":292,"o":"m 233 1279 q 226 908 226 1050 q 228 704 226 765 l 158 704 q 153 1160 153 878 l 153 1250 q 233 1279 218 1276 m 211 -112 q 167 472 178 233 l 236 472 q 282 -19 253 142 l 292 -72 q 211 -112 292 -85 z "},"":{"ha":867,"x_min":3,"x_max":832,"o":"m 81 792 q 121 660 81 722 q 223 555 161 599 q 362 465 285 511 q 509 381 439 419 q 640 292 579 343 q 725 188 700 240 q 729 224 729 204 q 667 353 729 290 q 514 469 604 417 q 332 576 424 522 q 171 699 240 629 q 92 844 101 769 q 81 792 81 811 m 3 660 q 93 917 3 794 q 197 1147 110 1043 q 375 1250 283 1250 q 508 1208 467 1250 q 550 1099 550 1165 q 509 971 550 1033 q 408 894 468 908 q 399 911 401 894 q 456 1015 456 949 q 409 1133 456 1081 q 296 1185 363 1185 q 226 1143 257 1185 q 181 1060 194 1101 q 168 1001 168 1019 q 205 876 168 935 q 300 773 242 817 q 429 688 358 729 q 571 606 500 646 q 700 524 642 565 q 795 428 758 482 q 832 313 832 374 q 740 140 832 225 q 744 103 744 122 q 639 -80 744 8 q 425 -168 533 -168 q 121 10 254 -168 q 106 45 106 31 q 140 88 106 60 q 188 117 175 117 q 201 113 200 117 q 336 -26 239 47 q 526 -100 433 -100 q 642 14 642 -92 q 576 147 642 82 q 416 266 510 213 q 228 376 322 319 q 69 506 135 432 q 3 660 3 579 z "},"":{"ha":433,"x_min":-106,"x_max":267,"o":"m 245 610 q 256 598 245 610 q 267 553 267 586 q 245 496 267 519 q 194 472 224 472 q 143 496 164 472 q 122 553 122 519 q 143 610 122 586 q 194 633 164 633 q 245 610 224 633 m 17 610 q 28 598 17 610 q 39 553 39 586 q 17 496 39 519 q -34 472 -4 472 q -85 496 -64 472 q -106 553 -106 519 q -85 610 -106 586 q -34 633 -64 633 q 17 610 -4 633 z "},"":{"ha":932,"x_min":25,"x_max":883,"o":"m 482 525 q 429 567 482 567 q 342 519 376 567 q 307 399 307 472 q 363 267 307 326 q 532 208 419 208 q 670 242 603 208 q 785 344 738 276 l 794 328 q 641 188 744 238 q 433 138 538 138 q 262 181 328 138 q 196 307 196 225 q 278 504 196 411 q 485 597 361 597 q 549 576 528 597 q 569 519 569 554 q 544 449 569 483 q 488 415 519 415 q 453 428 471 415 q 436 451 436 442 q 447 468 436 461 q 482 525 482 490 m 457 7 q 716 96 606 7 q 826 349 826 185 q 713 612 826 514 q 449 710 599 710 q 192 622 299 710 q 86 375 86 533 q 142 169 86 256 q 457 7 244 7 m 883 378 l 883 371 q 816 140 883 239 q 648 -7 749 40 q 432 -54 547 -54 q 144 51 264 -54 q 25 350 25 156 q 95 574 25 476 q 270 718 165 671 q 492 765 375 765 q 769 666 656 765 q 883 378 883 567 z "},"":{"ha":636,"x_min":0,"x_max":678,"o":"m 282 1015 q 358 1024 286 1024 q 429 1003 429 1024 q 421 986 429 999 q 372 847 372 919 q 406 728 372 775 q 493 682 440 682 q 668 804 579 682 l 678 788 q 439 615 569 615 q 288 717 340 615 q 215 654 265 683 q 121 625 165 625 q 0 726 0 625 q 67 892 0 806 q 200 979 135 979 q 206 975 206 979 q 200 965 206 971 q 151 902 171 950 q 131 804 131 854 q 208 703 131 703 q 251 715 231 703 q 275 749 271 726 q 257 850 257 797 q 261 939 257 903 q 282 1015 272 1015 z "},"":{"ha":988,"x_min":-22,"x_max":929,"o":"m 890 383 q 500 189 808 296 q 748 79 613 150 q 929 -50 883 8 q 856 -87 892 -87 l 819 -64 q 392 150 510 150 q 345 168 372 150 q 308 190 318 186 q 568 267 419 196 q 807 410 717 339 q 822 415 813 415 q 840 412 831 415 q 858 404 850 408 q 890 383 874 397 m 560 383 q 169 189 478 296 q 417 79 282 150 q 599 -50 553 8 q 525 -87 561 -87 l 489 -64 q 61 150 179 150 q 15 168 42 150 q -22 190 -12 186 q 238 267 89 196 q 476 410 386 339 q 491 415 482 415 q 510 412 500 415 q 528 404 519 408 q 560 383 543 397 z "},"":{"ha":553,"x_min":65,"x_max":551,"o":"m 74 518 q 526 558 406 518 q 551 344 536 432 q 471 304 551 332 l 454 465 q 65 449 332 449 l 74 518 z "},"":{"ha":932,"x_min":25,"x_max":883,"o":"m 432 456 l 406 457 q 386 444 392 457 q 333 350 369 403 q 129 188 261 228 q 265 53 176 99 q 457 7 353 7 q 705 86 597 7 q 825 306 813 165 q 701 210 772 246 q 569 175 629 175 q 473 207 508 175 q 438 301 438 239 q 454 365 438 325 q 488 433 471 406 l 504 461 q 500 467 504 467 q 432 456 456 456 m 86 375 q 101 254 86 311 q 228 286 167 258 q 322 365 289 314 q 365 460 350 403 q 356 475 365 469 q 293 585 293 496 q 326 622 293 604 q 382 639 360 639 q 404 619 404 639 l 404 603 q 501 515 404 515 q 540 520 525 515 q 556 525 554 525 q 569 505 569 525 q 559 477 569 485 q 536 445 549 469 q 524 389 524 421 q 560 291 524 326 q 654 256 597 256 q 826 342 749 256 q 711 613 825 515 q 448 710 597 710 q 192 622 299 710 q 86 375 86 533 m 883 378 l 883 371 q 816 140 883 239 q 648 -7 749 40 q 432 -54 547 -54 q 144 51 264 -54 q 25 350 25 156 q 95 574 25 476 q 270 718 165 671 q 492 765 375 765 q 769 666 656 765 q 883 378 883 567 z "},"":{"ha":636,"x_min":3,"x_max":444,"o":"m 14 428 q 3 451 3 428 q 17 474 3 474 q 264 483 161 474 q 397 500 367 492 l 428 510 q 444 492 444 510 q 435 455 444 474 q 418 436 425 436 q 14 428 331 428 z "},"":{"ha":322,"x_min":101,"x_max":317,"o":"m 146 889 q 167 826 146 856 q 215 797 188 797 q 267 856 267 797 q 245 914 267 889 q 182 939 224 939 q 146 889 146 939 m 101 847 q 101 872 101 847 q 136 947 101 897 q 220 997 171 997 q 293 969 269 997 q 317 891 317 942 q 279 790 317 840 q 193 740 242 740 q 123 768 144 740 q 101 847 101 796 z "},"":{"ha":553,"x_min":61,"x_max":539,"o":"m 78 222 l 86 292 q 359 301 246 292 q 506 322 472 311 l 539 332 l 528 250 q 78 222 426 222 m 61 504 l 69 574 q 250 578 172 574 q 246 660 246 622 l 246 714 l 336 756 l 335 582 q 507 608 467 593 l 522 614 l 511 532 q 338 511 463 519 q 351 349 349 364 q 317 338 351 343 q 271 328 283 332 l 254 507 q 61 504 146 504 z "},"":{"ha":453,"x_min":61,"x_max":432,"o":"m 204 293 q 281 301 242 301 q 432 226 386 301 l 432 121 l 428 118 q 226 233 342 233 q 111 206 164 233 l 85 190 q 81 199 81 192 q 85 218 81 206 q 106 249 90 231 q 144 278 122 267 q 250 474 203 336 q 297 718 297 611 q 275 799 297 771 q 222 826 253 826 q 166 801 190 826 q 142 740 142 775 q 157 689 142 704 q 196 674 172 674 l 217 678 l 229 672 q 189 638 228 664 q 123 613 150 613 q 78 637 96 613 q 61 697 61 661 q 134 826 61 772 q 286 881 207 881 q 367 853 336 881 q 399 772 399 826 q 339 540 399 679 q 204 293 279 401 z "},"":{"ha":525,"x_min":78,"x_max":507,"o":"m 292 563 q 367 574 303 574 q 469 538 431 574 q 507 447 507 503 q 431 276 507 360 q 261 192 356 192 q 164 219 204 192 q 82 296 124 246 q 136 357 119 350 q 164 335 142 357 q 325 256 254 256 q 398 296 372 256 q 424 390 424 336 q 401 481 424 443 q 335 519 378 519 q 238 489 292 519 q 222 482 229 482 q 217 500 217 483 q 222 531 217 517 q 233 552 228 546 q 240 558 239 558 q 303 645 278 589 q 328 747 328 701 q 307 812 328 792 q 251 832 286 832 q 183 807 215 832 q 150 750 150 782 q 165 702 150 718 q 204 686 181 686 l 225 690 l 238 685 q 221 667 236 681 q 143 624 174 624 q 95 647 113 624 q 78 707 78 671 q 157 828 78 775 q 317 882 236 882 q 390 860 363 882 q 417 794 417 839 q 289 567 417 699 q 292 563 289 565 z "},"":{"ha":636,"x_min":196,"x_max":439,"o":"m 196 490 q 287 523 249 496 q 325 599 325 550 q 324 618 325 611 q 346 638 324 638 q 403 620 368 638 q 439 583 439 603 q 376 509 439 549 q 221 469 313 469 q 196 490 196 469 z "},"":{"ha":711,"x_min":1,"x_max":753,"o":"m 307 308 q 319 325 307 321 q 413 358 403 358 q 424 346 424 358 q 414 238 414 292 q 450 70 414 133 q 546 7 486 7 q 743 153 638 7 l 753 136 q 622 -9 692 40 q 486 -58 551 -58 q 335 46 386 -58 q 190 -35 281 -35 q 119 -10 149 -35 q 153 -165 131 -76 q 206 -396 206 -376 q 197 -419 206 -415 q 167 -436 189 -422 q 113 -467 119 -467 q 85 -416 90 -467 q 41 -131 81 -365 q 1 183 1 103 q 13 296 1 264 q 44 342 24 328 q 124 361 78 361 q 136 311 136 361 q 117 203 136 261 q 206 64 136 104 q 265 47 233 47 q 324 74 296 47 q 301 201 301 138 q 307 308 301 265 z "},"":{"ha":581,"x_min":-193,"x_max":479,"o":"m 400 -142 l 399 -92 q 235 997 374 944 q 224 1008 224 1001 q 273 1025 224 1015 q 340 1035 322 1035 q 479 -135 479 1035 q 413 -161 425 -161 q 400 -142 400 -161 m -6 882 q -76 835 -49 882 q -104 715 -104 788 q -60 583 -104 642 q 65 524 -15 524 q 206 572 144 524 q 71 936 156 903 q 61 946 61 940 q 110 975 61 956 q 175 994 160 994 q 251 896 218 994 q 303 636 285 797 q 340 -65 340 318 q 272 -92 283 -92 q 260 -72 260 -92 q 211 539 253 244 q -7 453 117 453 q -140 497 -87 453 q -193 633 -193 540 q -127 819 -193 726 q 38 913 -61 913 q 89 891 72 913 q 106 834 106 869 q 85 765 106 799 q 46 731 65 731 q 13 744 26 731 q -1 766 -1 757 q 17 792 -1 775 q 35 840 35 810 q -6 882 35 882 z "},"":{"ha":385,"x_min":117,"x_max":261,"o":"m 240 244 q 250 233 240 244 q 261 188 261 221 q 240 131 261 154 q 188 107 218 107 q 138 131 158 107 q 117 188 117 154 q 138 244 117 221 q 188 268 158 268 q 240 244 218 268 z "},"":{"ha":507,"x_min":165,"x_max":376,"o":"m 232 -239 q 245 -239 232 -239 q 273 -222 258 -239 q 288 -187 288 -204 q 264 -134 288 -169 q 240 -80 240 -99 q 254 -47 240 -61 l 290 -33 q 282 -60 282 -49 q 329 -124 282 -93 q 376 -180 376 -154 q 334 -233 376 -206 q 245 -260 292 -260 q 165 -240 199 -260 l 176 -231 q 232 -239 206 -239 z "},"":{"ha":404,"x_min":38,"x_max":361,"o":"m 171 754 q 78 728 136 728 q 38 739 38 728 l 44 744 q 124 787 90 756 q 171 842 158 818 q 183 871 183 865 q 197 875 183 874 q 265 883 250 878 q 267 880 267 883 q 263 847 267 876 q 249 649 249 753 q 260 471 249 544 q 286 356 271 397 q 343 249 317 271 l 354 239 l 361 233 q 344 221 361 229 q 282 188 290 194 q 274 185 282 185 q 263 189 267 185 q 192 358 214 243 q 171 568 171 472 l 174 746 q 172 754 174 753 l 171 754 z "},"":{"ha":533,"x_min":1,"x_max":379,"o":"m 332 754 q 351 856 351 793 q 335 953 351 918 q 299 989 319 989 q 272 969 283 989 q 261 915 261 950 q 281 833 261 879 q 332 754 300 788 m 185 971 q 188 993 185 979 q 104 826 104 935 q 137 723 104 765 q 221 681 169 681 q 308 718 272 681 q 219 823 254 754 q 185 971 185 892 m 199 1021 q 265 1056 221 1056 q 344 1005 308 1056 q 379 848 379 954 q 315 672 379 742 q 169 601 250 601 q 45 656 89 601 q 1 793 1 710 q 54 947 1 876 q 199 1021 107 1017 z "},"":{"ha":961,"x_min":-1,"x_max":954,"o":"m 372 -42 q 763 153 454 46 q 515 263 650 192 q 333 392 379 333 q 407 429 371 429 q 622 278 506 338 q 804 206 738 219 l 871 192 q 917 174 890 192 q 954 151 944 156 q 694 74 843 146 q 456 -68 546 3 q 441 -74 450 -74 q 422 -70 432 -74 q 403 -62 413 -67 q 372 -42 389 -56 m 38 -42 q 428 153 119 46 q 180 263 315 192 q -1 392 44 333 q 72 429 36 429 q 287 278 171 338 q 469 206 403 219 l 536 192 q 583 174 556 192 q 619 151 610 156 q 360 74 508 146 q 121 -68 211 3 q 106 -74 115 -74 q 88 -70 97 -74 q 69 -62 78 -67 q 38 -42 54 -56 z "},"":{"ha":1107,"x_min":38,"x_max":1099,"o":"m 171 754 q 78 728 136 728 q 38 739 38 728 l 44 744 q 124 787 90 756 q 171 842 158 818 q 183 871 183 865 q 197 875 183 874 q 265 883 250 878 q 267 880 267 883 q 263 847 267 876 q 249 649 249 753 q 260 471 249 544 q 286 356 271 397 q 343 249 317 271 l 354 239 l 361 233 q 344 221 361 229 q 282 188 290 194 q 274 185 282 185 q 263 189 267 185 q 192 358 214 243 q 171 568 171 472 l 174 746 q 172 754 174 753 l 171 754 m 271 -172 q 473 351 313 -89 q 676 842 633 790 q 764 894 707 875 q 756 857 769 889 q 628 568 656 653 q 392 -76 557 351 q 367 -121 383 -100 q 271 -172 351 -142 m 793 801 q 790 798 789 801 q 790 793 790 794 q 814 710 814 761 q 797 601 814 660 q 756 483 779 542 q 700 361 733 425 q 596 174 642 247 l 596 171 q 603 158 596 160 q 638 163 625 158 q 883 226 772 222 q 979 -25 904 44 q 991 -29 983 -29 q 1001 -26 999 -29 q 1025 -11 1004 -22 q 1083 21 1083 17 q 1076 28 1083 25 q 967 225 996 35 q 1094 147 1031 214 l 1099 153 q 963 261 1068 261 q 951 413 951 344 q 950 482 951 482 l 946 482 l 929 472 q 894 456 913 464 l 878 447 l 874 442 q 874 394 874 428 q 876 326 875 360 q 879 260 876 292 q 750 233 804 254 l 732 226 l 728 233 q 865 675 865 544 q 793 801 865 778 z "},"":{"ha":1125,"x_min":38,"x_max":1061,"o":"m 271 -172 q 473 351 313 -89 q 676 842 633 790 q 764 894 707 875 q 756 857 769 889 q 628 568 656 653 q 392 -76 557 351 q 367 -121 383 -100 q 271 -172 351 -142 m 833 125 q 968 372 908 233 q 1028 604 1028 511 q 997 685 1028 658 q 915 713 965 713 q 763 658 836 713 q 690 529 690 604 q 708 469 690 493 q 752 444 725 444 q 818 470 779 444 q 858 504 857 496 q 846 510 854 510 q 819 506 838 506 q 786 521 801 506 q 771 572 771 536 q 795 633 771 607 q 851 658 819 658 q 904 631 882 658 q 926 550 926 603 q 879 306 926 443 q 774 110 832 168 q 736 81 751 99 q 710 38 710 51 q 714 22 710 25 q 724 28 717 22 q 856 65 781 65 q 1057 -50 971 65 q 1061 -47 1060 -50 l 1061 58 q 910 133 1015 133 q 833 125 871 133 m 171 754 q 78 728 136 728 q 38 739 38 728 l 44 744 q 124 787 90 756 q 171 842 158 818 q 183 871 183 865 q 197 875 183 874 q 265 883 250 878 q 267 880 267 883 q 263 847 267 876 q 249 649 249 753 q 260 471 249 544 q 286 356 271 397 q 343 249 317 271 l 354 239 l 361 233 q 344 221 361 229 q 282 188 290 194 q 274 185 282 185 q 263 189 267 185 q 192 358 214 243 q 171 568 171 472 l 174 746 q 172 754 174 753 l 171 754 z "},"":{"ha":1156,"x_min":56,"x_max":1147,"o":"m 319 -172 q 522 351 361 -89 q 725 842 682 790 q 813 894 756 875 q 804 857 818 889 q 676 568 704 653 q 440 -76 606 351 q 416 -121 432 -100 q 319 -172 400 -142 m 842 801 q 838 798 838 801 q 839 793 839 794 q 861 707 861 761 q 644 174 861 526 l 644 171 q 651 158 644 160 q 686 163 674 158 q 932 226 821 222 q 1028 -25 953 44 q 1040 -29 1032 -29 q 1050 -26 1047 -29 q 1075 -11 1053 -22 q 1132 21 1132 17 q 1125 28 1132 25 q 1015 225 1044 35 q 1143 147 1079 214 l 1147 153 q 1011 261 1117 261 q 1000 413 1000 344 q 999 482 1000 482 l 994 482 l 978 472 q 944 456 961 464 l 926 447 l 922 442 q 923 394 922 428 q 924 326 924 360 q 928 260 925 292 q 799 233 853 254 l 781 226 l 776 233 q 914 675 914 544 q 842 801 914 778 m 485 447 q 447 538 485 503 q 344 574 408 574 q 269 563 281 574 q 267 567 267 565 q 394 794 394 699 q 367 860 394 839 q 294 882 340 882 q 135 828 214 882 q 56 707 56 775 q 73 647 56 671 q 113 624 90 624 q 160 638 136 624 q 199 667 183 653 q 215 685 214 681 q 203 690 211 690 q 176 686 194 686 q 143 702 158 686 q 128 750 128 718 q 160 807 128 782 q 228 832 193 832 q 285 812 264 832 q 306 747 306 792 q 281 645 306 701 q 218 558 256 589 q 211 552 217 558 q 200 531 206 546 q 194 500 194 517 q 200 482 194 483 q 215 489 207 482 q 312 519 268 519 q 378 481 356 519 q 401 390 401 443 q 376 296 401 336 q 303 256 350 256 q 142 335 232 256 q 114 356 119 357 q 69 310 100 353 l 60 296 q 142 219 101 246 q 239 192 182 192 q 409 276 333 192 q 485 447 485 360 z "},"":{"ha":353,"x_min":-17,"x_max":440,"o":"m 49 461 q 39 473 49 461 q 28 518 28 485 q 49 575 28 551 q 101 599 71 599 q 151 575 131 599 q 172 518 172 551 q 151 461 172 485 q 101 438 131 438 q 49 461 71 438 m 47 278 q 106 322 82 322 q 176 211 176 322 q 143 -30 176 149 q 110 -286 110 -208 q 228 -450 110 -450 q 330 -418 297 -450 q 363 -334 363 -386 q 328 -233 363 -282 q 249 -183 293 -185 q 231 -171 231 -183 q 259 -130 232 -153 q 318 -107 286 -107 q 409 -144 378 -107 q 440 -240 440 -181 q 360 -436 440 -343 q 156 -529 281 -529 q -17 -375 -17 -529 q 49 -93 -17 -292 q 115 175 115 106 q 61 264 115 244 q 46 272 46 267 q 47 278 46 276 z "},"":{"ha":1156,"x_min":4,"x_max":1133,"o":"m 656 739 l 654 729 q 682 686 656 686 q 807 753 753 686 q 861 890 861 821 q 821 997 861 958 q 696 1036 781 1036 q 467 974 572 1036 q 294 815 361 913 q 191 603 228 718 q 154 376 154 489 q 224 118 154 219 q 429 17 294 17 q 537 38 483 17 q 628 89 590 58 q 742 199 706 149 l 756 219 q 740 360 740 285 q 758 500 740 435 q 796 585 776 565 q 878 626 835 626 q 915 571 915 626 q 903 472 915 515 q 860 371 890 429 l 860 369 q 899 214 872 288 q 949 108 925 140 q 1068 29 1003 29 q 1101 34 1088 29 q 1124 39 1114 39 q 1133 32 1133 39 q 1086 -16 1133 14 q 984 -46 1039 -46 q 871 3 929 -46 q 778 142 813 51 l 761 193 q 689 111 736 158 q 596 31 642 64 q 479 -28 550 -1 q 336 -56 408 -56 q 87 33 169 -56 q 4 268 4 122 q 43 485 4 371 q 155 708 82 600 q 324 903 228 815 q 545 1044 419 992 q 801 1097 671 1097 q 975 976 975 1097 q 853 748 975 868 q 603 628 731 628 q 540 671 540 628 q 579 722 540 697 q 647 747 618 747 q 656 739 656 747 m 714 1160 q 689 1139 714 1142 q 534 1178 597 1139 q 471 1253 471 1218 q 506 1290 471 1272 q 564 1307 542 1307 q 586 1288 586 1307 q 585 1268 585 1281 q 623 1192 585 1219 q 714 1160 661 1165 z "},"":{"ha":1156,"x_min":4,"x_max":1133,"o":"m 654 729 l 656 739 q 647 747 656 747 q 579 722 618 747 q 540 671 540 697 q 603 628 540 628 q 853 748 731 628 q 975 976 975 868 q 801 1097 975 1097 q 545 1044 671 1097 q 324 903 419 992 q 155 708 228 815 q 43 485 82 600 q 4 268 4 371 q 87 33 4 122 q 336 -56 169 -56 q 478 -30 408 -56 q 597 32 547 -4 q 742 167 697 106 l 761 193 l 778 142 q 871 3 813 51 q 984 -46 929 -46 q 1086 -16 1039 -46 q 1133 32 1133 14 q 1124 39 1133 39 q 1101 34 1114 39 q 1068 29 1088 29 q 949 108 1003 29 q 899 214 925 140 q 860 369 872 288 l 860 371 q 903 472 890 429 q 915 571 915 515 q 878 626 915 626 q 796 585 835 626 q 758 500 776 565 q 740 360 740 435 q 756 219 740 285 q 538 39 672 94 q 429 17 483 17 q 224 118 294 17 q 154 376 154 219 q 191 603 154 489 q 294 815 228 718 q 467 974 361 913 q 696 1036 572 1036 q 821 997 781 1036 q 861 890 861 958 q 807 753 861 821 q 682 686 753 686 q 654 729 656 686 m 461 1129 q 552 1162 514 1135 q 590 1238 590 1189 q 589 1257 590 1250 q 611 1276 589 1276 q 669 1259 633 1276 q 704 1222 704 1242 q 641 1148 704 1188 q 486 1108 578 1108 q 461 1129 461 1108 z "},"":{"ha":1156,"x_min":4,"x_max":1133,"o":"m 656 739 l 654 729 q 682 686 656 686 q 807 753 753 686 q 861 890 861 821 q 821 997 861 958 q 696 1036 781 1036 q 467 974 572 1036 q 294 815 361 913 q 191 603 228 718 q 154 376 154 489 q 224 118 154 219 q 429 17 294 17 q 537 38 483 17 q 628 89 590 58 q 742 199 706 149 l 756 219 q 740 360 740 285 q 758 500 740 435 q 796 585 776 565 q 878 626 835 626 q 915 571 915 626 q 903 472 915 515 q 860 371 890 429 l 860 369 q 899 214 872 288 q 949 108 925 140 q 1068 29 1003 29 q 1101 34 1088 29 q 1124 39 1114 39 q 1133 32 1133 39 q 1086 -16 1133 14 q 984 -46 1039 -46 q 871 3 929 -46 q 778 142 813 51 l 761 193 q 689 111 736 158 q 596 31 642 64 q 479 -28 550 -1 q 336 -56 408 -56 q 87 33 169 -56 q 4 268 4 122 q 43 485 4 371 q 155 708 82 600 q 324 903 228 815 q 545 1044 419 992 q 801 1097 671 1097 q 975 976 975 1097 q 853 748 975 868 q 603 628 731 628 q 540 671 540 628 q 579 722 540 697 q 647 747 618 747 q 656 739 656 747 m 760 1157 q 735 1136 760 1139 q 613 1158 665 1136 q 535 1213 560 1181 q 517 1190 532 1210 q 428 1103 479 1146 q 406 1093 417 1093 q 394 1101 394 1093 q 469 1171 453 1147 l 492 1206 q 507 1231 499 1214 l 517 1250 q 552 1287 517 1269 q 610 1304 588 1304 q 632 1285 632 1304 q 631 1265 631 1278 q 669 1190 631 1217 q 760 1157 707 1163 z "},"":{"ha":1156,"x_min":4,"x_max":1133,"o":"m 656 739 l 654 729 q 682 686 656 686 q 807 753 753 686 q 861 890 861 821 q 821 997 861 958 q 696 1036 781 1036 q 467 974 572 1036 q 294 815 361 913 q 191 603 228 718 q 154 376 154 489 q 224 118 154 219 q 429 17 294 17 q 537 38 483 17 q 628 89 590 58 q 742 199 706 149 l 756 219 q 740 360 740 285 q 758 500 740 435 q 796 585 776 565 q 878 626 835 626 q 915 571 915 626 q 903 472 915 515 q 860 371 890 429 l 860 369 q 899 214 872 288 q 949 108 925 140 q 1068 29 1003 29 q 1101 34 1088 29 q 1124 39 1114 39 q 1133 32 1133 39 q 1086 -16 1133 14 q 984 -46 1039 -46 q 871 3 929 -46 q 778 142 813 51 l 761 193 q 689 111 736 158 q 596 31 642 64 q 479 -28 550 -1 q 336 -56 408 -56 q 87 33 169 -56 q 4 268 4 122 q 43 485 4 371 q 155 708 82 600 q 324 903 228 815 q 545 1044 419 992 q 801 1097 671 1097 q 975 976 975 1097 q 853 748 975 868 q 603 628 731 628 q 540 671 540 628 q 579 722 540 697 q 647 747 618 747 q 656 739 656 747 m 554 1228 l 672 1214 q 768 1275 713 1214 q 779 1258 779 1275 q 730 1177 779 1225 q 624 1129 681 1129 q 564 1141 607 1129 q 507 1153 521 1153 q 440 1104 460 1153 q 425 1119 425 1104 q 469 1198 425 1168 q 554 1228 513 1228 z "},"":{"ha":1156,"x_min":4,"x_max":1133,"o":"m 656 739 l 654 729 q 682 686 656 686 q 807 753 753 686 q 861 890 861 821 q 821 997 861 958 q 696 1036 781 1036 q 467 974 572 1036 q 294 815 361 913 q 191 603 228 718 q 154 376 154 489 q 224 118 154 219 q 429 17 294 17 q 537 38 483 17 q 628 89 590 58 q 742 199 706 149 l 756 219 q 740 360 740 285 q 758 500 740 435 q 796 585 776 565 q 878 626 835 626 q 915 571 915 626 q 903 472 915 515 q 860 371 890 429 l 860 369 q 899 214 872 288 q 949 108 925 140 q 1068 29 1003 29 q 1101 34 1088 29 q 1124 39 1114 39 q 1133 32 1133 39 q 1086 -16 1133 14 q 984 -46 1039 -46 q 871 3 929 -46 q 778 142 813 51 l 761 193 q 689 111 736 158 q 596 31 642 64 q 479 -28 550 -1 q 336 -56 408 -56 q 87 33 169 -56 q 4 268 4 122 q 43 485 4 371 q 155 708 82 600 q 324 903 228 815 q 545 1044 419 992 q 801 1097 671 1097 q 975 976 975 1097 q 853 748 975 868 q 603 628 731 628 q 540 671 540 628 q 579 722 540 697 q 647 747 618 747 q 656 739 656 747 m 748 1258 q 759 1247 748 1258 q 769 1201 769 1235 q 748 1144 769 1168 q 697 1121 726 1121 q 646 1144 667 1121 q 625 1201 625 1168 q 646 1258 625 1235 q 697 1282 667 1282 q 748 1258 726 1282 m 520 1258 q 531 1247 520 1258 q 542 1201 542 1235 q 520 1144 542 1168 q 469 1121 499 1121 q 418 1144 439 1121 q 397 1201 397 1168 q 418 1258 397 1235 q 469 1282 439 1282 q 520 1258 499 1282 z "},"":{"ha":1156,"x_min":4,"x_max":1133,"o":"m 656 739 l 654 729 q 682 686 656 686 q 807 753 753 686 q 861 890 861 821 q 821 997 861 958 q 696 1036 781 1036 q 467 974 572 1036 q 294 815 361 913 q 191 603 228 718 q 154 376 154 489 q 224 118 154 219 q 429 17 294 17 q 537 38 483 17 q 628 89 590 58 q 742 199 706 149 l 756 219 q 740 360 740 285 q 758 500 740 435 q 796 585 776 565 q 878 626 835 626 q 915 571 915 626 q 903 472 915 515 q 860 371 890 429 l 860 369 q 899 214 872 288 q 949 108 925 140 q 1068 29 1003 29 q 1101 34 1088 29 q 1124 39 1114 39 q 1133 32 1133 39 q 1086 -16 1133 14 q 984 -46 1039 -46 q 871 3 929 -46 q 778 142 813 51 l 761 193 q 689 111 736 158 q 596 31 642 64 q 479 -28 550 -1 q 336 -56 408 -56 q 87 33 169 -56 q 4 268 4 122 q 43 485 4 371 q 155 708 82 600 q 324 903 228 815 q 545 1044 419 992 q 801 1097 671 1097 q 975 976 975 1097 q 853 748 975 868 q 603 628 731 628 q 540 671 540 628 q 579 722 540 697 q 647 747 618 747 q 656 739 656 747 m 501 1203 q 518 1160 501 1179 q 558 1142 535 1142 q 601 1181 601 1142 q 583 1219 601 1203 q 531 1236 564 1236 q 501 1203 501 1236 m 463 1172 q 463 1191 463 1172 q 491 1247 463 1210 q 560 1285 519 1285 q 622 1264 601 1285 q 642 1206 642 1243 q 611 1131 642 1168 q 540 1094 581 1094 q 481 1115 499 1094 q 463 1172 463 1135 z "},"":{"ha":1390,"x_min":4,"x_max":1611,"o":"m 429 17 q 584 74 497 17 q 725 186 671 131 q 831 304 779 242 q 925 406 864 358 q 1065 501 986 453 q 1179 578 1144 550 q 1188 592 1188 586 q 1175 597 1188 597 q 1046 582 1163 597 q 885 567 929 567 q 667 699 667 567 q 843 967 667 832 q 688 1036 804 1036 q 467 975 572 1036 q 294 817 361 914 q 191 607 228 721 q 154 381 154 493 q 224 122 154 225 q 429 17 294 19 m 1169 17 q 1308 51 1240 17 q 1422 153 1375 85 l 1432 136 q 1278 -4 1382 46 q 1064 -54 1175 -54 q 872 3 953 -54 q 790 165 790 60 q 801 240 790 203 q 649 83 735 156 q 327 -56 485 -56 q 87 33 169 -56 q 4 268 4 122 q 43 485 4 371 q 155 708 82 600 q 324 903 228 815 q 545 1044 419 992 q 792 1097 671 1097 q 956 1042 914 1097 q 1204 1165 1065 1107 q 1433 1249 1343 1222 q 1546 1276 1522 1276 q 1590 1259 1569 1276 q 1611 1219 1611 1242 q 1559 1150 1611 1181 q 1456 1108 1507 1119 l 1403 1097 q 1389 1107 1389 1097 q 1404 1132 1389 1117 q 1419 1150 1419 1147 q 1406 1153 1419 1153 q 1285 1118 1392 1153 q 1055 1033 1179 1083 q 833 913 931 982 q 736 788 736 844 q 901 707 736 707 q 1081 715 971 707 q 1233 722 1192 722 q 1307 667 1307 722 q 1274 615 1307 644 q 1174 542 1242 586 q 1060 465 1107 499 q 974 371 1014 431 q 935 242 935 311 q 1169 17 935 17 z "},"":{"ha":850,"x_min":-14,"x_max":892,"o":"m 363 742 l 358 714 q 394 686 358 686 q 524 767 464 686 q 585 933 585 847 q 492 1067 585 1067 q 303 977 388 1067 q 176 753 219 888 q 133 476 133 618 q 171 224 133 335 q 297 40 208 114 q 500 -33 385 -33 q 882 153 725 -33 l 892 136 q 742 -8 836 47 q 538 -81 649 -64 q 587 -139 542 -110 q 632 -194 632 -168 q 590 -247 632 -219 q 501 -274 547 -274 q 421 -254 454 -274 l 432 -244 q 488 -253 461 -253 q 528 -235 514 -253 q 543 -201 543 -218 q 519 -149 543 -183 q 496 -93 496 -114 l 496 -86 q 454 -87 482 -87 q 102 41 218 -87 q -14 368 -14 169 q 33 632 -14 497 q 157 876 79 767 q 347 1055 235 985 q 578 1125 458 1125 q 668 1095 635 1125 q 701 998 701 1065 q 638 839 701 931 q 481 683 575 747 q 306 618 386 618 q 257 639 265 618 q 250 677 250 657 q 288 726 250 697 q 344 756 325 756 q 363 742 363 756 z "},"":{"ha":625,"x_min":-99,"x_max":846,"o":"m 404 17 q 542 51 475 17 q 657 153 610 85 l 667 136 q 513 -4 617 46 q 299 -54 410 -54 q 106 3 188 -54 q 25 165 25 60 q 122 374 25 286 q 215 446 169 415 q 322 514 261 476 q 422 592 422 576 q 410 597 422 597 q 281 582 397 597 q 119 567 164 567 q -99 700 -99 567 q -13 884 -99 792 q 194 1044 72 976 q 444 1167 315 1113 q 665 1249 574 1221 q 781 1276 757 1276 q 825 1259 804 1276 q 846 1219 846 1242 q 794 1150 846 1181 q 689 1108 742 1119 l 638 1097 q 624 1107 624 1097 q 639 1132 624 1117 q 654 1150 654 1147 q 640 1153 654 1153 q 520 1118 626 1153 q 290 1033 414 1083 q 68 913 165 982 q -29 788 -29 844 q 136 707 -29 707 q 316 715 206 707 q 468 722 426 722 q 542 667 542 722 q 509 615 542 644 q 409 542 476 586 q 295 465 342 499 q 209 371 249 431 q 169 242 169 311 q 404 17 169 17 m 435 1224 q 410 1203 435 1206 q 255 1242 318 1203 q 192 1317 192 1282 q 227 1353 192 1336 q 285 1371 263 1371 q 307 1351 307 1371 q 306 1332 306 1344 q 344 1256 306 1283 q 435 1224 382 1229 z "},"":{"ha":625,"x_min":-99,"x_max":846,"o":"m 404 17 q 542 51 475 17 q 657 153 610 85 l 667 136 q 513 -4 617 46 q 299 -54 410 -54 q 106 3 188 -54 q 25 165 25 60 q 122 374 25 286 q 215 446 169 415 q 322 514 261 476 q 422 592 422 576 q 410 597 422 597 q 281 582 397 597 q 119 567 164 567 q -99 700 -99 567 q -13 884 -99 792 q 194 1044 72 976 q 444 1167 315 1113 q 665 1249 574 1221 q 781 1276 757 1276 q 825 1259 804 1276 q 846 1219 846 1242 q 794 1150 846 1181 q 689 1108 742 1119 l 638 1097 q 624 1107 624 1097 q 639 1132 624 1117 q 654 1150 654 1147 q 640 1153 654 1153 q 520 1118 626 1153 q 290 1033 414 1083 q 68 913 165 982 q -29 788 -29 844 q 136 707 -29 707 q 316 715 206 707 q 468 722 426 722 q 542 667 542 722 q 509 615 542 644 q 409 542 476 586 q 295 465 342 499 q 209 371 249 431 q 169 242 169 311 q 404 17 169 17 m 188 1204 q 278 1237 240 1210 q 317 1313 317 1264 q 315 1332 317 1325 q 338 1351 315 1351 q 395 1334 360 1351 q 431 1297 431 1317 q 367 1223 431 1263 q 213 1183 304 1183 q 188 1204 188 1183 z "},"":{"ha":625,"x_min":-99,"x_max":846,"o":"m 404 17 q 542 51 475 17 q 657 153 610 85 l 667 136 q 513 -4 617 46 q 299 -54 410 -54 q 106 3 188 -54 q 25 165 25 60 q 122 374 25 286 q 215 446 169 415 q 322 514 261 476 q 422 592 422 576 q 410 597 422 597 q 281 582 397 597 q 119 567 164 567 q -99 700 -99 567 q -13 884 -99 792 q 194 1044 72 976 q 444 1167 315 1113 q 665 1249 574 1221 q 781 1276 757 1276 q 825 1259 804 1276 q 846 1219 846 1242 q 794 1150 846 1181 q 689 1108 742 1119 l 638 1097 q 624 1107 624 1097 q 639 1132 624 1117 q 654 1150 654 1147 q 640 1153 654 1153 q 520 1118 626 1153 q 290 1033 414 1083 q 68 913 165 982 q -29 788 -29 844 q 136 707 -29 707 q 316 715 206 707 q 468 722 426 722 q 542 667 542 722 q 509 615 542 644 q 409 542 476 586 q 295 465 342 499 q 209 371 249 431 q 169 242 169 311 q 404 17 169 17 m 494 1263 q 469 1242 494 1244 q 347 1264 400 1242 q 269 1318 294 1286 q 250 1296 267 1315 q 163 1208 214 1251 q 140 1199 151 1199 q 129 1207 129 1199 q 204 1276 188 1253 l 228 1311 q 242 1336 233 1319 l 251 1356 q 287 1392 251 1375 q 344 1410 322 1410 q 367 1390 367 1410 q 365 1371 365 1383 q 403 1295 365 1322 q 494 1263 442 1268 z "},"":{"ha":625,"x_min":-99,"x_max":846,"o":"m 404 17 q 542 51 475 17 q 657 153 610 85 l 667 136 q 513 -4 617 46 q 299 -54 410 -54 q 106 3 188 -54 q 25 165 25 60 q 122 374 25 286 q 215 446 169 415 q 322 514 261 476 q 422 592 422 576 q 410 597 422 597 q 281 582 397 597 q 119 567 164 567 q -99 700 -99 567 q -13 884 -99 792 q 194 1044 72 976 q 444 1167 315 1113 q 665 1249 574 1221 q 781 1276 757 1276 q 825 1259 804 1276 q 846 1219 846 1242 q 794 1150 846 1181 q 689 1108 742 1119 l 638 1097 q 624 1107 624 1097 q 639 1132 624 1117 q 654 1150 654 1147 q 640 1153 654 1153 q 520 1118 626 1153 q 290 1033 414 1083 q 68 913 165 982 q -29 788 -29 844 q 136 707 -29 707 q 316 715 206 707 q 468 722 426 722 q 542 667 542 722 q 509 615 542 644 q 409 542 476 586 q 295 465 342 499 q 209 371 249 431 q 169 242 169 311 q 404 17 169 17 m 477 1346 q 488 1334 477 1346 q 499 1289 499 1322 q 477 1232 499 1256 q 426 1208 456 1208 q 375 1232 396 1208 q 354 1289 354 1256 q 375 1346 354 1322 q 426 1369 396 1369 q 477 1346 456 1369 m 249 1346 q 260 1334 249 1346 q 271 1289 271 1322 q 249 1232 271 1256 q 198 1208 228 1208 q 147 1232 168 1208 q 126 1289 126 1256 q 147 1346 126 1322 q 198 1369 168 1369 q 249 1346 228 1369 z "},"":{"ha":626,"x_min":-133,"x_max":629,"o":"m 50 1019 q -46 818 -46 1019 q 28 531 -46 667 q 231 333 101 396 q 186 815 213 689 q 50 1019 143 1018 m 619 332 q 629 319 629 332 q 593 276 629 307 q 495 214 557 244 q 368 179 433 183 q 406 46 382 83 q 429 3 429 8 q 420 -9 429 -3 q 385 -28 411 -15 q 314 -58 321 -58 q 275 -14 297 -58 q 239 194 253 31 q -24 376 86 239 q -133 692 -133 514 q -71 958 -133 839 q 19 1057 -39 1019 q 151 1094 76 1094 q 272 990 233 1094 q 324 770 314 882 q 339 594 335 658 q 347 438 343 531 q 356 296 351 346 q 442 292 385 292 q 536 299 500 292 q 594 319 572 306 q 619 332 615 332 m 244 1167 q 219 1146 244 1149 q 65 1185 128 1146 q 1 1260 1 1225 q 37 1297 1 1279 q 94 1314 72 1314 q 117 1294 117 1314 q 115 1275 115 1288 q 153 1199 115 1226 q 244 1167 192 1172 z "},"":{"ha":626,"x_min":-133,"x_max":629,"o":"m 50 1019 q -46 818 -46 1019 q 28 531 -46 667 q 231 333 101 396 q 186 815 213 689 q 50 1019 143 1018 m 619 332 q 629 319 629 332 q 593 276 629 307 q 495 214 557 244 q 368 179 433 183 q 406 46 382 83 q 429 3 429 8 q 420 -9 429 -3 q 385 -28 411 -15 q 314 -58 321 -58 q 275 -14 297 -58 q 239 194 253 31 q -24 376 86 239 q -133 692 -133 514 q -71 958 -133 839 q 19 1057 -39 1019 q 151 1094 76 1094 q 272 990 233 1094 q 324 770 314 882 q 339 594 335 658 q 347 438 343 531 q 356 296 351 346 q 442 292 385 292 q 536 299 500 292 q 594 319 572 306 q 619 332 615 332 m 38 1178 q 128 1210 90 1183 q 167 1286 167 1238 q 165 1306 167 1299 q 188 1325 165 1325 q 245 1308 210 1325 q 281 1271 281 1290 q 217 1197 281 1236 q 63 1157 154 1157 q 38 1178 38 1157 z "},"":{"ha":626,"x_min":-133,"x_max":629,"o":"m 50 1019 q -46 818 -46 1019 q 28 531 -46 667 q 231 333 101 396 q 186 815 213 689 q 50 1019 143 1018 m 619 332 q 629 319 629 332 q 593 276 629 307 q 495 214 557 244 q 368 179 433 183 q 406 46 382 83 q 429 3 429 8 q 420 -9 429 -3 q 385 -28 411 -15 q 314 -58 321 -58 q 275 -14 297 -58 q 239 194 253 31 q -24 376 86 239 q -133 692 -133 514 q -71 958 -133 839 q 19 1057 -39 1019 q 151 1094 76 1094 q 272 990 233 1094 q 324 770 314 882 q 339 594 335 658 q 347 438 343 531 q 356 296 351 346 q 442 292 385 292 q 536 299 500 292 q 594 319 572 306 q 619 332 615 332 m 297 1176 q 272 1156 297 1158 q 150 1178 203 1156 q 72 1232 97 1200 q 53 1210 69 1229 q -35 1122 17 1165 q -57 1113 -46 1113 q -68 1121 -68 1113 q 7 1190 -10 1167 l 31 1225 q 44 1250 36 1233 l 54 1269 q 90 1306 54 1289 q 147 1324 125 1324 q 169 1304 169 1324 q 168 1285 168 1297 q 206 1209 168 1236 q 297 1176 244 1182 z "},"":{"ha":626,"x_min":-133,"x_max":629,"o":"m 50 1019 q -46 818 -46 1019 q 28 531 -46 667 q 231 333 101 396 q 186 815 213 689 q 50 1019 143 1018 m 619 332 q 629 319 629 332 q 593 276 629 307 q 495 214 557 244 q 368 179 433 183 q 406 46 382 83 q 429 3 429 8 q 420 -9 429 -3 q 385 -28 411 -15 q 314 -58 321 -58 q 275 -14 297 -58 q 239 194 253 31 q -24 376 86 239 q -133 692 -133 514 q -71 958 -133 839 q 19 1057 -39 1019 q 151 1094 76 1094 q 272 990 233 1094 q 324 770 314 882 q 339 594 335 658 q 347 438 343 531 q 356 296 351 346 q 442 292 385 292 q 536 299 500 292 q 594 319 572 306 q 619 332 615 332 m 294 1279 q 305 1267 294 1279 q 315 1222 315 1256 q 294 1165 315 1189 q 242 1142 272 1142 q 192 1165 213 1142 q 171 1222 171 1189 q 192 1279 171 1256 q 242 1303 213 1303 q 294 1279 272 1303 m 66 1279 q 77 1267 66 1279 q 88 1222 88 1256 q 66 1165 88 1189 q 15 1142 44 1142 q -36 1165 -15 1142 q -57 1222 -57 1189 q -36 1279 -57 1256 q 15 1303 -15 1303 q 66 1279 44 1303 z "},"":{"ha":1186,"x_min":-146,"x_max":1144,"o":"m 54 146 l 53 146 q 199 -75 107 31 q 318 -172 250 -135 q 458 -208 386 -208 q 536 -114 536 -201 q 526 -31 536 -79 q 54 146 257 -7 m 667 394 l 657 321 q 550 306 628 313 q 626 39 614 118 q 722 32 679 32 q 984 94 900 32 q 1068 266 1068 156 q 978 524 1068 376 q 753 797 888 671 q 446 1009 618 922 q 126 1096 274 1096 q 19 1078 67 1096 q -68 968 -68 1046 q 325 632 -68 774 q 324 674 324 646 q 328 726 324 701 q 468 890 350 821 q 479 893 476 893 q 482 889 482 893 q 474 872 482 885 q 449 769 449 844 q 471 586 449 693 q 826 513 657 533 q 833 504 833 511 q 820 488 833 497 q 772 469 807 478 q 674 460 738 460 q 499 476 610 460 q 531 369 511 432 q 667 394 619 378 m 497 67 l 406 299 q 247 296 314 296 l 256 358 q 382 360 343 358 q 340 508 356 435 q 106 589 210 542 q -72 713 3 636 q -146 881 -146 790 q -35 1074 -146 988 q 219 1160 75 1160 q 506 1108 364 1160 q 760 972 647 1057 q 961 781 874 886 q 1097 561 1049 676 q 1144 342 1144 446 q 1019 74 1144 176 q 631 -35 893 -29 q 567 -171 624 -107 q 446 -235 510 -235 q 251 -151 363 -235 q 47 49 139 -68 q -87 272 -46 167 q -92 286 -92 281 l -85 296 q -21 365 -40 365 q 28 328 -8 365 q 202 203 65 292 q 497 67 339 115 z "},"":{"ha":1032,"x_min":-121,"x_max":1036,"o":"m 989 10 l 1019 11 q 1036 -3 1036 11 q 978 -40 1036 -18 q 876 -62 921 -62 q 701 6 778 -62 q 583 176 625 75 q 514 411 540 278 q 469 869 469 628 q 228 -36 361 499 q 143 -62 158 -62 q 128 -43 128 -62 q -11 847 100 590 q -108 965 -54 949 q -121 975 -121 969 q -60 1003 -121 983 q 19 1024 1 1024 q 161 778 119 979 q 231 119 203 578 q 235 114 231 114 l 238 115 l 443 906 q 510 936 464 906 q 574 967 557 967 q 590 954 590 967 q 675 325 590 601 q 799 96 718 182 q 989 10 879 10 m 218 1188 l 336 1174 q 432 1235 376 1174 q 443 1218 443 1235 q 394 1137 443 1185 q 288 1089 344 1089 q 228 1101 271 1089 q 171 1113 185 1113 q 104 1064 124 1113 q 89 1079 89 1064 q 133 1158 89 1128 q 218 1188 176 1188 z "},"":{"ha":985,"x_min":-11,"x_max":1024,"o":"m 410 1039 q 191 815 272 971 q 110 488 110 660 q 208 164 110 301 q 340 57 257 97 q 535 17 424 17 q 738 93 647 17 q 871 284 828 169 q 914 526 914 399 q 823 836 914 708 q 561 964 732 964 q 297 721 364 964 q 283 708 294 708 q 275 724 275 708 q 326 859 275 783 q 471 992 378 935 q 665 1050 564 1050 q 933 938 843 1050 q 1024 654 1024 826 q 980 408 1024 533 q 860 178 936 283 q 666 7 783 74 q 415 -60 549 -60 q 101 72 214 -60 q -11 399 -11 204 q 98 778 -11 594 q 411 1069 207 963 l 414 1069 q 419 1057 419 1069 q 410 1039 419 1044 m 588 1157 q 563 1136 588 1139 q 408 1176 471 1136 q 344 1250 344 1215 q 380 1287 344 1269 q 438 1304 415 1304 q 460 1285 460 1304 q 458 1265 458 1278 q 497 1190 458 1217 q 588 1157 535 1163 z "},"":{"ha":985,"x_min":-11,"x_max":1024,"o":"m 410 1039 q 191 815 272 971 q 110 488 110 660 q 208 164 110 301 q 340 57 257 97 q 535 17 424 17 q 738 93 647 17 q 871 284 828 169 q 914 526 914 399 q 823 836 914 708 q 561 964 732 964 q 297 721 364 964 q 283 708 294 708 q 275 724 275 708 q 326 859 275 783 q 471 992 378 935 q 665 1050 564 1050 q 933 938 843 1050 q 1024 654 1024 826 q 980 408 1024 533 q 860 178 936 283 q 666 7 783 74 q 415 -60 549 -60 q 101 72 214 -60 q -11 399 -11 204 q 98 778 -11 594 q 411 1069 207 963 l 414 1069 q 419 1057 419 1069 q 410 1039 419 1044 m 368 1158 q 459 1191 421 1164 q 497 1267 497 1218 q 496 1286 497 1279 q 518 1306 496 1306 q 576 1288 540 1306 q 611 1251 611 1271 q 548 1177 611 1217 q 393 1138 485 1138 q 368 1158 368 1138 z "},"":{"ha":985,"x_min":-11,"x_max":1024,"o":"m 410 1039 q 191 815 272 971 q 110 488 110 660 q 208 164 110 301 q 340 57 257 97 q 535 17 424 17 q 738 93 647 17 q 871 284 828 169 q 914 526 914 399 q 823 836 914 708 q 561 964 732 964 q 297 721 364 964 q 283 708 294 708 q 275 724 275 708 q 326 859 275 783 q 471 992 378 935 q 665 1050 564 1050 q 933 938 843 1050 q 1024 654 1024 826 q 980 408 1024 533 q 860 178 936 283 q 666 7 783 74 q 415 -60 549 -60 q 101 72 214 -60 q -11 399 -11 204 q 98 778 -11 594 q 411 1069 207 963 l 414 1069 q 419 1057 419 1069 q 410 1039 419 1044 m 675 1163 q 650 1142 675 1144 q 528 1164 581 1142 q 450 1218 475 1186 q 432 1196 447 1215 q 343 1108 394 1151 q 321 1099 332 1099 q 310 1107 310 1099 q 385 1176 368 1153 l 407 1211 q 422 1236 414 1219 l 432 1256 q 467 1292 432 1275 q 525 1310 503 1310 q 547 1290 547 1310 q 546 1271 546 1283 q 584 1195 546 1222 q 675 1163 622 1168 z "},"":{"ha":985,"x_min":-11,"x_max":1024,"o":"m 410 1039 q 191 815 272 971 q 110 488 110 660 q 208 164 110 301 q 340 57 257 97 q 535 17 424 17 q 738 93 647 17 q 871 284 828 169 q 914 526 914 399 q 823 836 914 708 q 561 964 732 964 q 297 721 364 964 q 283 708 294 708 q 275 724 275 708 q 326 859 275 783 q 471 992 378 935 q 665 1050 564 1050 q 933 938 843 1050 q 1024 654 1024 826 q 980 408 1024 533 q 860 178 936 283 q 666 7 783 74 q 415 -60 549 -60 q 101 72 214 -60 q -11 399 -11 204 q 98 778 -11 594 q 411 1069 207 963 l 414 1069 q 419 1057 419 1069 q 410 1039 419 1044 m 411 1226 l 529 1213 q 625 1274 569 1213 q 636 1257 636 1274 q 587 1176 636 1224 q 481 1128 538 1128 q 421 1140 464 1128 q 364 1151 378 1151 q 297 1103 317 1151 q 282 1118 282 1103 q 326 1197 282 1167 q 411 1226 369 1226 z "},"":{"ha":985,"x_min":-11,"x_max":1024,"o":"m 410 1039 q 191 815 272 971 q 110 488 110 660 q 208 164 110 301 q 340 57 257 97 q 535 17 424 17 q 738 93 647 17 q 871 284 828 169 q 914 526 914 399 q 823 836 914 708 q 561 964 732 964 q 297 721 364 964 q 283 708 294 708 q 275 724 275 708 q 326 859 275 783 q 471 992 378 935 q 665 1050 564 1050 q 933 938 843 1050 q 1024 654 1024 826 q 980 408 1024 533 q 860 178 936 283 q 666 7 783 74 q 415 -60 549 -60 q 101 72 214 -60 q -11 399 -11 204 q 98 778 -11 594 q 411 1069 207 963 l 414 1069 q 419 1057 419 1069 q 410 1039 419 1044 m 656 1254 q 667 1242 656 1254 q 678 1197 678 1231 q 656 1140 678 1164 q 605 1117 635 1117 q 554 1140 575 1117 q 533 1197 533 1164 q 554 1254 533 1231 q 605 1278 575 1278 q 656 1254 635 1278 m 428 1254 q 439 1242 428 1254 q 450 1197 450 1231 q 428 1140 450 1164 q 377 1117 407 1117 q 326 1140 347 1117 q 306 1197 306 1164 q 326 1254 306 1231 q 377 1278 347 1278 q 428 1254 407 1278 z "},"":{"ha":553,"x_min":125,"x_max":506,"o":"m 468 310 l 322 433 l 163 278 q 125 357 125 332 q 180 410 125 360 q 265 490 235 461 q 150 606 182 568 l 140 618 l 200 713 q 319 536 240 638 l 465 693 q 483 663 467 693 q 501 628 500 632 q 388 504 483 606 l 372 488 q 506 368 411 450 l 468 310 z "},"":{"ha":985,"x_min":-11,"x_max":1024,"o":"m 382 39 q 529 17 451 17 q 738 93 647 17 q 871 284 828 169 q 914 524 914 399 q 869 754 914 650 q 740 914 825 858 q 382 39 635 683 m 410 1039 q 191 815 272 971 q 110 488 110 660 q 162 241 110 354 q 318 68 214 128 q 672 946 558 681 q 561 964 618 964 q 297 721 364 964 q 283 708 294 708 q 275 724 275 708 q 326 859 275 783 q 471 992 378 935 q 665 1050 564 1050 q 717 1047 683 1050 q 764 1138 751 1122 q 863 1190 789 1165 q 854 1153 868 1185 l 794 1029 q 966 891 908 992 q 1024 662 1024 790 q 980 408 1024 533 q 860 178 936 283 q 666 7 783 74 q 415 -60 549 -60 q 346 -54 390 -60 q 319 -114 335 -92 q 217 -172 297 -142 q 275 -39 275 -65 q 63 123 138 3 q -11 401 -11 243 q 98 778 -11 594 q 411 1069 207 963 l 414 1069 q 419 1057 419 1069 q 410 1039 419 1044 z "},"":{"ha":1083,"x_min":-99,"x_max":1060,"o":"m 742 550 l 739 468 q 792 317 739 425 q 917 115 844 210 q 1033 21 989 21 q 1051 24 1035 21 q 1060 13 1060 24 q 1011 -32 1060 -4 q 938 -60 963 -60 q 822 16 896 -60 q 694 218 747 92 q 401 -40 572 -40 q 250 5 315 -40 q 147 123 185 50 q 83 290 110 196 q 46 481 57 383 q 22 672 35 579 l 0 839 q -85 1003 -22 1003 q -99 1011 -99 1003 q -80 1031 -99 1019 q -19 1058 -61 1043 q 44 1074 24 1074 q 102 997 79 1074 q 135 807 125 921 q 168 559 146 693 q 220 311 190 425 q 316 121 250 197 q 475 44 382 44 q 597 104 540 44 q 674 261 653 164 q 647 334 668 258 q 606 520 625 410 q 586 706 586 631 l 589 778 q 617 799 589 786 q 657 813 644 813 q 717 747 693 813 q 742 550 742 681 m 486 1051 q 461 1031 486 1033 q 306 1070 369 1031 q 243 1144 243 1110 q 278 1181 243 1164 q 336 1199 314 1199 q 358 1179 358 1199 q 357 1160 357 1172 q 395 1084 357 1111 q 486 1051 433 1057 z "},"":{"ha":1083,"x_min":-99,"x_max":1060,"o":"m 742 550 l 739 468 q 792 317 739 425 q 917 115 844 210 q 1033 21 989 21 q 1051 24 1035 21 q 1060 13 1060 24 q 1011 -32 1060 -4 q 938 -60 963 -60 q 822 16 896 -60 q 694 218 747 92 q 401 -40 572 -40 q 250 5 315 -40 q 147 123 185 50 q 83 290 110 196 q 46 481 57 383 q 22 672 35 579 l 0 839 q -85 1003 -22 1003 q -99 1011 -99 1003 q -80 1031 -99 1019 q -19 1058 -61 1043 q 44 1074 24 1074 q 102 997 79 1074 q 135 807 125 921 q 168 559 146 693 q 220 311 190 425 q 316 121 250 197 q 475 44 382 44 q 597 104 540 44 q 674 261 653 164 q 647 334 668 258 q 606 520 625 410 q 586 706 586 631 l 589 778 q 617 799 589 786 q 657 813 644 813 q 717 747 693 813 q 742 550 742 681 m 297 1054 q 388 1087 350 1060 q 426 1163 426 1114 q 425 1182 426 1175 q 447 1201 425 1201 q 505 1184 469 1201 q 540 1147 540 1167 q 477 1073 540 1113 q 322 1033 414 1033 q 297 1054 297 1033 z "},"":{"ha":1083,"x_min":-99,"x_max":1060,"o":"m 742 550 l 739 468 q 792 317 739 425 q 917 115 844 210 q 1033 21 989 21 q 1051 24 1035 21 q 1060 13 1060 24 q 1011 -32 1060 -4 q 938 -60 963 -60 q 822 16 896 -60 q 694 218 747 92 q 401 -40 572 -40 q 250 5 315 -40 q 147 123 185 50 q 83 290 110 196 q 46 481 57 383 q 22 672 35 579 l 0 839 q -85 1003 -22 1003 q -99 1011 -99 1003 q -80 1031 -99 1019 q -19 1058 -61 1043 q 44 1074 24 1074 q 102 997 79 1074 q 135 807 125 921 q 168 559 146 693 q 220 311 190 425 q 316 121 250 197 q 475 44 382 44 q 597 104 540 44 q 674 261 653 164 q 647 334 668 258 q 606 520 625 410 q 586 706 586 631 l 589 778 q 617 799 589 786 q 657 813 644 813 q 717 747 693 813 q 742 550 742 681 m 563 1040 q 538 1019 563 1022 q 415 1042 468 1019 q 338 1096 363 1064 q 319 1074 335 1093 q 231 986 282 1029 q 208 976 219 976 q 197 985 197 976 q 272 1054 256 1031 l 294 1089 q 310 1114 301 1097 l 319 1133 q 355 1170 319 1153 q 413 1188 390 1188 q 435 1168 435 1188 q 433 1149 433 1161 q 472 1073 433 1100 q 563 1040 510 1046 z "},"":{"ha":1083,"x_min":-99,"x_max":1060,"o":"m 742 550 l 739 468 q 792 317 739 425 q 917 115 844 210 q 1033 21 989 21 q 1051 24 1035 21 q 1060 13 1060 24 q 1011 -32 1060 -4 q 938 -60 963 -60 q 822 16 896 -60 q 694 218 747 92 q 401 -40 572 -40 q 250 5 315 -40 q 147 123 185 50 q 83 290 110 196 q 46 481 57 383 q 22 672 35 579 l 0 839 q -85 1003 -22 1003 q -99 1011 -99 1003 q -80 1031 -99 1019 q -19 1058 -61 1043 q 44 1074 24 1074 q 102 997 79 1074 q 135 807 125 921 q 168 559 146 693 q 220 311 190 425 q 316 121 250 197 q 475 44 382 44 q 597 104 540 44 q 674 261 653 164 q 647 334 668 258 q 606 520 625 410 q 586 706 586 631 l 589 778 q 617 799 589 786 q 657 813 644 813 q 717 747 693 813 q 742 550 742 681 m 563 1163 q 574 1151 563 1163 q 585 1106 585 1139 q 563 1049 585 1072 q 512 1025 542 1025 q 461 1049 482 1025 q 440 1106 440 1072 q 461 1163 440 1139 q 512 1186 482 1186 q 563 1163 542 1186 m 335 1163 q 346 1151 335 1163 q 357 1106 357 1139 q 335 1049 357 1072 q 284 1025 314 1025 q 233 1049 254 1025 q 213 1106 213 1072 q 233 1163 213 1139 q 284 1186 254 1186 q 335 1163 314 1186 z "},"":{"ha":963,"x_min":-85,"x_max":1224,"o":"m 1186 -492 l 1218 -485 q 1224 -490 1224 -485 q 1178 -534 1224 -508 q 1088 -560 1133 -560 q 994 -510 1043 -560 q 899 -376 944 -461 q 817 -210 854 -290 q 743 -29 779 -129 q 694 109 707 71 q 669 185 682 147 q 656 163 669 182 q 614 116 642 144 q 551 60 586 88 q 467 14 517 33 q 367 -6 417 -6 q 207 47 274 -6 q 107 186 140 100 q 53 376 74 272 q 24 588 33 481 q 6 786 15 694 q -78 1017 -17 994 q -85 1026 -85 1019 q -54 1053 -85 1043 q 22 1068 -11 1068 q 64 1067 54 1068 q 133 888 110 1014 q 169 628 157 763 q 203 365 181 494 q 289 153 226 236 q 457 69 351 69 q 591 130 531 69 q 658 221 651 190 q 593 679 593 444 q 619 788 593 751 q 685 824 646 824 q 741 746 725 824 q 757 603 757 668 q 747 453 757 513 l 744 435 q 837 81 775 258 q 964 -217 899 -96 q 1090 -415 1029 -339 q 1186 -492 1151 -492 m 268 1049 q 359 1081 321 1054 q 397 1157 397 1108 q 396 1176 397 1169 q 418 1196 396 1196 q 476 1178 440 1196 q 511 1142 511 1161 q 448 1067 511 1107 q 293 1028 385 1028 q 268 1049 268 1028 z "},"":{"ha":1068,"x_min":99,"x_max":1276,"o":"m 1176 597 q 1039 866 1176 753 q 714 1013 901 979 q 799 756 739 933 q 885 501 860 578 q 936 514 913 514 q 1006 494 960 514 q 1076 474 1051 474 q 1150 513 1124 474 q 1176 597 1176 553 m 744 -26 q 830 20 800 -26 q 860 126 860 67 q 722 543 860 185 q 560 1022 585 901 q 321 935 414 1014 q 228 701 228 857 q 311 372 228 546 q 516 85 394 197 q 744 -26 638 -26 m 554 1060 q 551 1107 551 1074 q 567 1178 551 1140 q 606 1239 582 1215 q 688 1301 651 1285 l 703 1308 q 711 1301 711 1308 q 704 1288 711 1293 q 671 1208 671 1254 q 697 1071 671 1161 q 976 1026 846 1069 q 1191 891 1106 982 q 1276 681 1276 800 q 1221 553 1276 624 q 1100 436 1165 482 q 1008 390 1035 390 q 908 424 982 390 q 956 208 956 265 q 902 46 956 115 q 777 -55 849 -24 q 624 -86 706 -86 q 456 -38 542 -86 q 306 86 369 10 q 194 256 243 163 q 99 619 99 440 q 227 913 99 799 q 554 1060 356 1028 z "},"":{"ha":643,"x_min":-253,"x_max":685,"o":"m -81 -203 q -158 -186 -118 -186 q -197 -198 -197 -186 q -158 -210 -197 -210 q -81 -203 -119 -210 m -26 -218 q 165 -472 78 -292 l 169 -465 q 106 -153 150 -335 q -26 -218 42 -193 m 675 153 l 685 136 q 544 -6 626 43 q 389 -56 463 -56 q 192 72 240 -56 q 224 118 192 79 q 266 157 256 157 q 278 150 276 157 q 324 56 286 106 q 394 6 363 6 q 445 32 444 6 q 401 100 446 58 q 303 183 356 142 q 206 278 250 224 q 161 379 161 333 q 169 417 161 397 q 226 713 226 556 q 171 984 226 869 q 33 1099 115 1099 q -21 967 -21 1099 q 55 537 -21 835 q 206 -65 131 239 q 282 -510 282 -369 q 274 -521 282 -519 q 235 -544 267 -522 q 198 -570 203 -565 q 187 -575 193 -575 q 176 -564 181 -575 q -43 -224 81 -306 q -161 -244 -117 -244 q -253 -211 -253 -244 q -229 -183 -253 -196 q -159 -169 -206 -169 q -60 -197 -112 -169 q 99 -128 15 -178 q 32 133 81 -57 q -39 419 -17 322 q -108 845 -108 708 q -52 1061 -108 982 q 108 1140 4 1140 q 240 1044 197 1140 q 283 783 283 949 q 228 463 283 618 q 331 311 231 401 q 414 238 372 274 q 513 97 513 150 q 464 6 513 44 q 675 153 578 8 z "},"":{"ha":636,"x_min":0,"x_max":678,"o":"m 282 364 q 358 372 286 372 q 429 351 429 372 q 421 335 429 347 q 372 196 372 268 q 406 77 372 124 q 493 31 440 31 q 668 153 579 31 l 678 136 q 439 -36 569 -36 q 288 65 340 -36 q 215 3 265 32 q 121 -26 165 -26 q 0 75 0 -26 q 67 241 0 154 q 200 328 135 328 q 206 324 206 328 q 200 314 206 319 q 151 251 171 299 q 131 153 131 203 q 208 51 131 51 q 251 63 231 51 q 275 97 271 75 q 257 199 257 146 q 261 288 257 251 q 282 364 272 364 m 335 490 q 310 469 335 472 q 155 509 218 469 q 92 583 92 549 q 127 620 92 603 q 185 638 163 638 q 207 618 207 638 q 206 599 206 611 q 244 523 206 550 q 335 490 282 496 z "},"":{"ha":636,"x_min":0,"x_max":678,"o":"m 154 490 q 245 523 207 496 q 283 599 283 550 q 282 618 283 611 q 304 638 282 638 q 362 620 326 638 q 397 583 397 603 q 334 509 397 549 q 179 469 271 469 q 154 490 154 469 m 282 364 q 358 372 286 372 q 429 351 429 372 q 421 335 429 347 q 372 196 372 268 q 406 77 372 124 q 493 31 440 31 q 668 153 579 31 l 678 136 q 439 -36 569 -36 q 288 65 340 -36 q 215 3 265 32 q 121 -26 165 -26 q 0 75 0 -26 q 67 241 0 154 q 200 328 135 328 q 206 324 206 328 q 200 314 206 319 q 151 251 171 299 q 131 153 131 203 q 208 51 131 51 q 251 63 231 51 q 275 97 271 75 q 257 199 257 146 q 261 288 257 251 q 282 364 272 364 z "},"":{"ha":636,"x_min":0,"x_max":678,"o":"m 282 364 q 358 372 286 372 q 429 351 429 372 q 421 335 429 347 q 372 196 372 268 q 406 77 372 124 q 493 31 440 31 q 668 153 579 31 l 678 136 q 439 -36 569 -36 q 288 65 340 -36 q 215 3 265 32 q 121 -26 165 -26 q 0 75 0 -26 q 67 241 0 154 q 200 328 135 328 q 206 324 206 328 q 200 314 206 319 q 151 251 171 299 q 131 153 131 203 q 208 51 131 51 q 251 63 231 51 q 275 97 271 75 q 257 199 257 146 q 261 288 257 251 q 282 364 272 364 m 436 490 q 411 469 436 472 q 289 492 342 469 q 211 546 236 514 q 193 524 208 543 q 104 436 156 479 q 82 426 93 426 q 71 435 71 426 q 146 504 129 481 l 168 539 q 183 564 175 547 l 193 583 q 228 620 193 603 q 286 638 264 638 q 308 618 308 638 q 307 599 307 611 q 345 523 307 550 q 436 490 383 496 z "},"":{"ha":636,"x_min":0,"x_max":678,"o":"m 189 554 l 307 540 q 403 601 347 540 q 414 585 414 601 q 365 503 414 551 q 258 456 315 456 q 199 467 242 456 q 142 479 156 479 q 75 431 94 479 q 60 446 60 431 q 103 524 60 494 q 189 554 147 554 m 282 364 q 358 372 286 372 q 429 351 429 372 q 421 335 429 347 q 372 196 372 268 q 406 77 372 124 q 493 31 440 31 q 668 153 579 31 l 678 136 q 439 -36 569 -36 q 288 65 340 -36 q 215 3 265 32 q 121 -26 165 -26 q 0 75 0 -26 q 67 241 0 154 q 200 328 135 328 q 206 324 206 328 q 200 314 206 319 q 151 251 171 299 q 131 153 131 203 q 208 51 131 51 q 251 63 231 51 q 275 97 271 75 q 257 199 257 146 q 261 288 257 251 q 282 364 272 364 z "},"":{"ha":636,"x_min":0,"x_max":678,"o":"m 282 364 q 358 372 286 372 q 429 351 429 372 q 421 335 429 347 q 372 196 372 268 q 406 77 372 124 q 493 31 440 31 q 668 153 579 31 l 678 136 q 439 -36 569 -36 q 288 65 340 -36 q 215 3 265 32 q 121 -26 165 -26 q 0 75 0 -26 q 67 241 0 154 q 200 328 135 328 q 206 324 206 328 q 200 314 206 319 q 151 251 171 299 q 131 153 131 203 q 208 51 131 51 q 251 63 231 51 q 275 97 271 75 q 257 199 257 146 q 261 288 257 251 q 282 364 272 364 m 408 610 q 418 598 408 610 q 429 553 429 586 q 408 496 429 519 q 356 472 386 472 q 306 496 326 472 q 285 553 285 519 q 306 610 285 586 q 356 633 326 633 q 408 610 386 633 m 180 610 q 191 598 180 610 q 201 553 201 586 q 180 496 201 519 q 128 472 158 472 q 78 496 99 472 q 57 553 57 519 q 78 610 57 586 q 128 633 99 633 q 180 610 158 633 z "},"":{"ha":636,"x_min":0,"x_max":678,"o":"m 158 539 q 175 497 158 515 q 215 478 192 478 q 258 517 258 478 q 240 556 258 539 q 188 572 221 572 q 158 539 158 572 m 119 508 q 119 527 119 508 q 148 583 119 546 q 217 621 176 621 q 278 600 258 621 q 299 542 299 579 q 268 467 299 504 q 197 431 238 431 q 138 451 156 431 q 119 508 119 471 m 282 364 q 358 372 286 372 q 429 351 429 372 q 421 335 429 347 q 372 196 372 268 q 406 77 372 124 q 493 31 440 31 q 668 153 579 31 l 678 136 q 439 -36 569 -36 q 288 65 340 -36 q 215 3 265 32 q 121 -26 165 -26 q 0 75 0 -26 q 67 241 0 154 q 200 328 135 328 q 206 324 206 328 q 200 314 206 319 q 151 251 171 299 q 131 153 131 203 q 208 51 131 51 q 251 63 231 51 q 275 97 271 75 q 257 199 257 146 q 261 288 257 251 q 282 364 272 364 z "},"":{"ha":722,"x_min":0,"x_max":764,"o":"m 463 411 l 464 429 q 426 446 464 446 q 359 424 389 446 q 329 364 329 401 q 425 297 329 297 q 456 302 440 297 q 489 307 472 307 q 506 296 506 307 q 494 290 506 294 q 467 275 483 285 q 433 250 450 265 q 396 151 396 214 q 433 56 396 89 q 531 24 471 24 q 653 58 590 24 q 754 153 715 93 l 764 136 q 617 -9 711 44 q 447 -62 524 -62 q 328 -31 369 -62 q 288 63 288 1 l 288 65 q 214 3 264 32 q 121 -26 164 -26 q 0 75 0 -26 q 67 241 0 154 q 200 328 135 328 q 206 324 206 328 q 200 314 206 319 q 151 251 171 299 q 131 153 131 203 q 208 51 131 51 q 254 68 228 51 q 294 108 281 85 q 328 169 304 139 q 390 239 356 210 q 393 245 393 242 q 392 249 393 249 q 306 232 347 232 q 232 292 232 232 q 324 431 232 372 q 484 489 415 489 q 553 456 553 489 q 531 411 553 435 q 490 388 508 388 q 463 411 463 388 z "},"":{"ha":557,"x_min":0,"x_max":599,"o":"m 286 333 q 233 375 286 375 q 146 328 181 375 q 111 208 111 281 q 167 76 111 135 q 336 17 224 17 q 474 51 407 17 q 589 153 542 85 l 599 136 q 488 19 560 65 q 328 -44 415 -26 q 326 -58 326 -49 q 374 -122 326 -92 q 421 -178 421 -153 q 378 -231 421 -204 q 290 -258 336 -258 q 210 -239 243 -258 l 221 -229 q 276 -237 250 -237 q 317 -220 303 -237 q 332 -186 332 -203 q 308 -133 332 -169 q 285 -79 285 -97 q 294 -50 285 -61 q 233 -54 264 -54 q 66 -10 132 -54 q 0 115 0 33 q 83 313 0 219 q 289 406 165 406 q 353 384 332 406 q 374 327 374 363 q 349 258 374 292 q 292 224 324 224 q 258 237 275 224 q 240 259 240 250 q 247 274 240 268 q 264 286 254 281 q 286 333 286 297 z "},"":{"ha":436,"x_min":-54,"x_max":478,"o":"m 176 411 l 178 429 q 140 446 178 446 q 73 424 103 446 q 43 364 43 401 q 139 297 43 297 q 170 302 154 297 q 203 307 186 307 q 219 296 219 307 q 208 290 219 294 q 181 275 197 285 q 149 250 165 265 q 110 151 110 214 q 147 56 110 89 q 244 24 185 24 q 367 58 304 24 q 468 153 429 93 l 478 136 q 331 -9 425 44 q 160 -62 238 -62 q 42 -31 83 -62 q 1 52 1 1 q 26 146 1 103 q 70 208 51 189 q 98 234 89 226 q 107 245 107 242 q 106 249 107 249 q 19 232 61 232 q -54 292 -54 232 q 38 431 -54 372 q 198 489 129 489 q 267 456 267 489 q 244 411 267 435 q 204 388 222 388 q 176 411 176 388 m 210 547 q 185 526 210 529 q 30 566 93 526 q -33 640 -33 606 q 2 677 -33 660 q 60 694 38 694 q 82 675 82 694 q 81 656 81 668 q 119 580 81 607 q 210 547 157 553 z "},"":{"ha":436,"x_min":-54,"x_max":478,"o":"m 176 411 l 178 429 q 140 446 178 446 q 73 424 103 446 q 43 364 43 401 q 139 297 43 297 q 170 302 154 297 q 203 307 186 307 q 219 296 219 307 q 208 290 219 294 q 181 275 197 285 q 149 250 165 265 q 110 151 110 214 q 147 56 110 89 q 244 24 185 24 q 367 58 304 24 q 468 153 429 93 l 478 136 q 331 -9 425 44 q 160 -62 238 -62 q 42 -31 83 -62 q 1 52 1 1 q 26 146 1 103 q 70 208 51 189 q 98 234 89 226 q 107 245 107 242 q 106 249 107 249 q 19 232 61 232 q -54 292 -54 232 q 38 431 -54 372 q 198 489 129 489 q 267 456 267 489 q 244 411 267 435 q 204 388 222 388 q 176 411 176 388 m -4 551 q 87 584 49 557 q 125 660 125 611 q 124 679 125 672 q 146 699 124 699 q 203 681 168 699 q 239 644 239 664 q 176 570 239 610 q 21 531 113 531 q -4 551 -4 531 z "},"":{"ha":436,"x_min":-69,"x_max":478,"o":"m 176 411 l 178 429 q 140 446 178 446 q 73 424 103 446 q 43 364 43 401 q 139 297 43 297 q 170 302 154 297 q 203 307 186 307 q 219 296 219 307 q 208 290 219 294 q 181 275 197 285 q 149 250 165 265 q 110 151 110 214 q 147 56 110 89 q 244 24 185 24 q 367 58 304 24 q 468 153 429 93 l 478 136 q 331 -9 425 44 q 160 -62 238 -62 q 42 -31 83 -62 q 1 52 1 1 q 26 146 1 103 q 70 208 51 189 q 98 234 89 226 q 107 245 107 242 q 106 249 107 249 q 19 232 61 232 q -54 292 -54 232 q 38 431 -54 372 q 198 489 129 489 q 267 456 267 489 q 244 411 267 435 q 204 388 222 388 q 176 411 176 388 m 296 554 q 271 533 296 536 q 149 556 201 533 q 71 610 96 578 q 53 588 68 607 q -36 500 15 543 q -58 490 -47 490 q -69 499 -69 490 q 6 568 -11 544 l 28 603 q 43 628 35 611 l 53 647 q 88 684 53 667 q 146 701 124 701 q 168 682 168 701 q 167 663 167 675 q 205 587 167 614 q 296 554 243 560 z "},"":{"ha":436,"x_min":-65,"x_max":478,"o":"m 178 429 l 176 411 q 204 388 176 388 q 244 411 222 388 q 267 456 267 435 q 198 489 267 489 q 38 431 129 489 q -54 292 -54 372 q 19 232 -54 232 q 106 249 61 232 q 107 245 107 249 q 98 234 107 242 q 70 208 89 226 q 26 146 51 189 q 1 52 1 103 q 42 -31 1 1 q 160 -62 83 -62 q 331 -9 238 -62 q 478 136 425 44 l 468 153 q 367 58 429 93 q 244 24 304 24 q 147 56 185 24 q 110 151 110 89 q 208 289 110 246 q 219 296 219 294 q 203 307 219 307 q 170 302 186 307 q 139 297 154 297 q 43 364 43 297 q 73 424 43 401 q 140 446 103 446 q 178 429 178 446 m 285 658 q 296 647 285 658 q 307 601 307 635 q 285 544 307 568 q 234 521 264 521 q 183 544 204 521 q 163 601 163 568 q 183 658 163 635 q 234 682 204 682 q 285 658 264 682 m 58 658 q 68 647 58 658 q 79 601 79 635 q 58 544 79 568 q 6 521 36 521 q -44 544 -24 521 q -65 601 -65 568 q -44 658 -65 635 q 6 682 -24 682 q 58 658 36 682 z "},"":{"ha":433,"x_min":-37,"x_max":475,"o":"m 28 311 q 40 328 28 324 q 134 361 124 361 q 144 349 144 361 q 135 236 135 292 q 171 67 135 129 q 265 4 207 4 q 465 153 357 4 l 475 136 q 340 -12 413 39 q 195 -62 268 -62 q 72 10 122 -62 q 21 215 21 83 q 28 311 21 253 m 206 481 q 181 460 206 463 q 26 499 89 460 q -37 574 -37 539 q -2 610 -37 593 q 56 628 33 628 q 78 608 78 628 q 76 589 76 601 q 115 513 76 540 q 206 481 153 486 z "},"":{"ha":433,"x_min":-18,"x_max":475,"o":"m 28 311 q 40 328 28 324 q 134 361 124 361 q 144 349 144 361 q 135 236 135 292 q 171 67 135 129 q 265 4 207 4 q 465 153 357 4 l 475 136 q 340 -12 413 39 q 195 -62 268 -62 q 72 10 122 -62 q 21 215 21 83 q 28 311 21 253 m -18 490 q 73 523 35 496 q 111 599 111 550 q 110 618 111 611 q 132 638 110 638 q 190 620 154 638 q 225 583 225 603 q 162 509 225 549 q 7 469 99 469 q -18 490 -18 469 z "},"":{"ha":433,"x_min":-72,"x_max":475,"o":"m 28 311 q 40 328 28 324 q 134 361 124 361 q 144 349 144 361 q 135 236 135 292 q 171 67 135 129 q 265 4 207 4 q 465 153 357 4 l 475 136 q 340 -12 413 39 q 195 -62 268 -62 q 72 10 122 -62 q 21 215 21 83 q 28 311 21 253 m 293 490 q 268 469 293 472 q 146 492 199 469 q 68 546 93 514 q 50 524 65 543 q -39 436 13 479 q -61 426 -50 426 q -72 435 -72 426 q 3 504 -14 481 l 25 539 q 40 564 32 547 l 50 583 q 85 620 50 603 q 143 638 121 638 q 165 618 165 638 q 164 599 164 611 q 202 523 164 550 q 293 490 240 496 z "},"":{"ha":433,"x_min":-106,"x_max":475,"o":"m 245 610 q 256 598 245 610 q 267 553 267 586 q 245 496 267 519 q 194 472 224 472 q 143 496 164 472 q 122 553 122 519 q 143 610 122 586 q 194 633 164 633 q 245 610 224 633 m 28 311 q 21 215 21 253 q 72 10 21 83 q 195 -62 122 -62 q 340 -12 268 -62 q 475 136 413 39 l 465 153 q 265 4 357 4 q 171 67 207 4 q 135 236 135 129 q 144 349 135 292 q 134 361 144 361 q 40 328 124 361 q 28 311 28 324 m 17 610 q 28 598 17 610 q 39 553 39 586 q 17 496 39 519 q -34 472 -4 472 q -85 496 -64 472 q -106 553 -106 519 q -85 610 -106 586 q -34 633 -64 633 q 17 610 -4 633 z "},"":{"ha":601,"x_min":24,"x_max":601,"o":"m 118 964 q 71 961 118 964 q 43 972 43 961 l 110 1018 q 138 1029 122 1029 q 165 1024 154 1029 q 415 742 311 939 q 586 767 532 750 l 601 771 l 592 697 q 446 679 554 688 q 533 315 533 486 q 460 44 533 143 q 240 -54 388 -54 q 88 -6 151 -54 q 24 122 24 43 q 106 319 24 226 q 313 413 189 413 q 376 391 356 413 q 397 334 397 369 q 372 265 397 299 q 315 231 347 231 q 281 244 299 231 q 264 267 264 257 q 275 283 264 276 q 310 340 310 306 q 257 382 310 382 q 169 335 204 382 q 135 217 135 288 q 198 87 135 146 q 331 28 261 28 q 435 83 401 28 q 468 233 468 139 q 349 675 468 436 q 182 672 254 672 l 190 735 q 317 736 278 735 q 118 964 225 893 z "},"":{"ha":694,"x_min":-14,"x_max":740,"o":"m 99 354 l 97 321 q 149 13 97 222 q 290 342 231 310 q 365 376 331 376 q 376 364 376 376 q 361 331 376 351 q 377 272 367 313 q 395 204 388 232 q 418 141 403 176 q 450 83 433 106 q 556 31 492 31 q 731 153 642 31 l 740 136 q 501 -36 632 -36 q 388 -6 436 -36 q 314 74 339 24 q 263 268 268 165 q 169 22 211 176 q 149 -25 158 -19 q 86 -49 128 -49 q 44 -39 44 -49 q 25 53 42 -17 q -14 290 -14 228 q 3 363 -14 351 q 56 374 19 374 q 97 364 92 374 q 99 354 99 361 m 128 572 l 246 558 q 342 619 286 558 q 353 603 353 619 q 303 522 353 569 q 197 474 254 474 q 138 485 181 474 q 81 497 94 497 q 14 449 33 497 q -1 464 -1 449 q 42 542 -1 513 q 128 572 86 572 z "},"":{"ha":533,"x_min":1,"x_max":576,"o":"m 333 99 q 351 200 351 139 q 335 297 351 261 q 299 332 319 332 q 272 313 283 332 q 261 258 261 293 q 281 176 261 222 q 333 99 300 131 m 104 169 q 137 66 104 108 q 222 24 169 24 q 308 61 275 24 q 219 167 254 99 q 185 314 185 235 q 188 336 185 322 q 104 169 104 278 m 169 -56 q 45 -1 89 -56 q 1 136 1 53 q 54 290 1 219 q 199 364 107 360 q 265 399 221 399 q 344 348 308 399 q 379 217 379 297 q 356 79 379 136 q 428 54 390 54 q 565 153 501 54 l 576 139 q 411 28 508 28 q 338 44 372 28 q 262 -29 307 -3 q 169 -56 217 -56 m 271 490 q 246 469 271 472 q 91 509 154 469 q 28 583 28 549 q 63 620 28 603 q 121 638 99 638 q 143 618 143 638 q 142 599 142 611 q 180 523 142 550 q 271 490 218 496 z "},"":{"ha":533,"x_min":1,"x_max":576,"o":"m 333 99 q 351 200 351 139 q 335 297 351 261 q 299 332 319 332 q 272 313 283 332 q 261 258 261 293 q 281 176 261 222 q 333 99 300 131 m 104 169 q 137 66 104 108 q 222 24 169 24 q 308 61 275 24 q 219 167 254 99 q 185 314 185 235 q 188 336 185 322 q 104 169 104 278 m 169 -56 q 45 -1 89 -56 q 1 136 1 53 q 54 290 1 219 q 199 364 107 360 q 265 399 221 399 q 344 348 308 399 q 379 217 379 297 q 356 79 379 136 q 428 54 390 54 q 565 153 501 54 l 576 139 q 411 28 508 28 q 338 44 372 28 q 262 -29 307 -3 q 169 -56 217 -56 m 53 490 q 144 523 106 496 q 182 599 182 550 q 181 618 182 611 q 203 638 181 638 q 260 620 225 638 q 296 583 296 603 q 233 509 296 549 q 78 469 169 469 q 53 490 53 469 z "},"":{"ha":533,"x_min":0,"x_max":576,"o":"m 333 99 q 351 200 351 139 q 335 297 351 261 q 299 332 319 332 q 272 313 283 332 q 261 258 261 293 q 281 176 261 222 q 333 99 300 131 m 104 169 q 137 66 104 108 q 222 24 169 24 q 308 61 275 24 q 219 167 254 99 q 185 314 185 235 q 188 336 185 322 q 104 169 104 278 m 169 -56 q 45 -1 89 -56 q 1 136 1 53 q 54 290 1 219 q 199 364 107 360 q 265 399 221 399 q 344 348 308 399 q 379 217 379 297 q 356 79 379 136 q 428 54 390 54 q 565 153 501 54 l 576 139 q 411 28 508 28 q 338 44 372 28 q 262 -29 307 -3 q 169 -56 217 -56 m 365 490 q 340 469 365 472 q 218 492 271 469 q 140 546 165 514 q 122 524 138 543 q 33 436 85 479 q 11 426 22 426 q 0 435 0 426 q 75 504 58 481 l 97 539 q 113 564 104 547 l 122 583 q 158 620 122 603 q 215 638 193 638 q 238 618 238 638 q 236 599 236 611 q 274 523 236 550 q 365 490 313 496 z "},"":{"ha":533,"x_min":-6,"x_max":576,"o":"m 333 99 q 351 200 351 139 q 335 297 351 261 q 299 332 319 332 q 272 313 283 332 q 261 258 261 293 q 281 176 261 222 q 333 99 300 131 m 104 169 q 137 66 104 108 q 222 24 169 24 q 308 61 275 24 q 219 167 254 99 q 185 314 185 235 q 188 336 185 322 q 104 169 104 278 m 169 -56 q 45 -1 89 -56 q 1 136 1 53 q 54 290 1 219 q 199 364 107 360 q 265 399 221 399 q 344 348 308 399 q 379 217 379 297 q 356 79 379 136 q 428 54 390 54 q 565 153 501 54 l 576 139 q 411 28 508 28 q 338 44 372 28 q 262 -29 307 -3 q 169 -56 217 -56 m 124 560 l 242 546 q 338 607 282 546 q 349 590 349 607 q 299 509 349 557 q 193 461 250 461 q 133 473 176 461 q 76 485 90 485 q 10 436 29 485 q -6 451 -6 436 q 38 530 -6 500 q 124 560 82 560 z "},"":{"ha":533,"x_min":-6,"x_max":576,"o":"m 333 99 q 351 200 351 139 q 335 297 351 261 q 299 332 319 332 q 272 313 283 332 q 261 258 261 293 q 281 176 261 222 q 333 99 300 131 m 104 169 q 137 66 104 108 q 222 24 169 24 q 308 61 275 24 q 219 167 254 99 q 185 314 185 235 q 188 336 185 322 q 104 169 104 278 m 169 -56 q 45 -1 89 -56 q 1 136 1 53 q 54 290 1 219 q 199 364 107 360 q 265 399 221 399 q 344 348 308 399 q 379 217 379 297 q 356 79 379 136 q 428 54 390 54 q 565 153 501 54 l 576 139 q 411 28 508 28 q 338 44 372 28 q 262 -29 307 -3 q 169 -56 217 -56 m 345 594 q 356 583 345 594 q 367 538 367 571 q 345 481 367 504 q 294 457 324 457 q 243 481 264 457 q 222 538 222 504 q 243 594 222 571 q 294 618 264 618 q 345 594 324 618 m 117 594 q 128 583 117 594 q 139 538 139 571 q 117 481 139 504 q 66 457 96 457 q 15 481 36 457 q -6 538 -6 504 q 15 594 -6 571 q 66 618 36 618 q 117 594 96 618 z "},"":{"ha":553,"x_min":65,"x_max":526,"o":"m 313 731 q 324 719 313 731 q 335 674 335 707 q 313 617 335 640 q 262 593 292 593 q 211 617 232 593 q 190 674 190 640 q 211 731 190 707 q 262 754 232 754 q 313 731 292 754 m 372 363 q 382 351 372 363 q 393 306 393 339 q 372 249 393 272 q 320 225 350 225 q 269 249 290 225 q 249 306 249 272 q 269 363 249 339 q 320 386 290 386 q 372 363 350 386 m 74 518 l 65 449 q 333 456 221 449 q 481 469 446 463 l 515 476 l 526 558 q 490 547 515 554 q 349 529 465 540 q 74 518 233 518 z "},"":{"ha":533,"x_min":1,"x_max":576,"o":"m 226 24 q 308 61 275 24 q 225 154 258 96 l 179 32 q 226 24 200 24 m 104 169 q 133 69 104 108 q 196 228 183 199 q 185 297 185 272 q 188 336 185 322 q 104 169 104 278 m 333 99 q 351 200 351 139 q 335 297 351 261 q 299 332 319 332 l 297 332 q 261 247 278 290 q 333 99 268 161 m 64 -114 l 92 -39 q 1 131 1 6 q 54 290 1 219 q 199 364 107 360 q 263 399 221 399 l 265 399 q 322 513 310 500 q 357 540 335 526 q 388 554 379 554 q 397 547 397 554 q 392 526 397 539 l 318 376 q 379 199 379 325 q 356 79 379 136 q 428 54 390 54 q 565 153 501 54 l 576 139 q 411 28 508 28 q 338 44 372 28 q 262 -29 307 -3 q 169 -56 217 -56 l 144 -54 l 113 -136 q 74 -149 89 -149 q 60 -135 60 -149 q 64 -114 60 -128 z "},"":{"ha":711,"x_min":1,"x_max":753,"o":"m 307 308 q 319 325 307 321 q 413 358 403 358 q 424 346 424 358 q 414 238 414 292 q 450 70 414 133 q 546 7 486 7 q 743 153 638 7 l 753 136 q 622 -9 692 40 q 486 -58 551 -58 q 335 46 386 -58 q 195 -35 281 -35 q 56 40 110 -35 q 1 215 1 114 q 44 342 1 314 q 124 361 78 361 q 136 311 136 361 q 117 203 136 261 q 206 64 136 104 q 265 47 233 47 q 324 74 296 47 q 301 201 301 138 q 307 308 301 265 m 325 490 q 300 469 325 472 q 145 509 208 469 q 82 583 82 549 q 117 620 82 603 q 175 638 153 638 q 197 618 197 638 q 196 599 196 611 q 234 523 196 550 q 325 490 272 496 z "},"":{"ha":711,"x_min":1,"x_max":753,"o":"m 307 308 q 319 325 307 321 q 413 358 403 358 q 424 346 424 358 q 414 238 414 292 q 450 70 414 133 q 546 7 486 7 q 743 153 638 7 l 753 136 q 622 -9 692 40 q 486 -58 551 -58 q 335 46 386 -58 q 195 -35 281 -35 q 56 40 110 -35 q 1 215 1 114 q 44 342 1 314 q 124 361 78 361 q 136 311 136 361 q 117 203 136 261 q 206 64 136 104 q 265 47 233 47 q 324 74 296 47 q 301 201 301 138 q 307 308 301 265 m 133 490 q 224 523 186 496 q 263 599 263 550 q 261 618 263 611 q 283 638 261 638 q 341 620 306 638 q 376 583 376 603 q 313 509 376 549 q 158 469 250 469 q 133 490 133 469 z "},"":{"ha":711,"x_min":1,"x_max":753,"o":"m 307 308 q 319 325 307 321 q 413 358 403 358 q 424 346 424 358 q 414 238 414 292 q 450 70 414 133 q 546 7 486 7 q 743 153 638 7 l 753 136 q 622 -9 692 40 q 486 -58 551 -58 q 335 46 386 -58 q 195 -35 281 -35 q 56 40 110 -35 q 1 215 1 114 q 44 342 1 314 q 124 361 78 361 q 136 311 136 361 q 117 203 136 261 q 206 64 136 104 q 265 47 233 47 q 324 74 296 47 q 301 201 301 138 q 307 308 301 265 m 414 490 q 389 469 414 472 q 267 492 319 469 q 189 546 214 514 q 169 524 186 543 q 82 436 133 479 q 60 426 71 426 q 49 435 49 426 q 124 504 107 481 l 147 539 q 161 564 153 547 l 171 583 q 206 620 171 603 q 264 638 242 638 q 286 618 286 638 q 285 599 285 611 q 323 523 285 550 q 414 490 361 496 z "},"":{"ha":711,"x_min":1,"x_max":753,"o":"m 307 308 q 319 325 307 321 q 413 358 403 358 q 424 346 424 358 q 414 238 414 292 q 450 70 414 133 q 546 7 486 7 q 743 153 638 7 l 753 136 q 622 -9 692 40 q 486 -58 551 -58 q 335 46 386 -58 q 195 -35 281 -35 q 56 40 110 -35 q 1 215 1 114 q 44 342 1 314 q 124 361 78 361 q 136 311 136 361 q 117 203 136 261 q 206 64 136 104 q 265 47 233 47 q 324 74 296 47 q 301 201 301 138 q 307 308 301 265 m 394 610 q 405 598 394 610 q 415 553 415 586 q 394 496 415 519 q 342 472 372 472 q 292 496 313 472 q 271 553 271 519 q 292 610 271 586 q 342 633 313 633 q 394 610 372 633 m 166 610 q 177 598 166 610 q 188 553 188 586 q 166 496 188 519 q 115 472 144 472 q 64 496 85 472 q 43 553 43 519 q 64 610 43 586 q 115 633 85 633 q 166 610 144 633 z "},"":{"ha":621,"x_min":3,"x_max":663,"o":"m 328 -458 q 396 -675 328 -574 q 522 -776 464 -776 q 572 -687 572 -776 q 524 -487 572 -622 q 469 -340 506 -437 q 413 -182 433 -242 q 328 -458 328 -311 m 633 -565 q 588 -769 633 -701 q 471 -836 542 -836 q 305 -740 381 -836 q 229 -500 229 -643 q 283 -318 239 -401 q 400 -146 326 -235 q 335 58 353 -17 q 197 -18 275 -18 q 61 61 119 -18 q 3 289 3 140 q 25 310 3 304 q 101 324 92 324 q 118 307 118 324 q 175 108 118 181 q 265 64 211 64 q 326 90 294 64 q 306 247 306 183 q 335 339 306 310 q 401 374 394 374 q 415 353 415 374 q 471 33 415 201 l 494 -40 q 653 153 599 72 l 663 136 q 601 50 629 83 q 542 -19 574 17 q 503 -65 511 -56 q 614 -406 604 -356 q 633 -565 633 -504 m 96 461 q 187 494 149 467 q 225 569 225 521 q 224 589 225 582 q 246 608 224 608 q 303 591 268 608 q 339 554 339 574 q 276 480 339 519 q 121 440 213 440 q 96 461 96 440 z "},"":{"ha":601,"x_min":-51,"x_max":643,"o":"m 164 28 l 201 65 q 209 67 204 67 q 214 56 214 67 q 257 6 214 6 q 331 66 301 8 q 361 184 361 124 q 338 280 361 244 q 269 315 315 315 q 156 126 156 315 q 164 28 156 89 m 324 -24 q 490 24 400 -24 q 633 153 581 71 l 643 136 q 479 -20 576 33 q 296 -74 382 -74 q 172 -29 210 -74 q 203 -214 182 -97 q 246 -499 246 -469 q 238 -533 246 -529 q 208 -550 229 -536 q 153 -581 160 -581 q 128 -542 131 -581 q 29 206 108 -350 q -51 780 -50 761 q -15 847 -51 799 q 40 894 22 894 q 58 858 58 893 l 144 211 q 185 308 154 256 q 354 417 244 417 q 464 307 464 417 q 414 134 464 232 q 303 -22 364 36 q 324 -24 310 -24 z "},"":{"ha":621,"x_min":-7,"x_max":663,"o":"m 328 -458 q 396 -675 328 -574 q 522 -776 464 -776 q 572 -687 572 -776 q 524 -487 572 -622 q 469 -340 506 -437 q 413 -182 433 -242 q 328 -458 328 -311 m 633 -565 q 588 -769 633 -701 q 471 -836 542 -836 q 305 -740 381 -836 q 229 -500 229 -643 q 283 -318 239 -401 q 400 -146 326 -235 q 335 58 353 -17 q 197 -18 275 -18 q 61 61 119 -18 q 3 289 3 140 q 25 310 3 304 q 101 324 92 324 q 118 307 118 324 q 175 108 118 181 q 265 64 211 64 q 326 90 294 64 q 306 247 306 183 q 335 339 306 310 q 401 374 394 374 q 415 353 415 374 q 471 33 415 201 l 494 -40 q 653 153 599 72 l 663 136 q 601 50 629 83 q 542 -19 574 17 q 503 -65 511 -56 q 614 -406 604 -356 q 633 -565 633 -504 m 344 610 q 355 598 344 610 q 365 553 365 586 q 344 496 365 519 q 292 472 322 472 q 242 496 263 472 q 221 553 221 519 q 242 610 221 586 q 292 633 263 633 q 344 610 322 633 m 116 610 q 127 598 116 610 q 138 553 138 586 q 116 496 138 519 q 65 472 94 472 q 14 496 35 472 q -7 553 -7 519 q 14 610 -7 586 q 65 633 35 633 q 116 610 94 633 z "},"":{"ha":433,"x_min":21,"x_max":475,"o":"m 28 311 q 40 328 28 324 q 134 361 124 361 q 144 349 144 361 q 135 236 135 292 q 171 67 135 129 q 265 4 207 4 q 465 153 357 4 l 475 136 q 340 -12 413 39 q 195 -62 268 -62 q 72 10 122 -62 q 21 215 21 83 q 28 311 21 253 z "},"":{"ha":1042,"x_min":-206,"x_max":1140,"o":"m 392 1104 q 313 1052 343 1104 q 283 923 283 1000 q 304 767 283 846 q 413 912 372 836 q 454 1039 454 988 q 392 1104 454 1104 m 415 -31 q 411 11 415 -10 q 169 53 281 26 q 31 93 57 79 q 139 -68 64 4 q 218 -122 169 -99 q 321 -146 267 -146 q 415 -31 415 -146 m -174 506 q -206 524 -206 506 q -181 567 -206 543 q -137 592 -156 592 q -72 586 -90 586 q 181 665 53 586 q 164 781 164 728 q 267 1053 164 946 q 474 1161 369 1161 q 557 1094 557 1161 q 488 933 557 1032 q 311 739 419 835 q 417 451 342 631 q 565 478 521 463 l 556 404 q 443 389 521 396 q 522 97 514 204 q 760 78 646 78 q 1129 172 1000 78 q 1140 163 1140 172 q 628 -1 994 -1 q 515 3 572 -1 q 447 -123 499 -72 q 324 -174 396 -174 q 176 -131 251 -174 q 49 -33 101 -89 q -39 76 -4 24 q -74 150 -74 128 q -33 198 -74 163 q 36 233 8 233 q 383 124 193 165 q 282 381 349 225 q 146 379 242 379 l 154 442 q 257 443 225 442 q 186 642 211 556 q -174 506 -14 506 z "},"":{"ha":557,"x_min":-117,"x_max":599,"o":"m 379 940 q 260 1108 379 1108 q 94 967 154 1108 q 33 608 33 825 q 111 222 33 390 q 294 570 208 350 q 379 940 379 790 m 364 24 q 488 58 425 24 q 589 153 550 93 l 599 136 q 452 -9 546 44 q 269 -62 358 -62 l 265 -62 q 4 135 94 -62 q -117 133 -32 133 l -108 196 l -19 196 q -65 498 -65 331 q -22 814 -65 665 q 117 1064 22 963 q 338 1165 211 1165 q 483 988 483 1165 q 380 606 483 833 q 131 204 276 378 q 289 228 244 213 l 303 232 l 293 158 q 157 142 257 149 q 364 24 240 24 z "},"":{"ha":1404,"x_min":-11,"x_max":1625,"o":"m 1183 17 q 1322 51 1254 17 q 1436 153 1389 85 l 1446 136 q 1292 -4 1396 46 q 1085 -54 1189 -54 q 905 -10 982 -54 q 808 118 828 35 q 415 -60 640 -60 q 101 72 214 -60 q -11 399 -11 204 q 98 778 -11 594 q 411 1069 207 963 l 414 1069 q 419 1057 419 1069 q 410 1039 419 1044 q 191 815 272 971 q 110 488 110 660 q 208 164 110 301 q 340 57 257 97 q 529 17 424 17 q 804 165 694 17 q 903 374 804 286 q 994 446 949 415 q 1100 514 1040 476 q 1201 592 1201 576 q 1189 597 1201 597 q 1060 582 1176 597 q 899 567 943 567 q 681 700 681 567 q 771 890 681 793 q 561 964 683 964 q 297 721 364 964 q 283 708 294 708 q 275 724 275 708 q 326 859 275 783 q 471 992 378 935 q 680 1050 564 1050 q 883 986 796 1050 q 1155 1137 994 1065 q 1424 1242 1315 1208 q 1558 1276 1532 1276 q 1604 1259 1583 1276 q 1625 1219 1625 1242 q 1573 1150 1625 1181 q 1469 1108 1521 1119 l 1417 1097 q 1403 1107 1403 1097 q 1418 1132 1403 1117 q 1433 1150 1433 1147 q 1419 1153 1433 1153 q 1299 1118 1406 1153 q 1069 1033 1193 1083 q 847 913 944 982 q 750 788 750 844 q 915 707 750 707 q 1095 715 985 707 q 1247 722 1206 722 q 1321 667 1321 722 q 1288 615 1321 644 q 1188 542 1256 586 q 1074 465 1121 499 q 988 371 1028 431 q 949 242 949 311 q 1183 17 949 17 z "},"":{"ha":810,"x_min":1,"x_max":851,"o":"m 378 232 l 379 199 q 356 79 379 136 l 375 67 q 401 148 376 106 q 444 208 426 190 q 472 234 463 226 q 481 245 481 242 q 479 249 481 249 q 393 232 435 232 l 378 232 m 333 99 q 351 176 351 139 q 349 240 351 213 q 319 292 319 256 q 322 318 319 310 q 297 332 310 332 q 272 313 283 332 q 261 258 261 293 q 281 176 261 222 q 333 99 300 131 m 185 314 q 188 336 185 322 q 104 169 104 278 q 137 66 104 108 q 222 24 169 24 q 308 61 275 24 q 219 167 254 99 q 185 314 185 235 m 550 411 l 551 429 q 514 446 551 446 q 447 424 476 446 q 417 364 417 401 q 513 297 417 297 q 544 302 528 297 q 576 307 560 307 q 593 296 593 307 q 582 290 593 294 q 555 275 571 285 q 522 250 539 265 q 483 151 483 214 q 521 56 483 89 q 618 24 558 24 q 740 58 678 24 q 842 153 803 93 l 851 136 q 705 -9 799 44 q 522 -62 611 -62 q 427 -39 467 -62 q 378 31 388 -15 q 338 44 361 33 q 262 -29 307 -3 q 169 -56 217 -56 q 45 -1 89 -56 q 1 136 1 53 q 54 290 1 219 q 199 364 107 360 q 263 399 221 399 q 338 357 306 399 q 447 451 371 413 q 581 489 522 489 q 640 456 640 489 q 618 411 640 435 q 578 388 596 388 q 550 411 550 388 z "},"":{"ha":817,"x_min":-110,"x_max":763,"o":"m 99 889 q 257 640 99 756 q 331 940 331 829 q 299 1031 331 989 q 227 1072 267 1072 q 156 1031 188 1072 q 112 948 125 989 q 99 889 99 907 m -82 -17 q -99 -26 -92 -26 q -110 -15 -110 -26 q -104 3 -110 -4 q 43 213 -42 72 q 199 504 128 353 q 21 757 21 628 q 62 932 21 843 q 172 1079 103 1021 q 303 1138 240 1138 q 390 1108 367 1138 q 413 1021 413 1078 q 283 621 413 914 q 406 547 329 590 q 538 471 483 503 q 649 397 593 439 q 763 208 763 310 q 657 17 763 106 q 443 -71 551 -71 q 139 107 272 -71 q 124 142 124 128 q 158 185 124 157 q 213 214 193 214 q 219 210 217 214 q 354 71 257 144 q 544 -3 451 -3 q 660 111 660 6 q 558 278 660 200 q 374 398 483 335 q 222 489 264 461 q -82 -17 54 136 m 38 1315 q 63 1336 38 1333 q 185 1314 132 1336 q 263 1260 238 1292 q 281 1282 265 1263 q 369 1369 318 1326 q 392 1379 381 1379 q 403 1371 403 1379 q 328 1301 344 1325 l 306 1267 q 290 1242 299 1258 l 281 1222 q 245 1185 281 1203 q 188 1168 210 1168 q 165 1188 165 1168 q 167 1207 167 1194 q 128 1283 167 1256 q 38 1315 90 1310 z "},"":{"ha":421,"x_min":-133,"x_max":463,"o":"m 453 153 l 463 136 q 322 -6 404 43 q 167 -56 240 -56 q -31 72 18 -56 q 1 118 -31 79 q 44 157 33 157 q 56 150 54 157 q 102 56 64 106 q 172 6 140 6 q 224 33 222 6 q 122 164 224 76 q 53 249 85 197 q 22 357 22 301 q 26 372 22 368 q 107 428 88 428 q 122 404 122 428 q 166 298 124 353 q 249 193 208 243 q 290 94 290 143 q 242 6 290 44 q 453 153 356 8 m -133 610 q -108 631 -133 628 q 14 608 -39 631 q 92 554 67 586 q 111 576 94 557 q 199 664 147 621 q 221 674 210 674 q 232 665 232 674 q 157 596 174 619 l 133 561 q 119 536 128 553 l 110 517 q 74 480 110 497 q 17 463 39 463 q -6 482 -6 463 q -4 501 -4 489 q -42 577 -4 550 q -133 610 -81 604 z "},"":{"ha":963,"x_min":-85,"x_max":1224,"o":"m 1218 -485 l 1186 -492 q 1090 -415 1151 -492 q 964 -217 1029 -339 q 837 81 899 -96 q 744 435 775 258 q 757 581 757 494 q 741 746 757 668 q 685 824 725 824 q 619 788 646 824 q 593 679 593 751 q 658 221 593 444 q 591 130 651 190 q 457 69 531 69 q 289 153 351 69 q 203 365 226 236 q 169 628 181 494 q 133 888 157 763 q 64 1067 110 1014 q 38 1068 54 1068 q -1 1066 21 1068 q -54 1053 -24 1064 q -85 1026 -85 1043 q -78 1017 -85 1019 q 6 786 -17 994 q 24 588 15 694 q 53 376 33 481 q 107 186 74 272 q 207 47 140 100 q 367 -6 274 -6 q 467 14 417 -6 q 551 60 517 33 q 614 116 586 88 q 656 163 642 144 q 669 185 669 182 q 694 109 682 147 q 743 -29 707 71 q 817 -210 779 -129 q 899 -376 854 -290 q 994 -510 944 -461 q 1088 -560 1043 -560 q 1178 -534 1133 -560 q 1224 -490 1224 -508 q 1218 -485 1224 -485 m 569 1160 q 580 1148 569 1160 q 590 1103 590 1136 q 569 1046 590 1069 q 517 1022 547 1022 q 467 1046 488 1022 q 446 1103 446 1069 q 467 1160 446 1136 q 517 1183 488 1183 q 569 1160 547 1183 m 341 1160 q 352 1148 341 1160 q 363 1103 363 1136 q 341 1046 363 1069 q 290 1022 319 1022 q 239 1046 260 1022 q 218 1103 218 1069 q 239 1160 218 1136 q 290 1183 260 1183 q 341 1160 319 1183 z "},"":{"ha":1199,"x_min":-78,"x_max":1186,"o":"m 894 -122 q 836 -420 836 -269 q 889 -667 836 -571 q 1029 -764 942 -764 q 1072 -733 1056 -764 q 1089 -640 1089 -701 q 1035 -431 1089 -578 q 894 -122 981 -283 m 379 43 q 253 103 322 43 q -78 675 -78 397 q -47 806 -78 738 q 41 934 -15 874 q 188 1033 97 994 q 386 1072 279 1072 q 649 985 521 1072 q 853 774 778 899 q 929 536 929 650 q 883 392 929 468 q 769 299 838 317 q 944 38 885 138 q 1176 246 1043 171 q 1186 231 1186 246 q 963 8 1050 146 q 1156 -537 1156 -322 q 1095 -753 1156 -671 q 979 -836 1035 -836 q 810 -749 868 -836 q 753 -519 753 -661 q 871 -79 753 -299 q 611 281 736 160 q 485 367 558 281 q 413 506 413 453 q 438 543 413 524 q 479 563 464 563 q 591 488 506 563 q 756 311 676 413 q 781 324 764 311 q 808 356 797 338 q 836 490 836 403 q 783 668 836 576 q 642 832 729 760 q 438 950 556 904 q 200 996 319 996 q 72 919 121 996 q 22 749 22 842 q 76 535 22 657 q 247 283 131 413 q 510 83 364 154 q 477 60 510 71 q 411 47 444 50 l 379 43 m 211 1267 q 236 1288 211 1285 q 358 1265 306 1288 q 436 1211 411 1243 q 456 1233 439 1214 q 543 1321 492 1278 q 565 1331 554 1331 q 576 1322 576 1331 q 501 1253 518 1276 l 478 1219 q 464 1193 472 1210 l 454 1174 q 419 1137 454 1154 q 361 1119 383 1119 q 339 1139 339 1119 q 340 1158 340 1146 q 302 1234 340 1207 q 211 1267 264 1261 z "},"":{"ha":565,"x_min":-24,"x_max":608,"o":"m 460 -554 q 360 -181 460 -346 q 274 -458 274 -308 q 312 -617 274 -554 q 393 -679 350 -679 q 441 -647 422 -679 q 460 -554 460 -615 m 258 265 q 249 270 258 271 q 194 269 239 269 q 104 285 150 269 q 90 240 104 279 q 33 124 61 163 l 22 139 q 61 218 44 165 q 79 296 78 271 q 6 417 6 333 q 39 453 6 436 q 94 471 72 471 q 117 451 117 471 l 117 435 q 160 358 117 397 q 256 319 204 319 q 294 324 279 319 q 310 329 308 329 q 324 309 324 329 q 314 282 324 289 q 242 212 275 260 q 203 119 208 164 q 410 -74 332 25 q 599 153 551 83 l 608 136 q 501 -6 564 67 q 425 -94 438 -79 q 554 -476 554 -268 q 490 -663 554 -592 q 349 -735 425 -735 q 224 -675 272 -735 q 175 -500 175 -615 q 342 -151 192 -331 q 167 11 269 -47 q 149 57 149 21 q 176 147 149 93 q 227 231 203 201 q 258 265 251 260 m -24 685 q 1 706 -24 703 q 124 683 71 706 q 201 629 176 661 q 219 651 204 632 q 308 739 257 696 q 331 749 319 749 q 342 740 342 749 q 267 671 283 694 l 244 636 q 229 611 238 628 l 219 592 q 184 555 219 572 q 126 538 149 538 q 104 557 104 538 q 106 576 106 564 q 67 652 106 625 q -24 685 29 679 z "},"":{"ha":636,"x_min":75,"x_max":440,"o":"m 440 490 q 415 469 440 472 q 293 492 346 469 q 215 546 240 514 q 197 524 213 543 q 108 436 160 479 q 86 426 97 426 q 75 435 75 426 q 150 504 133 481 l 172 539 q 188 564 179 547 l 197 583 q 233 620 197 603 q 290 638 268 638 q 313 618 313 638 q 311 599 311 611 q 349 523 311 550 q 440 490 388 496 z "},"":{"ha":636,"x_min":76,"x_max":442,"o":"m 76 574 q 101 594 76 592 q 224 572 171 594 q 301 518 276 550 q 319 540 304 521 q 408 628 357 585 q 431 638 419 638 q 442 629 442 638 q 367 560 383 583 l 344 525 q 329 500 338 517 l 319 481 q 284 444 319 461 q 226 426 249 426 q 204 446 204 426 q 206 465 206 453 q 167 541 206 514 q 76 574 129 568 z "},"":{"ha":636,"x_min":57,"x_max":324,"o":"m 93 597 q 125 531 100 554 q 187 507 150 507 q 260 543 224 507 q 301 639 296 579 q 324 619 324 628 q 274 476 317 525 q 180 426 232 426 q 92 465 128 426 q 57 565 57 503 l 57 571 q 85 597 57 597 l 93 597 z "},"":{"ha":433,"x_min":21,"x_max":165,"o":"m 144 610 q 155 598 144 610 q 165 553 165 586 q 144 496 165 519 q 92 472 122 472 q 42 496 63 472 q 21 553 21 519 q 42 610 21 586 q 92 633 63 633 q 144 610 122 633 z "},"":{"ha":399,"x_min":119,"x_max":299,"o":"m 158 539 q 175 497 158 515 q 215 478 192 478 q 258 517 258 478 q 240 556 258 539 q 188 572 221 572 q 158 539 158 572 m 119 508 q 119 527 119 508 q 148 583 119 546 q 217 621 176 621 q 278 600 258 621 q 299 542 299 579 q 268 467 299 504 q 197 431 238 431 q 138 451 156 431 q 119 508 119 471 z "},"":{"ha":507,"x_min":217,"x_max":401,"o":"m 383 -137 l 401 -147 q 268 -225 317 -225 q 233 -209 249 -225 q 217 -165 217 -193 q 229 -99 217 -137 q 272 -33 242 -61 l 299 -25 q 267 -115 267 -69 q 313 -161 267 -161 q 383 -137 342 -161 z "},"":{"ha":468,"x_min":60,"x_max":414,"o":"m 189 554 l 307 540 q 403 601 347 540 q 414 585 414 601 q 365 503 414 551 q 258 456 315 456 q 199 467 242 456 q 142 479 156 479 q 75 431 94 479 q 60 446 60 431 q 103 524 60 494 q 189 554 147 554 z "},"":{"ha":436,"x_min":-119,"x_max":353,"o":"m 110 526 q 201 559 163 532 q 239 635 239 586 q 238 654 239 647 q 260 674 238 674 q 317 656 282 674 q 353 619 353 639 q 290 545 353 585 q 135 506 226 506 q 110 526 110 506 m -119 490 q -28 523 -67 496 q 10 599 10 550 q 8 618 10 611 q 31 638 8 638 q 88 620 53 638 q 124 583 124 603 q 60 509 124 549 q -94 469 -3 469 q -119 490 -119 469 z "},"":{"ha":549,"x_min":89,"x_max":508,"o":"m 89 125 l 97 188 q 344 197 242 188 q 478 214 447 206 l 508 224 l 499 150 q 89 125 406 125 z "},"":{"ha":1036,"x_min":99,"x_max":935,"o":"m 99 125 l 114 188 q 608 197 403 188 q 875 214 814 206 l 935 224 l 917 150 q 99 125 728 125 z "},"":{"ha":307,"x_min":88,"x_max":240,"o":"m 142 806 q 127 806 142 806 q 100 825 113 806 q 88 901 88 844 q 119 1013 88 957 q 181 1096 150 1069 l 211 1122 q 233 1113 233 1122 q 221 1092 233 1104 q 169 985 169 1017 q 205 931 169 954 q 240 885 240 908 q 206 834 240 863 q 142 806 172 806 z "},"":{"ha":307,"x_min":88,"x_max":240,"o":"m 185 1122 q 200 1122 185 1122 q 228 1103 215 1122 q 240 1027 240 1083 q 209 915 240 971 q 147 832 178 858 l 117 806 q 94 815 94 806 q 107 836 94 824 q 158 942 158 911 q 123 997 158 974 q 88 1042 88 1019 q 122 1094 88 1065 q 185 1122 156 1122 z "},"":{"ha":307,"x_min":88,"x_max":240,"o":"m 185 133 q 200 133 185 133 q 228 114 215 133 q 240 38 240 94 q 209 -74 240 -18 q 147 -157 178 -131 l 117 -183 q 94 -174 94 -183 q 107 -153 94 -165 q 158 -47 158 -78 q 123 8 158 -15 q 88 53 88 31 q 122 105 88 76 q 185 133 156 133 z "},"":{"ha":494,"x_min":88,"x_max":428,"o":"m 324 806 q 275 889 275 806 q 318 1033 275 972 q 386 1111 354 1085 l 399 1122 q 421 1113 421 1122 q 408 1092 421 1104 q 357 985 357 1017 q 392 931 357 954 q 428 885 428 908 q 394 834 428 863 q 324 806 360 806 m 142 806 q 127 806 142 806 q 100 825 113 806 q 88 901 88 844 q 119 1013 88 957 q 181 1096 150 1069 l 211 1122 q 233 1113 233 1122 q 221 1092 233 1104 q 169 985 169 1017 q 205 931 169 954 q 240 885 240 908 q 206 834 240 863 q 142 806 172 806 z "},"":{"ha":494,"x_min":88,"x_max":428,"o":"m 185 1122 q 200 1122 185 1122 q 228 1103 215 1122 q 240 1027 240 1083 q 209 915 240 971 q 147 832 178 858 l 117 806 q 94 815 94 806 q 107 836 94 824 q 158 942 158 911 q 123 997 158 974 q 88 1042 88 1019 q 122 1094 88 1065 q 185 1122 156 1122 m 379 1122 q 428 1039 428 1122 q 385 894 428 956 q 317 817 349 843 l 304 806 q 282 815 282 806 q 294 836 282 824 q 346 942 346 911 q 310 997 346 974 q 275 1042 275 1019 q 309 1094 275 1065 q 379 1122 343 1122 z "},"":{"ha":494,"x_min":88,"x_max":428,"o":"m 185 138 q 200 138 185 138 q 228 118 215 138 q 240 42 240 99 q 209 -70 240 -14 q 147 -153 178 -126 l 117 -179 q 94 -170 94 -179 q 107 -149 94 -161 q 158 -42 158 -74 q 123 12 158 -11 q 88 58 88 35 q 122 109 88 81 q 185 138 156 138 m 379 138 q 428 53 428 138 q 385 -92 428 -29 q 317 -169 349 -142 l 304 -179 q 282 -170 282 -179 q 294 -149 282 -161 q 346 -42 346 -74 q 310 12 346 -11 q 275 58 275 35 q 309 109 275 81 q 379 138 343 138 z "},"":{"ha":515,"x_min":72,"x_max":374,"o":"m 82 494 l 72 583 q 126 581 88 583 q 192 579 165 579 l 149 707 l 256 728 l 246 590 l 358 640 l 374 554 l 249 549 l 347 -51 l 219 -72 l 193 540 l 82 494 z "},"":{"ha":385,"x_min":96,"x_max":282,"o":"m 255 262 q 268 246 255 262 q 282 188 282 231 q 255 113 282 144 q 189 82 228 82 q 123 113 150 82 q 96 188 96 144 q 123 262 96 231 q 189 293 150 293 q 255 262 228 293 z "},"":{"ha":981,"x_min":83,"x_max":824,"o":"m 802 106 q 813 94 802 106 q 824 49 824 82 q 802 -8 824 15 q 751 -32 781 -32 q 700 -8 721 -32 q 679 49 679 15 q 700 106 679 82 q 751 129 721 129 q 802 106 781 129 m 510 106 q 521 94 510 106 q 532 49 532 82 q 510 -8 532 15 q 459 -32 489 -32 q 408 -8 429 -32 q 388 49 388 15 q 408 106 388 82 q 459 129 429 129 q 510 106 489 129 m 206 106 q 217 94 206 106 q 228 49 228 82 q 206 -8 228 15 q 155 -32 185 -32 q 104 -8 125 -32 q 83 49 83 15 q 104 106 83 82 q 155 129 125 129 q 206 106 185 129 z "},"":{"ha":1697,"x_min":-8,"x_max":1675,"o":"m 1400 553 q 1282 487 1322 553 q 1242 308 1242 421 q 1304 92 1242 194 q 1468 -11 1367 -11 q 1576 64 1536 -11 q 1617 253 1617 139 q 1560 460 1617 368 q 1400 553 1504 553 m 1435 625 q 1567 572 1510 625 q 1675 274 1675 469 q 1614 40 1675 138 q 1436 -58 1553 -58 q 1250 45 1319 -58 q 1181 288 1181 149 q 1247 526 1181 426 q 1435 625 1314 625 m 863 553 q 744 487 785 553 q 704 308 704 421 q 767 92 704 194 q 931 -11 829 -11 q 1039 64 999 -11 q 1079 253 1079 139 q 1023 460 1079 368 q 863 553 967 553 m 897 625 q 1028 572 972 625 q 1138 274 1138 469 q 1076 40 1138 138 q 899 -58 1015 -58 q 713 45 782 -58 q 643 288 643 149 q 710 526 643 426 q 897 625 776 625 m 211 999 q 93 933 133 999 q 53 753 53 867 q 115 538 53 640 q 279 435 178 435 q 388 510 347 435 q 428 699 428 585 q 372 906 428 814 q 211 999 315 999 m 246 1071 q 378 1018 321 1071 q 486 719 486 915 q 425 485 486 583 q 247 388 364 388 q 61 491 131 388 q -8 733 -8 594 q 58 972 -8 872 q 246 1071 125 1071 m 265 -153 l 267 -150 q 287 -110 271 -146 q 304 -74 303 -75 q 578 622 378 125 q 808 1151 779 1118 q 911 1210 838 1185 q 903 1172 917 1204 q 688 701 778 915 q 386 -57 597 486 q 368 -94 378 -79 q 265 -153 346 -122 z "},"":{"ha":657,"x_min":-22,"x_max":599,"o":"m 560 383 q 169 189 478 296 q 417 79 282 150 q 599 -50 553 8 q 525 -87 561 -87 l 489 -64 q 61 150 179 150 q 15 168 42 150 q -22 190 -12 186 q 238 267 89 196 q 476 410 386 339 q 491 415 482 415 q 510 412 500 415 q 528 404 519 408 q 560 383 543 397 z "},"":{"ha":631,"x_min":-1,"x_max":619,"o":"m 38 -42 q 428 153 119 46 q 180 263 315 192 q -1 392 44 333 q 72 429 36 429 q 287 278 171 338 q 469 206 403 219 l 536 192 q 583 174 556 192 q 619 151 610 156 q 360 74 508 146 q 121 -68 211 3 q 106 -74 115 -74 q 88 -70 97 -74 q 69 -62 78 -67 q 38 -42 54 -56 z "},"":{"ha":347,"x_min":-125,"x_max":526,"o":"m -125 -153 l -124 -150 q -103 -110 -119 -146 q -86 -74 -87 -75 q 188 622 -12 125 q 418 1151 389 1118 q 521 1210 447 1185 q 513 1172 526 1204 q 297 701 388 915 q -4 -57 207 486 q -22 -94 -12 -79 q -125 -153 -44 -122 z "},"":{"ha":571,"x_min":63,"x_max":565,"o":"m 342 524 q 342 541 342 524 q 341 592 342 558 q 340 635 340 626 q 342 645 340 644 q 413 681 344 646 l 417 681 q 418 612 418 681 q 429 460 418 543 q 565 351 535 460 q 561 346 565 346 q 433 424 497 413 q 543 226 463 233 l 550 219 q 510 196 550 215 q 468 173 471 176 q 458 169 465 169 q 446 174 450 169 q 350 425 371 243 q 104 361 239 421 q 69 357 92 357 q 63 369 63 358 l 63 372 q 279 906 279 725 q 257 992 279 960 q 256 997 256 994 q 260 1000 256 1000 q 332 874 332 976 q 194 432 332 743 q 199 425 194 425 q 346 458 263 453 q 342 524 343 490 z "},"":{"ha":958,"x_min":-8,"x_max":1063,"o":"m 724 728 l 719 700 q 756 672 719 672 q 885 753 825 672 q 946 908 946 833 q 767 1067 946 1067 q 576 1020 667 1067 q 422 896 486 974 q 258 521 290 735 q 563 578 393 547 q 554 527 561 550 q 540 501 547 504 q 251 447 371 472 l 251 418 q 253 376 251 390 q 551 433 382 403 q 543 383 550 406 q 529 357 536 360 q 261 307 329 322 q 383 75 288 163 q 648 -12 479 -12 q 944 153 817 -12 l 954 136 q 794 -15 892 35 q 583 -64 696 -64 q 249 28 365 -64 q 114 274 133 121 q 26 247 58 260 q -8 235 -6 235 l 11 315 q 111 346 29 325 q 117 415 111 368 q 21 386 36 393 q 3 379 6 379 l 22 460 q 132 492 42 469 q 231 720 163 608 q 395 922 300 832 q 615 1066 490 1011 q 853 1121 739 1121 q 1063 992 1063 1121 q 999 825 1063 917 q 842 669 936 733 q 667 604 747 604 q 618 625 626 604 q 611 663 611 643 q 649 713 611 683 q 705 742 686 742 q 724 728 724 742 z "},"":{"ha":869,"x_min":-89,"x_max":878,"o":"m 688 844 l 686 833 l 686 815 q 708 647 686 744 q 756 554 722 590 q 840 518 790 518 q 875 526 858 518 q 878 521 878 524 q 844 493 878 508 q 790 478 810 478 q 675 572 717 478 q 633 793 633 665 l 631 793 l 567 535 q 561 499 564 503 q 529 485 533 485 q 524 512 525 485 q 517 601 524 539 q 490 734 511 664 q 442 804 469 804 q 393 751 411 804 q 421 510 421 624 q 408 487 421 496 q 385 478 394 478 q 368 497 376 478 q 347 631 347 543 q 350 676 347 660 q 278 854 321 851 q 271 860 271 854 q 297 870 271 865 q 336 875 324 875 q 357 856 349 875 q 377 810 367 840 q 386 779 388 779 q 431 840 404 815 q 483 864 457 864 q 544 804 526 864 q 571 624 563 744 l 582 671 q 619 825 615 818 q 651 842 624 832 q 685 851 678 851 q 688 844 688 851 m 171 440 q 186 419 171 419 q 207 435 197 419 q 217 478 217 450 q 210 536 217 506 q 171 440 171 499 m 207 867 q 81 820 194 867 q -57 758 -32 774 q -85 742 -82 742 q -89 751 -89 742 q -72 803 -89 761 q 79 868 -57 822 q 333 931 215 914 q 342 926 342 931 q 339 922 340 924 l 315 897 q 283 889 314 896 q 227 860 253 882 q 201 803 201 838 q 227 694 201 768 q 260 583 253 619 q 317 610 294 606 q 324 603 324 610 q 321 599 324 601 q 263 567 297 590 q 267 526 267 546 q 230 428 267 474 q 161 382 193 382 q 136 419 136 382 q 206 556 136 499 q 172 656 200 582 q 144 768 144 731 q 154 819 144 806 q 207 867 164 833 z "},"":{"ha":553,"x_min":65,"x_max":526,"o":"m 65 449 l 74 518 q 347 528 233 518 q 493 549 460 539 l 526 558 l 515 476 q 65 449 414 449 z "},"":{"ha":553,"x_min":42,"x_max":539,"o":"m 78 222 l 86 292 q 359 301 246 292 q 506 322 472 311 l 539 332 l 528 250 q 78 222 426 222 m 481 697 q 332 608 379 632 q 197 554 285 585 q 342 494 293 519 q 404 461 392 468 q 532 392 457 436 l 458 354 l 433 371 q 178 499 293 461 q 89 515 126 515 l 42 567 q 236 639 138 582 q 404 757 335 696 l 406 757 q 411 751 407 757 q 481 697 422 736 z "},"":{"ha":553,"x_min":46,"x_max":539,"o":"m 78 222 l 86 292 q 359 301 246 292 q 506 322 472 311 l 539 332 l 528 250 q 78 222 426 222 m 93 414 q 242 503 194 479 q 376 557 289 526 q 46 704 208 615 l 96 774 l 124 756 q 485 596 369 596 l 507 526 q 169 354 331 497 l 168 354 q 163 360 167 354 q 93 414 151 375 z "},"":{"ha":878,"x_min":0,"x_max":878,"o":"m 636 283 q 574 172 636 210 q 433 133 513 133 q 242 188 353 133 l 254 253 q 432 196 346 196 q 522 219 488 196 q 557 276 557 242 q 526 337 557 310 q 450 385 494 364 q 361 431 406 407 q 285 490 317 454 q 254 568 254 525 q 309 677 254 643 q 436 711 364 711 q 519 696 488 711 q 604 651 583 665 l 589 592 q 440 650 522 650 q 360 628 390 650 q 329 574 329 607 q 361 517 329 542 q 438 473 393 492 q 528 433 483 454 q 604 373 572 411 q 636 283 636 335 m 704 156 q 759 211 704 156 q 814 422 814 267 q 704 688 814 578 q 439 799 594 799 q 173 688 283 799 q 63 422 63 578 q 173 156 63 267 q 439 46 283 46 q 704 156 594 46 m 749 732 q 813 667 749 732 q 878 422 878 603 q 749 113 878 242 q 438 -17 619 -17 q 128 112 257 -17 q 0 422 0 240 q 128 733 0 604 q 438 861 257 861 q 749 732 619 861 m 603 1025 l 478 907 q 439 908 465 908 q 400 907 413 908 l 275 1025 l 357 1025 l 438 940 l 519 1025 l 603 1025 z "},"":{"ha":789,"x_min":-253,"x_max":831,"o":"m -81 -203 q -158 -186 -118 -186 q -197 -198 -197 -186 q -158 -210 -197 -210 q -81 -203 -119 -210 m 499 610 q 510 598 499 610 q 521 553 521 586 q 499 496 521 519 q 448 472 478 472 q 397 496 418 472 q 376 553 376 519 q 397 610 376 586 q 448 633 418 633 q 499 610 478 633 m 169 -465 q 106 -153 153 -360 q -28 -218 40 -194 q 165 -472 78 -292 l 169 -465 m 143 682 q 143 779 143 682 q 116 988 143 876 q 34 1099 89 1099 q -21 957 -21 1099 q 107 322 -21 815 q 143 682 143 488 m 383 311 q 396 328 383 324 q 490 361 479 361 q 500 349 500 361 q 490 236 490 292 q 526 67 490 129 q 621 4 563 4 q 821 153 713 4 l 831 136 q 696 -12 768 39 q 559 -62 624 -62 q 449 -16 494 -62 q 385 118 403 31 q 210 -75 314 17 q 282 -510 282 -374 q 274 -521 282 -519 q 235 -544 267 -522 q 198 -570 203 -565 q 187 -575 193 -575 q 176 -564 181 -575 q -43 -222 81 -304 q -158 -244 -114 -244 q -253 -211 -253 -244 q -229 -183 -253 -196 q -158 -169 -206 -169 q -58 -197 -110 -169 q 99 -128 17 -178 q 32 133 81 -57 q -39 419 -17 322 q -108 845 -108 708 q -52 1061 -108 982 q 108 1140 4 1140 q 217 876 217 1140 q 188 573 217 740 q 119 281 160 406 l 204 -50 q 381 142 315 42 q 376 215 376 178 q 383 311 376 253 z "},"":{"ha":913,"x_min":-253,"x_max":954,"o":"m -79 -203 q -157 -186 -117 -186 q -197 -198 -197 -186 q -158 -210 -197 -210 q -79 -203 -118 -210 m 169 -465 q 106 -157 150 -337 q -26 -218 50 -190 q 165 -472 78 -292 l 169 -465 m 143 682 q 143 779 143 682 q 116 988 143 876 q 34 1099 89 1099 q -21 957 -21 1099 q 107 322 -21 815 q 143 682 143 488 m 615 1108 q 449 967 510 1108 q 389 612 389 825 q 461 233 389 399 q 653 610 581 414 q 726 940 726 806 q 615 1108 726 1108 m 217 876 q 188 573 217 740 q 119 281 160 406 q 206 -58 156 150 q 371 110 297 18 q 290 496 290 265 q 334 813 290 664 q 472 1064 378 963 q 693 1165 567 1165 q 831 989 831 1165 q 733 615 831 839 q 482 192 636 392 q 719 24 572 24 q 843 58 781 24 q 944 153 906 93 l 954 136 q 808 -9 901 44 q 625 -62 714 -62 l 619 -62 q 389 79 478 -62 q 213 -85 304 -14 q 282 -510 282 -376 q 274 -521 282 -519 q 235 -544 267 -522 q 198 -570 203 -565 q 187 -575 193 -575 q 176 -564 181 -575 q -43 -224 81 -306 q -161 -244 -119 -244 q -253 -211 -253 -244 q -229 -183 -253 -196 q -159 -169 -206 -169 q -58 -199 -112 -169 q 100 -133 21 -181 q 33 127 82 -62 q -39 415 -15 317 q -108 844 -108 706 q -52 1061 -108 982 q 108 1140 4 1140 q 217 876 217 1140 z "}}}
